<svg xmlns="http://www.w3.org/2000/svg">
<defs>
<font id="Aver" horiz-adv-x="586" >
  <font-face 
    font-family="Aver"
    font-weight="400"
    font-stretch="normal"
    units-per-em="1024"
    panose-1="2 4 5 3 6 8 5 2 3 3"
    ascent="819"
    descent="-205"
    x-height="477"
    cap-height="710"
    bbox="-134 -246 1409 909"
    underline-thickness="150"
    underline-position="8"
    unicode-range="U+0020-U+FB06"
  />
<missing-glyph horiz-adv-x="918" 
d="M472 145q0 12 -3 12h-10v-17h9v5h4zM741 410q0 11 -3 11h-10v-16h9v5h4zM552 634q5 0 8 5q5 7 5 19q-1 12 -5 19q-4 5 -9 5t-8 -5q-5 -6 -5 -19q1 -12 5 -18t9 -6zM729 465q6 0 9 5q4 6 4 19q0 12 -5 19q-3 5 -8 5q-6 0 -9 -5q-4 -7 -4 -19t5 -19q3 -5 8 -5zM189 279
q6 0 9 5q4 7 4 19t-5 19q-3 5 -8 5q-6 0 -9 -5q-4 -6 -4 -19q0 -12 5 -18q3 -6 8 -6zM377 115q5 7 5 19t-4 19q-4 5 -9 5t-9 -5q-4 -7 -4 -19q0 -13 4 -19q3 -5 8 -5t9 5zM201 405q0 11 -3 11h-10v-16h9v5h4zM480 145v-20h-12v5h-9v-17q0 -4 7 -4v-9h-31v9q6 0 6 2v46
q0 2 -6 2v8h50v-22h-5zM648 158h-4v9h24v-9q-5 0 -6 -3l-14 -26v-18q0 -2 6 -2v-9h-30v9q6 0 6 2v18l-14 26q-2 3 -6 3v9h28v-9h-4l7 -14zM290 683h-3v9h23v-9q-4 0 -6 -3l-13 -27v-18q0 -2 6 -2v-8h-31v8q7 0 7 2v18l-15 27q-2 3 -5 3v9h27v-9h-4l8 -14zM198 598h-4v9h24
v-9q-5 0 -6 -3l-14 -26v-18q0 -2 6 -2v-9h-30v9q6 0 6 2v18l-14 26q-2 3 -6 3v9h28v-9h-4l7 -14zM749 410v-20h-12v4h-9v-16q0 -4 7 -4v-9h-31v9q6 0 6 2v45q0 2 -6 2v9h50v-22h-5zM738 243h-4v9h24v-9q-5 0 -6 -3l-14 -26v-18q0 -2 6 -2v-9h-30v9q6 0 6 2v18l-14 26
q-2 3 -6 3v9h28v-9h-4l7 -14zM176 659v-23q0 -2 9 -2v-9h-28v9q5 0 5 2v41q0 6 -5 6v9h15l29 -35v24q0 2 -8 2v9h28v-9q-5 0 -5 -2v-56h-10zM349 692l21 -43l18 43h20v-9q-5 0 -5 -6v-41q0 -2 5 -2v-9h-27v9q4 0 4 1v15l-11 -25h-12l-13 26v-15q0 -2 4 -2v-9h-23v9q4 0 4 2
v41q0 6 -4 6v9h19zM584 658q0 -14 -8 -24t-24 -10q-17 0 -25 10t-8 24q0 15 8 24q8 10 24 10q17 0 25 -10q8 -9 8 -24zM626 659v-23q0 -2 9 -2v-9h-28v9q4 0 4 2v41q0 6 -4 6v9h15l29 -35v24q0 2 -8 2v9h27v-9q-4 0 -4 -2v-56h-11zM756 692v-22h-13q0 11 -3 11h-2v-45

<glyph glyph-name=".notdef" horiz-adv-x="918" 
d="M472 145q0 12 -3 12h-10v-17h9v5h4zM741 410q0 11 -3 11h-10v-16h9v5h4zM552 634q5 0 8 5q5 7 5 19q-1 12 -5 19q-4 5 -9 5t-8 -5q-5 -6 -5 -19q1 -12 5 -18t9 -6zM729 465q6 0 9 5q4 6 4 19q0 12 -5 19q-3 5 -8 5q-6 0 -9 -5q-4 -7 -4 -19t5 -19q3 -5 8 -5zM189 279
q6 0 9 5q4 7 4 19t-5 19q-3 5 -8 5q-6 0 -9 -5q-4 -6 -4 -19q0 -12 5 -18q3 -6 8 -6zM377 115q5 7 5 19t-4 19q-4 5 -9 5t-9 -5q-4 -7 -4 -19q0 -13 4 -19q3 -5 8 -5t9 5zM201 405q0 11 -3 11h-10v-16h9v5h4zM480 145v-20h-12v5h-9v-17q0 -4 7 -4v-9h-31v9q6 0 6 2v46
q0 2 -6 2v8h50v-22h-5zM648 158h-4v9h24v-9q-5 0 -6 -3l-14 -26v-18q0 -2 6 -2v-9h-30v9q6 0 6 2v18l-14 26q-2 3 -6 3v9h28v-9h-4l7 -14zM290 683h-3v9h23v-9q-4 0 -6 -3l-13 -27v-18q0 -2 6 -2v-8h-31v8q7 0 7 2v18l-15 27q-2 3 -5 3v9h27v-9h-4l8 -14zM198 598h-4v9h24
v-9q-5 0 -6 -3l-14 -26v-18q0 -2 6 -2v-9h-30v9q6 0 6 2v18l-14 26q-2 3 -6 3v9h28v-9h-4l7 -14zM749 410v-20h-12v4h-9v-16q0 -4 7 -4v-9h-31v9q6 0 6 2v45q0 2 -6 2v9h50v-22h-5zM738 243h-4v9h24v-9q-5 0 -6 -3l-14 -26v-18q0 -2 6 -2v-9h-30v9q6 0 6 2v18l-14 26
q-2 3 -6 3v9h28v-9h-4l7 -14zM176 659v-23q0 -2 9 -2v-9h-28v9q5 0 5 2v41q0 6 -5 6v9h15l29 -35v24q0 2 -8 2v9h28v-9q-5 0 -5 -2v-56h-10zM349 692l21 -43l18 43h20v-9q-5 0 -5 -6v-41q0 -2 5 -2v-9h-27v9q4 0 4 1v15l-11 -25h-12l-13 26v-15q0 -2 4 -2v-9h-23v9q4 0 4 2
v41q0 6 -4 6v9h19zM584 658q0 -14 -8 -24t-24 -10q-17 0 -25 10t-8 24q0 15 8 24q8 10 24 10q17 0 25 -10q8 -9 8 -24zM626 659v-23q0 -2 9 -2v-9h-28v9q4 0 4 2v41q0 6 -4 6v9h15l29 -35v24q0 2 -8 2v9h27v-9q-4 0 -4 -2v-56h-11zM756 692v-22h-13q0 11 -3 11h-2v-45
q0 -2 6 -2v-9h-30v9q6 0 6 2v45h-2q-3 0 -3 -11h-13v22h54zM459 654v-16q0 -4 7 -4v-9h-31v9q6 0 6 2v45q0 2 -6 2v9h50v-22h-13q0 11 -3 11h-10v-16h9v4h12v-19h-12v4h-9zM716 134v-23q0 -2 9 -2v-9h-28v9q5 0 5 2v41q0 6 -5 6v9h15l29 -35v24q0 2 -8 2v9h28v-9q-5 0 -5 -2
v-56h-10zM709 342l21 -43l18 43h20v-9q-4 0 -4 -6v-41q0 -2 4 -2v-9h-27v9q5 0 5 1v14l-12 -24h-12l-13 26v-15q0 -2 4 -2v-9h-23v9q4 0 4 2v41q0 6 -4 6v9h19zM761 488q0 -14 -7 -23q-8 -10 -25 -10t-24 9q-8 10 -8 24q0 16 7 25q8 10 24 10q18 0 26 -10q7 -9 7 -25z
M716 579v-23q0 -2 9 -2v-9h-28v9q5 0 5 2v41q0 6 -5 6v9h15l29 -35v24q0 2 -8 2v9h28v-9q-5 0 -5 -2v-56h-10zM216 168v-22h-13q0 11 -3 11h-2v-45q0 -2 6 -2v-9h-30v9q6 0 6 2v45h-2q-3 0 -3 -11h-13v22h54zM169 517l21 -42l18 42h20v-8q-4 0 -4 -7v-41q0 -2 4 -2v-9h-27v9
q5 0 5 2v14l-12 -25h-12l-13 26v-15q0 -2 4 -2v-9h-23v9q4 0 4 2v41q0 7 -4 7v8h19zM221 303q0 -15 -7 -24q-8 -10 -25 -10t-24 10q-8 9 -8 24t7 24q8 10 24 10q18 0 26 -10q7 -9 7 -24zM176 214v-23q0 -2 9 -2v-9h-28v9q5 0 5 2v41q0 6 -5 6v9h15l29 -35v24q0 2 -8 2v9h28
v-9q-5 0 -5 -2v-56h-10zM531 167l21 -42l19 42h19v-8q-4 0 -4 -7v-41q0 -2 4 -2v-9h-26v9q4 0 4 2v14l-11 -25h-12l-13 26v-15q0 -2 4 -2v-9h-23v9q4 0 4 2v41q0 7 -4 7v8h18zM344 158q8 10 25 10q16 0 25 -10q7 -9 7 -25q0 -14 -8 -24q-8 -9 -25 -9q-16 0 -24 10
q-8 9 -8 23q0 16 8 25zM269 134v-23q0 -2 9 -2v-9h-28v9q4 0 4 2v41q0 7 -4 7v8h15l29 -35v25q0 2 -9 2v8h28v-8q-5 0 -5 -2v-57h-10zM209 405v-20h-12v4h-9v-16q0 -4 7 -4v-9h-31v9q6 0 6 2v45q0 2 -6 2v9h50v-22h-5z" />
    <glyph glyph-name=".null" horiz-adv-x="0" 
 />
    <glyph glyph-name="nonmarkingreturn" horiz-adv-x="254" 
 />
    <glyph glyph-name="space" unicode=" " horiz-adv-x="254" 
 />
    <glyph glyph-name="space" unicode="&#xa0;" horiz-adv-x="254" 
 />
    <glyph glyph-name="exclam" unicode="!" horiz-adv-x="239" 
d="M178 51q0 -23 -17 -40q-16 -16 -41 -16t-41 16q-17 17 -17 40q0 22 17 39t41 17t41 -17t17 -39zM93 200q-47 361 -49 423q0 94 76 94q75 0 75 -94q-2 -62 -49 -423h-53z" />
    <glyph glyph-name="quotedbl" unicode="&#x22;" horiz-adv-x="349" 
d="M101 717q52 -1 52 -53q0 -33 -40 -129h-24q-40 96 -40 129q0 52 52 53zM248 717q52 -1 52 -53q0 -30 -41 -129h-23q-41 99 -41 129q0 51 53 53z" />
    <glyph glyph-name="numbersign" unicode="#" horiz-adv-x="559" 
d="M362 171h-189l-16 -170h-48l16 170h-101l5 48h101l14 140h-102l5 48h101l22 223h48l-22 -223h189l22 223h48l-22 -223h101l-5 -48h-101l-13 -140h101l-5 -48h-101l-16 -170h-48zM178 219h189l13 140h-189z" />
    <glyph glyph-name="dollar" unicode="$" horiz-adv-x="421" 
d="M186 624q-63 -24 -63 -115q0 -56 63 -98v213zM236 87q63 23 63 114q-2 57 -63 97v-211zM236 385q160 -59 161 -171q0 -151 -161 -172v-42h-50v40q-78 6 -118 50q-44 44 -44 112q8 66 64 66q50 0 55 -44q0 -37 -25 -59q-14 -14 -14 -28q0 -13 11 -27q21 -26 71 -31v246
q-160 59 -162 171q0 150 162 172v42h50v-40q77 -6 118 -50q43 -43 43 -112q-6 -66 -64 -66q-50 0 -55 44q0 37 25 59q14 14 14 28q0 13 -11 27q-19 26 -70 31v-246z" />
    <glyph glyph-name="percent" unicode="%" horiz-adv-x="770" 
d="M415 142q0 58 34 98q35 42 113 42q81 0 114 -42q34 -40 34 -98q0 -59 -33 -100q-34 -43 -114 -43t-114 43q-34 40 -34 100zM641 141q0 43 -16 71q-16 30 -62 30t-63 -30q-15 -28 -15 -71q0 -40 15 -72q17 -30 63 -30q47 0 62 30q16 31 16 72zM146 0l427 709h50l-428 -709
h-49zM354 570q0 -58 -34 -99q-33 -41 -113 -41q-79 0 -114 41q-34 41 -34 99q0 60 34 100q34 43 114 43t113 -43q34 -41 34 -100zM129 571q0 -42 15 -71q17 -30 63 -30t62 30q16 28 16 71q0 40 -16 71t-62 31q-48 0 -63 -31t-15 -71z" />
    <glyph glyph-name="ampersand" unicode="&#x26;" horiz-adv-x="608" 
d="M485 310q-180 -31 -180 -85q7 -13 25 -13q28 6 47 8h1q53 0 54 -45q0 -53 -73 -54q-105 7 -108 119q0 104 143 142q143 39 143 81q-8 20 -22 20q-11 0 -27 -8q-13 -4 -27 -4q-50 0 -53 49q0 40 59 49q112 0 119 -109q0 -68 -44 -107q42 -52 42 -136q0 -218 -263 -224
q-287 6 -287 224q0 159 153 205q-89 53 -89 151q5 137 157 139q42 0 87 -18h37v-132h-36q-4 96 -76 96q-73 -7 -73 -81q0 -103 158 -124l-49 -54q-149 -5 -149 -182q2 -183 167 -186q168 3 178 186q0 53 -14 93z" />
    <glyph glyph-name="quotesingle" unicode="'" horiz-adv-x="202" 
d="M101 717q52 -1 52 -53q0 -33 -40 -129h-24q-40 96 -40 129q0 52 52 53z" />
    <glyph glyph-name="parenleft" unicode="(" horiz-adv-x="298" 
d="M273 707q-70 -19 -94 -112q-24 -91 -24 -242q0 -145 24 -237q24 -93 94 -112v-29q-107 0 -166 104q-58 104 -58 274q0 175 58 279q59 105 166 105v-30z" />
    <glyph glyph-name="parenright" unicode=")" horiz-adv-x="298" 
d="M215 632q58 -104 58 -279q0 -170 -58 -274q-59 -104 -166 -104v29q70 19 94 112q24 92 24 237q0 151 -24 242q-24 93 -94 112v30q108 0 166 -105z" />
    <glyph glyph-name="asterisk" unicode="*" horiz-adv-x="459" 
d="M229 459l-58 -129q-16 -33 -48 -33q-21 0 -36 15t-15 36t24 45l112 80h-125q-21 0 -36 15t-15 36t15 36t36 15t35 -13l96 -73l-36 125l-1 8q-1 5 -1 9q0 21 15 36q14 15 38 15q26 0 39 -15q15 -15 15 -36q0 -4 -1 -9l-1 -8l-36 -125l96 73q14 13 35 13t36 -15t15 -36
t-15 -36t-36 -15h-125l112 -80q24 -24 24 -45t-15 -36t-36 -15q-31 0 -48 33z" />
    <glyph glyph-name="plus" unicode="+" 
d="M269 283v195h47v-195h196v-48h-196v-195h-47v195h-195v48h195z" />
    <glyph glyph-name="comma" unicode="," horiz-adv-x="191" 
d="M76 -3q-19 0 -33 15q-16 16 -16 39t16 39q17 17 41 17q25 0 42 -17t17 -43q0 -73 -89 -159l-18 21q29 41 40 88z" />
    <glyph glyph-name="hyphen" unicode="-" horiz-adv-x="399" 
d="M39 244v48h321v-48h-321z" />
    <glyph glyph-name="hyphen" unicode="&#xad;" horiz-adv-x="399" 
d="M39 244v48h321v-48h-321z" />
    <glyph glyph-name="period" unicode="." horiz-adv-x="213" 
d="M165 51q0 -23 -17 -40q-16 -16 -42 -16q-25 0 -41 16t-16 40q0 23 16 39q17 17 41 17q25 0 42 -17t17 -39z" />
    <glyph glyph-name="slash" unicode="/" horiz-adv-x="331" 
d="M0 0l281 744h50l-281 -744h-50z" />
    <glyph glyph-name="zero" unicode="0" 
d="M568 284q0 -126 -69 -209q-69 -80 -207 -80q-137 0 -206 80q-68 82 -68 209t68 210t204 83t207 -83t71 -210zM126 284q0 -110 41 -180q41 -69 125 -69q85 0 128 69q39 62 39 180q0 111 -43 181q-43 72 -126 72q-82 0 -123 -72q-41 -71 -41 -181z" />
    <glyph glyph-name="one" unicode="1" 
d="M234 374h-136v45q140 10 199 138h57v-415q0 -101 137 -103v-39h-395v38q138 2 138 104v232z" />
    <glyph glyph-name="two" unicode="2" 
d="M519 91v-91h-452v48q2 119 147 185q146 65 146 202q0 106 -116 106q-77 0 -87 -40q0 -18 22 -37t22 -47q-7 -42 -55 -45q-66 0 -68 71q1 49 31 80q53 56 159 56q205 0 206 -172q0 -148 -171 -193q-171 -46 -171 -123h387z" />
    <glyph glyph-name="three" unicode="3" 
d="M354 407q0 64 -21 92q-35 44 -90 44q-56 0 -66 -28q0 -11 21 -25q30 -16 30 -43q0 -44 -50 -49q-58 5 -59 65q0 38 20 63q50 54 138 54q90 0 146 -53q47 -45 47 -108q0 -106 -119 -151q164 -35 164 -211q0 -73 -49 -131q-70 -87 -187 -87q-128 4 -178 97q-30 60 -30 102
q3 77 69 77q58 0 58 -55q0 -41 -31 -68q-18 -16 -18 -35q14 -71 116 -77q77 2 120 55q30 38 30 105q0 195 -200 198v43q137 1 139 126z" />
    <glyph glyph-name="four" unicode="4" 
d="M382 557h67v-437h65v-68h-65v-156h-94v156h-283v68zM145 120h210v310z" />
    <glyph glyph-name="five" unicode="5" 
d="M104 229l96 328h276v-89h-255l-55 -185q35 29 112 30q102 0 175 -67q72 -67 72 -163q-2 -102 -76 -169q-74 -68 -196 -68q-116 8 -164 97q-29 61 -29 100q3 79 69 79q54 -5 58 -51q0 -45 -31 -72q-18 -18 -18 -36q19 -70 111 -76q66 2 117 55q50 53 55 145q0 76 -46 128
q-47 53 -124 53q-79 -1 -126 -61z" />
    <glyph glyph-name="six" unicode="6" 
d="M170 353q55 94 162 94q200 0 200 -222q-6 -230 -234 -230q-234 0 -244 265q8 273 270 450h51q-180 -171 -205 -357zM165 254q0 -214 129 -214q132 0 136 180q0 173 -113 173q-97 0 -152 -139z" />
    <glyph glyph-name="seven" unicode="7" 
d="M530 498l-264 -592h-107l296 567h-327q-35 -14 -35 -112h-37v196h474v-59z" />
    <glyph glyph-name="eight" unicode="8" 
d="M255 368q-37 -9 -66 -45q-38 -47 -38 -114q0 -160 129 -162q144 2 144 162q0 67 -39 106q-39 41 -76 45zM323 409q26 6 45 36q26 38 26 92q0 127 -101 130q-101 -2 -101 -130q0 -112 131 -128zM190 390q-94 57 -94 149q0 170 197 175q197 -5 197 -175q0 -103 -94 -149
q132 -52 132 -187q0 -208 -234 -208h-2q-234 0 -234 208q0 144 132 187z" />
    <glyph glyph-name="nine" unicode="9" 
d="M416 222q-56 -95 -162 -95q-200 0 -200 223q6 230 234 230q233 0 244 -266q-7 -271 -270 -450h-52q181 172 206 358zM421 320q0 215 -129 215q-132 0 -136 -181q0 -173 113 -173q97 0 152 139z" />
    <glyph glyph-name="colon" unicode=":" horiz-adv-x="213" 
d="M165 51q0 -23 -17 -40q-16 -16 -42 -16q-25 0 -41 16t-16 40q0 23 16 39q17 17 41 17q25 0 42 -17t17 -39zM165 421q0 -23 -17 -40q-16 -16 -42 -16q-25 0 -41 16t-16 40q0 23 16 39q17 17 41 17q25 0 42 -17t17 -39z" />
    <glyph glyph-name="semicolon" unicode=";" horiz-adv-x="213" 
d="M76 -3q-19 0 -33 15q-16 16 -16 39t16 39q17 17 41 17q25 0 42 -17t17 -43q0 -73 -89 -159l-18 21q29 41 40 88zM165 421q0 -23 -17 -40q-16 -16 -42 -16q-25 0 -41 16t-16 40q0 23 16 39q17 17 41 17q25 0 42 -17t17 -39z" />
    <glyph glyph-name="semicolon" unicode="&#x37e;" horiz-adv-x="213" 
d="M76 -3q-19 0 -33 15q-16 16 -16 39t16 39q17 17 41 17q25 0 42 -17t17 -43q0 -73 -89 -159l-18 21q29 41 40 88zM165 421q0 -23 -17 -40q-16 -16 -42 -16q-25 0 -41 16t-16 40q0 23 16 39q17 17 41 17q25 0 42 -17t17 -39z" />
    <glyph glyph-name="less" unicode="&#x3c;" 
d="M128 273l383 -166v-47l-438 190v47l438 189v-47z" />
    <glyph glyph-name="equal" unicode="=" 
d="M512 380v-47h-438v47h438zM512 185v-47h-438v47h438z" />
    <glyph glyph-name="greater" unicode="&#x3e;" 
d="M73 439v47l438 -189v-47l-438 -190v47l383 166z" />
    <glyph glyph-name="question" unicode="?" horiz-adv-x="428" 
d="M241 51q0 -24 -16 -40t-42 -16q-25 0 -41 16q-17 17 -17 40q0 22 17 39t41 17q25 0 42 -17q16 -16 16 -39zM171 198q5 105 64 190q62 88 64 172q0 124 -115 124q-53 -2 -75 -31q-14 -19 -14 -36q0 -11 6 -22q24 -22 24 -58q-3 -41 -45 -41q-48 0 -56 62q0 70 48 114
q50 45 138 45q169 -1 169 -170q-2 -110 -87 -197q-76 -78 -87 -152h-34z" />
    <glyph glyph-name="at" unicode="@" horiz-adv-x="596" 
d="M432 429q-12 -15 -71 -21q-58 -4 -63 -65q4 -75 82 -77q34 0 52 21v142zM312 -5q-275 8 -275 359q0 353 275 361q194 0 205 -203v-223q0 -22 13 -22q8 0 23 7l21 -20q-27 -40 -67 -43q-38 0 -62 32q-40 -37 -96 -37q-128 2 -132 130q0 93 105 108q108 15 112 46v54
q-13 132 -121 132q-181 0 -181 -320t181 -321q99 0 117 59q0 19 -24 20v33h154v-33q-22 -1 -85 -60q-64 -59 -163 -59z" />
    <glyph glyph-name="A" unicode="A" horiz-adv-x="627" 
d="M190 276h207l-103 310zM169 223l-35 -95q-6 -21 -6 -37q0 -56 69 -58v-33h-207v33q31 1 64 80l226 597h65l228 -597q33 -79 64 -80v-33h-256v33q74 0 74 58q0 15 -6 37l-31 95h-249z" />
    <glyph glyph-name="B" unicode="B" horiz-adv-x="649" 
d="M336 402q110 9 110 128q0 135 -157 139h-64v-267h111zM354 710q199 -1 199 -172q0 -105 -109 -156q162 -25 166 -182q0 -200 -235 -200h-326v33q73 1 73 57v530q0 56 -73 57v33h305zM225 349v-246q0 -60 82 -60h22q166 1 166 151q0 151 -136 155h-134z" />
    <glyph glyph-name="C" unicode="C" horiz-adv-x="657" 
d="M176 351q0 -139 59 -224q59 -83 150 -83q96 1 152 56q56 56 66 108h30q-15 -79 -81 -147q-64 -66 -191 -68q-137 0 -223 93q-89 98 -89 265q0 169 93 266q93 100 229 100q83 0 128 -30q18 -12 29 -12q19 0 19 33h44v-233h-43q-12 89 -48 142q-36 52 -119 52
q-82 0 -144 -90q-61 -88 -61 -228z" />
    <glyph glyph-name="D" unicode="D" horiz-adv-x="678" 
d="M280 47q109 1 173 86q65 86 65 215q0 136 -65 228q-63 90 -173 90h-84v-573q0 -46 67 -46h17zM285 710q170 -5 257 -97q87 -93 87 -262q0 -160 -87 -253q-88 -94 -257 -98h-265v33q73 1 73 57v530q0 56 -73 57v33h265z" />
    <glyph glyph-name="E" unicode="E" horiz-adv-x="607" 
d="M201 340v-245q0 -41 47 -41h144q135 0 135 134h46v-188h-549v33q74 2 74 57v530q0 55 -74 57v33h517v-188h-46q0 134 -139 134h-155v-262h163q55 0 56 54h39v-157h-39q-1 49 -56 49h-163z" />
    <glyph glyph-name="F" unicode="F" horiz-adv-x="515" 
d="M201 340v-225q0 -80 78 -82v-33h-250v33q69 2 69 57v530q0 56 -69 57v33h476v-188h-46q0 134 -90 134h-168v-262h154q56 0 57 54h39v-157h-39q-1 49 -57 49h-154z" />
    <glyph glyph-name="G" unicode="G" horiz-adv-x="683" 
d="M547 218q0 60 -95 62v34h211v-34q-27 -1 -27 -62v-208l-19 -16q-40 11 -57 42l-8 24q-65 -67 -195 -68q-133 0 -219 93q-89 98 -89 264q0 168 93 265t241 103q97 0 140 -30q20 -14 31 -14q18 0 18 32h43v-233h-43q-12 89 -48 142q-36 52 -130 52q-95 0 -157 -90
q-61 -88 -61 -227q0 -138 59 -223q59 -83 153 -83q93 1 159 67v108z" />
    <glyph glyph-name="H" unicode="H" horiz-adv-x="700" 
d="M191 337v-247q0 -55 78 -57v-33h-254v33q73 1 73 57v530q0 56 -73 57v33h254v-33q-78 -1 -78 -57v-229h318v229q0 56 -73 57v33h249v-33q-78 -1 -78 -57v-530q0 -55 78 -57v-33h-249v33q73 1 73 57v247h-318z" />
    <glyph glyph-name="I" unicode="I" horiz-adv-x="303" 
d="M201 90q0 -55 77 -57v-33h-254v33q74 2 74 57v530q0 55 -74 57v33h254v-33q-77 -2 -77 -57v-530z" />
    <glyph glyph-name="J" unicode="J" horiz-adv-x="312" 
d="M212 64q-1 -127 -81 -201q-79 -73 -141 -73v44q60 32 89 85q27 53 30 153v548q0 56 -73 57v33h254v-33q-78 -1 -78 -57v-556z" />
    <glyph glyph-name="K" unicode="K" horiz-adv-x="629" 
d="M215 305l245 324q4 8 4 16q0 25 -49 32v31h204v-32q-59 -11 -100 -65l-163 -210l208 -313q32 -45 84 -56v-32h-148l-214 304l-71 -102v-87q0 -80 78 -82v-33h-254v33q73 1 73 57v530q0 56 -73 57v33h254v-33q-78 -1 -78 -57v-315z" />
    <glyph glyph-name="L" unicode="L" horiz-adv-x="555" 
d="M339 54q136 0 136 130h46v-184h-477v33q73 1 73 57v530q0 56 -73 57v33h254v-33q-78 -1 -78 -57v-527q0 -39 60 -39h59z" />
    <glyph glyph-name="M" unicode="M" horiz-adv-x="855" 
d="M154 710l285 -578l253 578h134v-33q-49 -1 -49 -106v-481q0 -56 49 -57v-33h-205v33q47 2 53 50v402l-222 -485h-68l-240 481v-391q0 -55 48 -57v-33h-163v33q49 1 49 57v481q0 105 -49 106v33h125z" />
    <glyph glyph-name="N" unicode="N" horiz-adv-x="688" 
d="M144 491v-401q0 -55 102 -57v-33h-217v33q49 1 49 57v481q0 105 -49 106v33h92l419 -511v421q0 55 -98 57v33h217v-33q-54 -1 -54 -57v-620h-40z" />
    <glyph glyph-name="O" unicode="O" horiz-adv-x="742" 
d="M695 351q0 -161 -81 -259q-79 -99 -239 -99q-167 0 -248 99q-81 98 -81 259q0 167 80 267q81 99 239 99q169 0 250 -99q80 -100 80 -267zM375 37q96 0 148 82q53 83 53 232q-3 148 -60 232q-58 84 -151 84q-95 0 -147 -82q-53 -83 -53 -234q3 -146 61 -229
q58 -85 149 -85z" />
    <glyph glyph-name="P" unicode="P" horiz-adv-x="573" 
d="M206 316v-177q0 -104 77 -106v-33h-254v33q74 2 74 57v530q0 55 -74 57v33h238q292 -1 292 -197q-1 -196 -292 -197h-61zM206 667v-266q0 -43 49 -43h20q166 6 166 155q0 150 -166 154h-69z" />
    <glyph glyph-name="Q" unicode="Q" horiz-adv-x="742" 
d="M375 37q96 0 148 82q53 83 53 232q-3 148 -60 232q-58 84 -151 84q-95 0 -147 -82q-53 -83 -53 -234q3 -146 61 -229q58 -85 149 -85zM375 -7q-167 0 -248 99q-81 98 -81 259q0 167 80 267q81 99 239 99q169 0 250 -99q80 -100 80 -267q0 -161 -81 -259q-37 -46 -91 -70
q76 -14 140 -78q112 -123 206 -130v-22h-116q-111 0 -212 104q-95 91 -158 97h-8z" />
    <glyph glyph-name="R" unicode="R" horiz-adv-x="603" 
d="M487 193q42 -159 136 -166v-27h-116q-110 1 -145 180q-25 118 -106 138h-60v-179q0 -104 77 -106v-33h-253v33q73 1 73 57v530q0 56 -73 57v33h201q297 0 306 -179q0 -174 -209 -201q133 -21 169 -137zM196 665v-249q0 -55 75 -55q148 16 148 152q0 149 -172 152h-51z
" />
    <glyph glyph-name="S" unicode="S" horiz-adv-x="557" 
d="M137 408q-70 52 -76 131q0 73 59 126q58 52 167 52q108 0 176 -62v-132h-34q-20 82 -54 113q-35 31 -83 31q-62 0 -90 -31q-29 -32 -29 -77q3 -50 107 -106q99 -53 153 -94q81 -64 88 -166q0 -88 -62 -144q-64 -56 -189 -56q-146 0 -221 83v176h50q19 -135 61 -173
q41 -38 103 -38q74 0 109 31q33 29 35 98q-5 84 -115 145q-108 59 -155 93z" />
    <glyph glyph-name="T" unicode="T" horiz-adv-x="562" 
d="M542 710v-188h-45q0 134 -90 134h-74v-566q0 -56 73 -57v-33h-250v33q73 1 73 57v566h-74q-90 0 -90 -134h-45v188h522z" />
    <glyph glyph-name="U" unicode="U" horiz-adv-x="701" 
d="M82 619q0 56 -74 58v33h254v-33q-77 -2 -77 -107v-306q0 -205 187 -205q178 0 178 202v309q0 105 -74 107v33h217v-33q-78 -1 -78 -58v-369q0 -111 -66 -185q-66 -72 -204 -72q-139 0 -201 72q-62 74 -62 180v374z" />
    <glyph glyph-name="V" unicode="V" horiz-adv-x="602" 
d="M355 0h-64l-228 598q-33 77 -83 79v33h255v-33q-52 -1 -52 -43q0 -11 4 -22l155 -493l158 499q1 5 1 10v6q0 41 -53 43v33h173v-33q-32 -2 -63 -79z" />
    <glyph glyph-name="W" unicode="W" horiz-adv-x="817" 
d="M412 490l-114 -490h-80l-192 628q-13 34 -46 45v37h233v-40q-65 -6 -65 -48l133 -452l124 542h36l166 -562l122 475q0 43 -73 44v41h186v-38q-31 -10 -43 -44l-172 -628h-79z" />
    <glyph glyph-name="X" unicode="X" horiz-adv-x="610" 
d="M339 375l193 -284q43 -57 88 -58v-33h-241v33q42 2 42 33q0 11 -6 24l-121 190l-125 -190q-4 -8 -4 -19q0 -36 51 -38v-33h-226v33q71 2 114 58l163 243l-193 285q-37 56 -84 58v33h237v-33q-42 -1 -42 -33q0 -10 6 -24l120 -190l125 190q5 12 5 21q0 35 -39 36v33h218
v-33q-76 -2 -119 -58z" />
    <glyph glyph-name="Y" unicode="Y" horiz-adv-x="538" 
d="M323 301v-211q0 -56 73 -57v-33h-250v33q74 2 74 57v213l-174 316q-33 57 -61 58v33h214v-33q-42 -1 -42 -33q0 -11 7 -24l129 -251l125 251q7 13 7 24q0 32 -42 33v33h170v-33q-40 -1 -70 -58z" />
    <glyph glyph-name="Z" unicode="Z" horiz-adv-x="527" 
d="M129 54h222q111 0 111 178h45v-232h-487v46l379 614h-195q-134 0 -135 -130h-46v184h482v-54z" />
    <glyph glyph-name="bracketleft" unicode="[" horiz-adv-x="344" 
d="M312 710v-47h-108v-749h108v-48h-187v844h187z" />
    <glyph glyph-name="backslash" unicode="\" horiz-adv-x="331" 
d="M281 0l-281 744h50l281 -744h-50z" />
    <glyph glyph-name="bracketright" unicode="]" horiz-adv-x="344" 
d="M219 710v-844h-188v48h109v749h-109v47h188z" />
    <glyph glyph-name="asciicircum" unicode="^" 
d="M127 272h-47l189 438h47l190 -438h-47l-167 383z" />
    <glyph glyph-name="underscore" unicode="_" horiz-adv-x="517" 
d="M-26 -90v49h570v-49h-570z" />
    <glyph glyph-name="grave" unicode="`" horiz-adv-x="244" 
d="M173 509q-92 56 -111 77q-11 14 -11 32q0 27 22 43q15 12 34 12q24 0 42 -21l2 -3q17 -23 44 -125z" />
    <glyph glyph-name="a" unicode="a" horiz-adv-x="511" 
d="M328 279q-30 -27 -108 -49t-78 -99q4 -88 109 -88q45 0 77 29v207zM250 492q181 -1 185 -149v-269q0 -22 16 -22q7 0 28 8l27 -20q-34 -40 -84 -42q-47 0 -77 31q-58 -31 -151 -31q-148 13 -150 128q0 127 126 146q125 21 162 62v57q-7 61 -56 61q-48 0 -56 -35t-34 -58
q-18 -15 -39 -15q-56 2 -56 57q1 43 55 67q53 24 104 24z" />
    <glyph glyph-name="b" unicode="b" horiz-adv-x="557" 
d="M176 139q17 -88 102 -92q126 2 126 201q-3 198 -129 198q-72 0 -99 -65v-242zM152 44q-16 -32 -50 -46l-29 16v623q-4 46 -78 49v39q84 0 181 12v-284q44 39 126 39q205 0 209 -244q0 -248 -224 -250q-68 0 -135 46z" />
    <glyph glyph-name="c" unicode="c" horiz-adv-x="486" 
d="M261 -2q-215 2 -219 251q5 242 239 243q73 -2 115 -32q47 -35 50 -89q0 -50 -52 -54q-59 6 -59 62q0 7 3 23q1 3 1 7v7q0 33 -47 33q-133 -1 -136 -199q2 -193 137 -195q87 0 132 96l28 -20q-49 -133 -192 -133z" />
    <glyph glyph-name="d" unicode="d" horiz-adv-x="546" 
d="M370 358q-39 80 -100 84q-123 -2 -125 -195q3 -204 138 -204q63 0 87 59v256zM370 40q-39 -42 -123 -42q-206 0 -209 249q3 245 205 245q77 0 127 -56v201q-3 46 -78 49v39q84 0 181 12v-639q5 -45 68 -48v-39q-44 0 -85 -3q-17 -1 -41 -4q-5 0 -11 -1l-23 -2
q-6 -1 -11 -1v40z" />
    <glyph glyph-name="e" unicode="e" horiz-adv-x="487" 
d="M356 305q-4 138 -90 140q-85 0 -111 -140h201zM258 -2q-212 4 -223 253q11 240 223 241q203 0 203 -237h-309q2 -201 130 -201q93 0 135 94l29 -20q-46 -125 -188 -130z" />
    <glyph glyph-name="f" unicode="f" horiz-adv-x="361" 
d="M287 743q-72 0 -72 -115v-151h150v-40h-150v-347q0 -55 87 -57v-33h-250v33q60 2 60 57v347h-90v40h90v119q0 182 155 196q125 0 143 -103q0 -64 -57 -66q-57 3 -58 51q0 20 7 31q11 19 11 25q0 13 -26 13z" />
    <glyph glyph-name="g" unicode="g" horiz-adv-x="521" 
d="M256 453q-91 0 -93 -116q2 -120 89 -120q81 0 82 120q-2 116 -78 116zM397 -35q0 93 -89 95q-83 2 -135 11q-48 -18 -48 -72q0 -123 145 -126q125 0 127 92zM404 437q32 -40 33 -100q-5 -157 -190 -161q-69 -3 -69 -30q1 -25 78 -25h76q177 0 177 -143q-2 -146 -241 -146
t-239 146q0 90 107 110q-30 14 -30 56q5 41 51 45q-104 23 -104 148q0 155 201 155q77 0 111 -15h99v-40h-60z" />
    <glyph glyph-name="h" unicode="h" horiz-adv-x="581" 
d="M193 90q0 -55 65 -57v-33h-227v33q59 2 59 57v547q-3 45 -77 50v38q84 0 180 12v-320q66 75 175 75q135 0 135 -161v-241q0 -55 65 -57v-33h-223v33q56 2 56 57v237q0 102 -80 102q-68 0 -128 -77v-262z" />
    <glyph glyph-name="i" unicode="i" horiz-adv-x="306" 
d="M216 679q0 -26 -20 -46t-51 -20t-51 20t-20 46t20 46t51 20t51 -20t20 -46zM112 388q-5 48 -78 49v40l92 2q41 3 89 9v-398q0 -56 64 -57v-33h-227v33q60 2 60 57v298z" />
    <glyph glyph-name="j" unicode="j" horiz-adv-x="229" 
d="M189 679q0 -26 -20 -46t-51 -20t-51 20t-20 46t20 46t51 20t51 -20t20 -46zM183 -24q0 -89 -56 -137q-53 -49 -122 -49v41q75 27 75 143v415q-5 47 -74 48v40q21 0 46 1l43 1q43 3 88 9v-512z" />
    <glyph glyph-name="k" unicode="k" horiz-adv-x="526" 
d="M184 101q0 -67 64 -68v-33h-227v33q60 2 60 57v547q-4 45 -78 50v38q84 0 181 12v-531l105 170q13 22 13 38q0 29 -45 29v34h191v-35q-39 0 -95 -72l-52 -72l133 -198q43 -65 104 -67v-33h-221v33q25 1 25 28q0 12 -4 24l-87 139z" />
    <glyph glyph-name="l" unicode="l" horiz-adv-x="273" 
d="M83 637q-3 45 -77 50v38q84 0 181 12v-647q0 -56 64 -57v-33h-227v33q59 2 59 57v547z" />
    <glyph glyph-name="m" unicode="m" horiz-adv-x="804" 
d="M200 90q0 -55 65 -57v-33h-227v33q59 2 59 57v298q-5 48 -77 49v40l92 2q41 3 88 9v-71q53 74 142 75q101 -1 115 -75q62 75 152 75q131 0 131 -151v-251q0 -55 59 -57v-33h-216v33q56 2 56 57v237q0 100 -62 100q-48 0 -104 -77v-260q0 -55 60 -57v-33h-216v33
q55 1 55 57v237q0 100 -62 100q-50 0 -110 -77v-260z" />
    <glyph glyph-name="n" unicode="n" horiz-adv-x="578" 
d="M193 90q0 -55 60 -57v-33h-223v33q60 2 60 57v298q-5 48 -78 49v40q22 0 48 1q18 0 44 1q41 3 89 9v-70q66 74 170 74q140 0 140 -161v-241q0 -55 65 -57v-33h-223v33q56 2 56 57v237q0 102 -80 102q-70 0 -128 -76v-263z" />
    <glyph glyph-name="o" unicode="o" horiz-adv-x="569" 
d="M283 444q-133 0 -133 -195q3 -203 137 -203q132 0 132 200q-1 198 -136 198zM285 492q239 0 239 -247t-239 -247q-241 0 -241 247t241 247z" />
    <glyph glyph-name="p" unicode="p" horiz-adv-x="572" 
d="M200 139q20 -88 105 -92q126 2 126 201q-3 198 -129 198q-72 0 -102 -73v-234zM200 -115q0 -55 65 -57v-33h-227v33q59 2 59 57v508q-4 46 -77 49v39q49 0 92 3q41 3 88 9v-47q46 46 129 46q205 0 209 -244q0 -248 -224 -250q-65 0 -114 28v-141z" />
    <glyph glyph-name="q" unicode="q" horiz-adv-x="521" 
d="M357 358q-39 80 -100 84q-123 -2 -125 -195q3 -204 138 -204q63 0 87 59v256zM383 442q15 20 49 35l28 -17v-580q0 -56 61 -57v-33h-223v33q59 2 59 57v152q-43 -34 -104 -34q-219 0 -224 249q5 245 221 245q77 0 133 -50z" />
    <glyph glyph-name="r" unicode="r" horiz-adv-x="406" 
d="M208 376q46 113 117 113t76 -62q0 -61 -54 -66q-48 2 -61 47q-1 6 -6 6q-29 0 -72 -102v-222q0 -55 60 -57v-33h-223v33q59 2 59 57v298q-3 47 -77 49v40l92 2q41 3 89 9v-112z" />
    <glyph glyph-name="s" unicode="s" horiz-adv-x="452" 
d="M377 334h-44q-20 84 -41 102q-27 18 -68 18q-67 -7 -72 -60q0 -53 129 -94q128 -47 132 -140q0 -162 -197 -162q-116 0 -164 48v124h46q19 -73 35 -100q14 -24 79 -32q103 4 105 88q0 39 -34 67q-34 29 -102 45q-133 34 -137 113q0 63 51 102q50 39 136 39q95 0 146 -52
v-106z" />
    <glyph glyph-name="t" unicode="t" horiz-adv-x="302" 
d="M177 437v-327q0 -38 26 -46q36 2 58 22l26 -30q-43 -58 -105 -58q-107 2 -107 103v336h-75v40q95 21 117 135h60v-135h96v-40h-96z" />
    <glyph glyph-name="u" unicode="u" horiz-adv-x="596" 
d="M92 388q-5 48 -77 49v40l92 2q41 3 88 9v-324q0 -102 80 -102q68 0 128 77v249q-5 48 -78 49v40q22 0 48 1q18 0 44 1q41 3 89 9v-389q4 -46 77 -49v-39q-49 0 -91 -3q-19 -1 -44 -4q-5 0 -11 -1q-5 0 -11 -1l-23 -2v74q-66 -75 -160 -76q-76 2 -113 41q-38 41 -38 121
v228z" />
    <glyph glyph-name="v" unicode="v" horiz-adv-x="495" 
d="M-22 477h225v-33q-38 -2 -38 -43l2 -25l84 -223l105 223q8 22 8 36q0 31 -40 32v33h164v-33q-39 -1 -91 -112l-154 -332h-33l-130 332q-52 110 -102 112v33z" />
    <glyph glyph-name="w" unicode="w" horiz-adv-x="688" 
d="M337 294l-116 -294h-33l-134 386q-22 56 -74 58v33h226v-33q-55 -1 -55 -32l85 -242l119 304l153 -306l75 243q0 31 -59 33v33h184v-33q-40 -1 -62 -58l-135 -386h-32z" />
    <glyph glyph-name="x" unicode="x" horiz-adv-x="511" 
d="M285 259l120 -168q40 -56 101 -58v-33h-221v33q35 2 35 19q0 12 -17 38l-57 80l-58 -80q-16 -22 -16 -37q0 -18 38 -20v-33h-215v33q86 2 126 58l90 127l-120 168q-40 56 -96 58v33h221v-33q-39 -1 -39 -34l74 -103l74 104q0 32 -34 33v33h215v-33q-90 -2 -130 -58z" />
    <glyph glyph-name="y" unicode="y" horiz-adv-x="501" 
d="M10 -210q-77 5 -77 71q9 56 67 57q44 0 72 -22q11 -10 26 -10q17 0 35 15q58 43 91 137l-115 294q-52 110 -102 112v33h225v-33q-38 -2 -38 -43q0 -11 3 -25l84 -223l104 223q9 21 9 36q0 30 -41 32v33h164v-33q-39 -2 -90 -112l-123 -270q-123 -272 -291 -272h-3z" />
    <glyph glyph-name="z" unicode="z" horiz-adv-x="437" 
d="M392 435l-234 -394h136q43 10 53 116h46v-157h-349v55l226 381h-121q-44 -17 -54 -116h-45v157h342v-42z" />
    <glyph glyph-name="braceleft" unicode="{" horiz-adv-x="324" 
d="M278 -26q-183 0 -183 139q18 128 18 172q0 55 -21 55q-13 -3 -22 -3q-24 0 -24 19q0 18 23 18q8 0 24 -3q20 0 20 56q0 44 -18 171q0 139 183 139v-25q-62 -5 -62 -109q0 -28 10 -107q0 -118 -107 -141q107 -23 107 -140q-10 -79 -10 -106q0 -105 62 -110v-25z" />
    <glyph glyph-name="bar" unicode="|" horiz-adv-x="245" 
d="M147 0h-49v710h49v-710z" />
    <glyph glyph-name="braceright" unicode="}" horiz-adv-x="324" 
d="M46 -1q62 5 62 110q0 15 -2 39q-2 29 -7 67q0 117 107 140q-107 23 -107 141q5 38 7 68q2 24 2 39q0 104 -62 109v25q183 0 183 -139q-18 -127 -18 -171q0 -56 20 -56q17 3 24 3q23 0 23 -18q0 -19 -23 -19q-8 0 -23 3q-21 0 -21 -55q0 -44 18 -172q0 -139 -183 -139v25z
" />
    <glyph glyph-name="asciitilde" unicode="~" 
d="M268 311q-72 21 -109 21q-39 0 -45 -21q-8 -29 -19 -29q-6 0 -12 6q4 66 58 100q13 8 38 8q49 0 139 -28q70 -22 109 -22q38 0 44 22q7 28 20 28q4 0 11 -5q-4 -68 -57 -100q-13 -8 -37 -8q-50 0 -140 28z" />
    <glyph glyph-name="exclamdown" unicode="&#xa1;" horiz-adv-x="239" 
d="M61 420q0 23 17 40q16 16 41 16t41 -16q17 -17 17 -40q0 -22 -17 -39t-41 -17t-41 17t-17 39zM146 271q47 -361 49 -423q0 -94 -76 -94q-75 0 -75 94q2 62 49 423h53z" />
    <glyph glyph-name="cent" unicode="&#xa2;" horiz-adv-x="476" 
d="M406 149q-58 -76 -175 -76q-34 2 -56 8l-32 -84h-50l39 102q-31 18 -55 52q-54 77 -54 171q3 101 56 177q53 74 168 75q27 0 62 -7l35 95h51l-42 -112q19 -10 40 -31q38 -44 38 -82l-2 -18q-14 -47 -62 -47q-29 0 -49 20q-12 12 -16 24q-4 9 -4 21q0 27 19 46l16 14
q2 2 2 4l-1 4q-6 10 -44 12q-2 1 -5 1h-15q-51 -2 -87 -50q-33 -42 -33 -143q0 -82 20 -125q2 -5 6 -11q0 -1 1 -2l5 -8q7 -9 22 -22q30 -27 66 -27q62 0 100 53q13 18 20 37l47 -18q-15 -33 -31 -53z" />
    <glyph glyph-name="sterling" unicode="&#xa3;" horiz-adv-x="574" 
d="M214 223v-4q0 -102 -86 -165h216q135 0 135 130h46v-184h-476v33h3q77 65 77 128q0 24 -5 62h-71v49h59q0 2 -1 4q0 3 -1 4q-30 110 -30 189q0 249 227 249q208 -8 208 -198q-3 -78 -69 -78q-53 0 -58 51q0 46 30 73q19 16 19 35q0 16 -27 43q-25 28 -89 33
q-148 0 -148 -181q0 -76 30 -195q4 -13 6 -29h171v-49h-166z" />
    <glyph glyph-name="currency" unicode="&#xa4;" horiz-adv-x="431" 
d="M215 348q-39 0 -67 -26q-28 -27 -28 -63t28 -62q28 -27 67 -27t67 27q28 26 28 62t-28 63q-28 26 -67 26zM348 431l34 -34l-59 -59q30 -34 30 -79q0 -44 -30 -79l59 -59l-34 -34l-61 62q-31 -18 -72 -18q-39 0 -71 18l-61 -62l-34 34l58 58q-30 35 -30 80q0 46 30 80
l-58 58l34 34l61 -62q32 18 71 18q41 0 72 -18z" />
    <glyph glyph-name="yen" unicode="&#xa5;" horiz-adv-x="538" 
d="M204 332l-158 287q-33 57 -61 58v33h214v-33q-42 -1 -42 -33q0 -11 7 -24l129 -251l125 251q7 13 7 24q0 32 -42 33v33h170v-33q-40 -1 -70 -58l-145 -287h101v-48h-116v-99h116v-47h-116v-48q0 -56 73 -57v-33h-250v33q74 2 74 57v48h-121v47h121v99h-121v48h105z" />
    <glyph glyph-name="brokenbar" unicode="&#xa6;" horiz-adv-x="245" 
d="M147 432h-49v305h49v-305zM147 -207h-49v305h49v-305z" />
    <glyph glyph-name="section" unicode="&#xa7;" horiz-adv-x="580" 
d="M182 438q-37 -33 -39 -102q5 -83 116 -144l142 -79q34 30 36 98q-5 84 -116 145q-94 52 -139 82zM550 234q-5 -104 -99 -170q33 -41 38 -96q-4 -168 -225 -168q-188 3 -192 118q0 76 65 76q55 -3 58 -56q0 -20 -13 -50q0 -17 22 -27q30 -11 63 -11q105 1 110 98
q-3 50 -175 134q-171 85 -173 232q4 108 113 180q-18 32 -21 69q0 173 225 173q189 -3 192 -133q-10 -61 -65 -61q-55 3 -57 56q2 38 12 50q-3 35 -84 39q-108 -3 -111 -104q3 -51 160 -124t157 -225z" />
    <glyph glyph-name="dieresis" unicode="&#xa8;" horiz-adv-x="345" 
d="M150 588q0 -46 -48 -46q-49 0 -49 46q0 48 49 48q48 0 48 -48zM292 588q0 -46 -48 -46q-49 0 -49 46q0 48 49 48q48 0 48 -48z" />
    <glyph glyph-name="copyright" unicode="&#xa9;" horiz-adv-x="808" 
d="M316 353q0 -81 35 -130q32 -44 78 -44q54 2 81 29q32 32 39 69h44q-12 -60 -53 -104q-44 -44 -125 -44q-88 0 -144 60q-56 61 -56 164t58 164q60 65 139 65q62 0 102 -26v20h51v-159h-49q-9 61 -29 90q-18 26 -60 26q-41 0 -75 -49q-36 -51 -36 -131zM791 355
q0 -160 -116 -271q-115 -111 -276 -111q-160 0 -271 111t-111 271t113 271q114 111 274 111q161 0 273 -111q114 -111 114 -271zM404 696q-142 0 -242 -100q-100 -99 -100 -241q0 -141 100 -241t242 -100q141 0 241 100t100 241q0 142 -100 241q-100 100 -241 100z" />
    <glyph glyph-name="ordfeminine" unicode="&#xaa;" horiz-adv-x="385" 
d="M216 551q-21 -3 -70 -16q-33 -9 -33 -37q2 -60 62 -60q27 0 41 13v100zM174 708q126 -2 130 -98v-155q2 -8 9 -8l12 2l29 -19q-31 -33 -67 -34q-36 0 -53 16q-32 -16 -80 -16q-46 0 -81 21q-37 23 -41 75q0 61 66 79q64 18 121 26v42q-5 29 -28 29q-24 0 -27 -15
q-6 -23 -25 -39q-13 -10 -31 -10q-46 0 -46 42q1 29 41 46q35 16 71 16z" />
    <glyph glyph-name="guillemotleft" unicode="&#xab;" horiz-adv-x="563" 
d="M260 83v-61l-233 237l233 237v-61l-165 -176zM466 83v-61l-233 237l233 237v-61l-165 -176z" />
    <glyph glyph-name="logicalnot" unicode="&#xac;" 
d="M464 235h-390v48h438v-243h-48v195z" />
    <glyph glyph-name="registered" unicode="&#xae;" horiz-adv-x="808" 
d="M354 546v-162h65q68 9 68 81t-68 81h-65zM402 341q-39 0 -48 -3v-97q0 -54 46 -54v-40h-177v40q44 0 44 24v318q0 23 -44 25v39h206q148 0 148 -117q0 -112 -108 -112q89 -11 125 -99q24 -62 57 -62q16 0 32 12q51 38 62 140q0 142 -100 241q-100 100 -241 100
q-142 0 -242 -100q-100 -99 -100 -241q0 -141 100 -241t242 -100q137 0 237 95l1 1l30 -33q-112 -104 -268 -104q-160 0 -274 111q-113 111 -113 271t113 271q114 111 274 111q161 0 273 -111q114 -111 114 -271q-11 -154 -131 -197q-34 -12 -63 -12q-73 0 -109 82
q-50 113 -86 113z" />
    <glyph glyph-name="macron" unicode="&#xaf;" horiz-adv-x="301" 
d="M15 550v48h272v-48h-272z" />
    <glyph glyph-name="degree" unicode="&#xb0;" horiz-adv-x="215" 
d="M108 676q-24 0 -43 -17q-17 -17 -17 -42t17 -42q19 -17 43 -17t41 17q18 17 18 42q0 26 -18 42q-17 17 -41 17zM108 715q40 0 69 -29q28 -28 28 -69q0 -40 -29 -69q-28 -28 -69 -28q-42 0 -69 28q-28 28 -28 69q0 42 28 70t70 28z" />
    <glyph glyph-name="plusminus" unicode="&#xb1;" 
d="M269 283v195h47v-195h196v-48h-196v-195h-47v195h-195v48h195zM511 0v-48h-438v48h438z" />
    <glyph glyph-name="uni00B2" unicode="&#xb2;" horiz-adv-x="439" 
d="M362 335v-74h-287v39q0 77 102 119q89 36 89 112q0 54 -64 54q-38 0 -43 -15q0 -5 14 -17q14 -11 14 -32q-6 -36 -48 -37q-55 0 -57 53q2 33 23 53q38 38 113 38q145 0 147 -113q0 -96 -120 -125q-103 -25 -103 -55h220z" />
    <glyph glyph-name="uni00B3" unicode="&#xb3;" horiz-adv-x="439" 
d="M246 625q0 22 -12 35q-18 22 -47 22q-27 0 -30 -9q0 -1 8 -6q25 -13 25 -33q0 -36 -45 -39q-50 3 -51 49q0 25 15 43q36 36 100 36q63 0 104 -35q34 -28 34 -71q0 -70 -52 -88q81 -16 81 -130q0 -46 -34 -83q-49 -57 -132 -57q-93 5 -127 65q-21 38 -21 64q3 56 58 56
q50 0 50 -43q0 -27 -23 -47q-9 -7 -9 -14q7 -34 64 -36q42 0 67 28q17 20 17 58q0 108 -130 109v42q90 30 90 84z" />
    <glyph glyph-name="acute" unicode="&#xb4;" horiz-adv-x="244" 
d="M51 524q27 100 44 125l2 3q18 21 42 21q18 0 34 -12q22 -16 22 -43q0 -18 -11 -32q-19 -21 -111 -77z" />
    <glyph glyph-name="mu" unicode="&#xb5;" horiz-adv-x="575" 
d="M385 388q-5 48 -78 49v40l92 2q41 3 89 9v-399q0 -31 18 -31q15 0 46 23v-34q-45 -48 -105 -48q-50 0 -60 58q-68 -74 -162 -74q-23 0 -48 5v-108q0 -55 65 -57v-33h-227v33q59 2 59 57v508q-5 48 -77 49v40l92 2q41 3 88 9v-355q6 -87 80 -87q68 0 128 78v264z" />
    <glyph glyph-name="paragraph" unicode="&#xb6;" horiz-adv-x="542" 
d="M219 -210v33q68 1 73 51v442q-243 2 -243 197q0 193 234 197h239v-50q-83 0 -83 -56v-729q1 -50 73 -52v-33h-123v870h-47v-870h-123z" />
    <glyph glyph-name="periodcentered" unicode="&#xb7;" horiz-adv-x="248" 
d="M144 355q0 -18 -14 -34q-14 -13 -36 -13q-21 0 -35 13q-13 14 -13 34t13 33q15 15 35 15q21 0 36 -15q14 -14 14 -33z" />
    <glyph glyph-name="periodcentered" unicode="&#x2219;" horiz-adv-x="248" 
d="M144 355q0 -18 -14 -34q-14 -13 -36 -13q-21 0 -35 13q-13 14 -13 34t13 33q15 15 35 15q21 0 36 -15q14 -14 14 -33z" />
    <glyph glyph-name="cedilla" unicode="&#xb8;" horiz-adv-x="297" 
d="M70 -141q19 -16 53 -16q60 0 60 43q0 22 -24 31q-15 7 -56 7l23 81h45l-12 -44q89 0 89 -75q0 -80 -107 -80q-53 0 -92 15z" />
    <glyph glyph-name="uni00B9" unicode="&#xb9;" horiz-adv-x="439" 
d="M176 481h-89v40q97 8 134 84h58v-279q0 -22 40 -23l34 1v-43h-251v43l37 -1q37 1 37 23v155z" />
    <glyph glyph-name="ordmasculine" unicode="&#xba;" horiz-adv-x="400" 
d="M199 662q-81 0 -81 -111v-4q2 -111 83 -111t81 111v3q-1 112 -83 112zM200 707q168 0 168 -158t-168 -158t-168 158t168 158z" />
    <glyph glyph-name="guillemotright" unicode="&#xbb;" horiz-adv-x="563" 
d="M263 259l-165 176v61l233 -237l-233 -237v61zM469 259l-165 176v61l233 -237l-233 -237v61z" />
    <glyph glyph-name="onequarter" unicode="&#xbc;" horiz-adv-x="977" 
d="M176 583h-89v40q97 8 134 84h58v-279q0 -22 40 -23h34v-43h-251v43l37 -1q37 1 37 24v155zM271 0l427 709h50l-428 -709h-49zM808 416h63v-263h43v-60h-43v-93h-86v93h-184v53zM683 153h102v139z" />
    <glyph glyph-name="onehalf" unicode="&#xbd;" horiz-adv-x="977" 
d="M176 583h-89v40q97 8 134 84h58v-279q0 -22 40 -23h34v-43h-251v43l37 -1q37 1 37 24v155zM256 0l427 709h50l-427 -709h-50zM900 74v-74h-287v39q0 77 102 119q89 36 89 113q0 54 -64 54q-38 0 -43 -15q0 -6 14 -18q14 -11 14 -32q-6 -34 -48 -37q-55 0 -57 53
q2 34 23 54q37 37 113 37q145 0 147 -113q0 -96 -120 -125q-103 -25 -103 -55h220z" />
    <glyph glyph-name="threequarters" unicode="&#xbe;" horiz-adv-x="977" 
d="M246 608q0 22 -12 35q-18 23 -47 23q-27 0 -30 -9q0 -1 8 -6q25 -13 25 -34q0 -34 -45 -39q-50 5 -51 49q0 27 15 43q36 37 100 37t104 -36q34 -28 34 -70q0 -70 -52 -89q81 -15 81 -129q0 -47 -34 -84q-50 -56 -132 -56q-93 3 -127 64q-21 38 -21 65q3 56 58 56
q50 0 50 -43q0 -28 -23 -48q-9 -7 -9 -13q7 -34 64 -37q42 0 67 28q17 20 17 58q0 108 -130 109v42q90 30 90 84zM300 0l427 709h50l-427 -709h-50zM808 416h63v-263h43v-60h-43v-93h-86v93h-184v53zM683 153h102v139z" />
    <glyph glyph-name="questiondown" unicode="&#xbf;" horiz-adv-x="428" 
d="M163 420q0 24 16 40t42 16q25 0 41 -16q17 -17 17 -40q0 -22 -17 -39t-41 -17q-25 0 -42 17q-16 16 -16 39zM233 273q-5 -105 -64 -190q-62 -88 -64 -172q0 -124 115 -124q53 2 75 31q14 19 14 36q0 12 -6 22q-24 23 -24 58q3 41 45 41q48 0 56 -62q0 -70 -48 -114
q-50 -45 -138 -45q-169 1 -169 170q2 110 87 197q76 78 87 152h34z" />
    <glyph glyph-name="Agrave" unicode="&#xc0;" horiz-adv-x="627" 
d="M190 276h207l-103 310zM169 223l-35 -95q-6 -21 -6 -37q0 -56 69 -58v-33h-207v33q31 1 64 80l226 597h65l228 -597q33 -79 64 -80v-33h-256v33q74 0 74 58q0 15 -6 37l-31 95h-249zM340 742q-92 56 -111 77q-11 14 -11 32q0 27 22 43q15 12 34 12q24 0 42 -21l2 -3
q17 -23 44 -125z" />
    <glyph glyph-name="Aacute" unicode="&#xc1;" horiz-adv-x="627" 
d="M190 276h207l-103 310zM169 223l-35 -95q-6 -21 -6 -37q0 -56 69 -58v-33h-207v33q31 1 64 80l226 597h65l228 -597q33 -79 64 -80v-33h-256v33q74 0 74 58q0 15 -6 37l-31 95h-249zM266 757q27 100 44 125l2 3q18 21 42 21q18 0 34 -12q22 -16 22 -43q0 -18 -11 -32
q-19 -21 -111 -77z" />
    <glyph glyph-name="Acircumflex" unicode="&#xc2;" horiz-adv-x="627" 
d="M190 276h207l-103 310zM169 223l-35 -95q-6 -21 -6 -37q0 -56 69 -58v-33h-207v33q31 1 64 80l226 597h65l228 -597q33 -79 64 -80v-33h-256v33q74 0 74 58q0 15 -6 37l-31 95h-249zM440 783q1 -2 1 -6q0 -12 -17 -12q-6 0 -10 1l-100 57l-101 -57q-2 -1 -5 -1h-5
q-17 0 -17 12q0 4 1 6l127 125z" />
    <glyph glyph-name="Atilde" unicode="&#xc3;" horiz-adv-x="627" 
d="M190 276h207l-103 310zM169 223l-35 -95q-6 -21 -6 -37q0 -56 69 -58v-33h-207v33q31 1 64 80l226 597h65l228 -597q33 -79 64 -80v-33h-256v33q74 0 74 58q0 15 -6 37l-31 95h-249zM256 819q-26 0 -30 -19q-7 -25 -18 -25q-4 0 -9 5q5 63 50 91q11 7 35 7q19 0 48 -29
t40 -29q25 0 29 19q7 25 18 25q5 0 10 -5q-5 -63 -51 -91q-10 -7 -33 -7q-20 0 -49 29t-40 29z" />
    <glyph glyph-name="Adieresis" unicode="&#xc4;" horiz-adv-x="627" 
d="M190 276h207l-103 310zM169 223l-35 -95q-6 -21 -6 -37q0 -56 69 -58v-33h-207v33q31 1 64 80l226 597h65l228 -597q33 -79 64 -80v-33h-256v33q74 0 74 58q0 15 -6 37l-31 95h-249zM291 821q0 -46 -48 -46q-49 0 -49 46q0 48 49 48q48 0 48 -48zM433 821q0 -46 -48 -46
q-49 0 -49 46q0 48 49 48q48 0 48 -48z" />
    <glyph glyph-name="Aring" unicode="&#xc5;" horiz-adv-x="627" 
d="M190 276h207l-103 310zM169 223l-35 -95q-6 -21 -6 -37q0 -56 69 -58v-33h-207v33q31 1 64 80l226 597h65l228 -597q33 -79 64 -80v-33h-256v33q74 0 74 58q0 15 -6 37l-31 95h-249zM265 817q0 -48 48 -48q49 0 49 48q0 20 -14 34q-15 15 -35 15t-34 -15q-14 -14 -14 -34
zM227 817q0 37 25 62t61 25q37 0 62 -25q26 -26 26 -62t-26 -62q-25 -24 -62 -24q-35 0 -61 24q-25 25 -25 62z" />
    <glyph glyph-name="AE" unicode="&#xc6;" horiz-adv-x="853" 
d="M275 697v13h517v-188h-46q0 134 -139 134h-155v-262h163q55 0 56 54h39v-157h-39q-1 49 -56 49h-163v-286h191q135 0 135 134h46v-188h-549v33q74 2 74 57v133h-180l-35 -95q-6 -21 -6 -37q0 -56 69 -58v-33h-207v33q31 1 64 80zM349 276v380h-18l-141 -380h159z" />
    <glyph glyph-name="Ccedilla" unicode="&#xc7;" horiz-adv-x="657" 
d="M317 0q-107 14 -179 90q-89 98 -89 264q0 168 93 265q93 100 214 100q98 0 143 -30q18 -12 29 -12q19 0 19 33h44v-233h-43q-12 89 -48 142q-36 52 -119 52q-82 0 -144 -90q-61 -88 -61 -227q0 -138 59 -223q59 -83 150 -83q96 1 152 56q56 56 66 108h30
q-15 -79 -81 -147q-64 -66 -190 -68l-10 -36q88 0 88 -75q0 -80 -107 -80q-51 0 -92 15l21 38q20 -16 53 -16q60 0 60 43q0 22 -23 31q-17 7 -57 7z" />
    <glyph glyph-name="Egrave" unicode="&#xc8;" horiz-adv-x="607" 
d="M201 340v-245q0 -41 47 -41h144q135 0 135 134h46v-188h-549v33q74 2 74 57v530q0 55 -74 57v33h517v-188h-46q0 134 -139 134h-155v-262h163q55 0 56 54h39v-157h-39q-1 49 -56 49h-163zM325 742q-92 56 -111 77q-11 14 -11 32q0 27 22 43q15 12 34 12q24 0 42 -21l2 -3
q17 -23 44 -125z" />
    <glyph glyph-name="Eacute" unicode="&#xc9;" horiz-adv-x="607" 
d="M201 340v-245q0 -41 47 -41h144q135 0 135 134h46v-188h-549v33q74 2 74 57v530q0 55 -74 57v33h517v-188h-46q0 134 -139 134h-155v-262h163q55 0 56 54h39v-157h-39q-1 49 -56 49h-163zM251 757q27 100 44 125l2 3q18 21 42 21q18 0 34 -12q22 -16 22 -43
q0 -18 -11 -32q-19 -21 -111 -77z" />
    <glyph glyph-name="Ecircumflex" unicode="&#xca;" horiz-adv-x="607" 
d="M201 340v-245q0 -41 47 -41h144q135 0 135 134h46v-188h-549v33q74 2 74 57v530q0 55 -74 57v33h517v-188h-46q0 134 -139 134h-155v-262h163q55 0 56 54h39v-157h-39q-1 49 -56 49h-163zM425 783q1 -2 1 -6q0 -12 -17 -12q-6 0 -10 1l-100 57l-101 -57q-2 -1 -5 -1h-5
q-17 0 -17 12q0 4 1 6l127 125z" />
    <glyph glyph-name="Edieresis" unicode="&#xcb;" horiz-adv-x="607" 
d="M201 340v-245q0 -41 47 -41h144q135 0 135 134h46v-188h-549v33q74 2 74 57v530q0 55 -74 57v33h517v-188h-46q0 134 -139 134h-155v-262h163q55 0 56 54h39v-157h-39q-1 49 -56 49h-163zM276 821q0 -46 -48 -46q-49 0 -49 46q0 48 49 48q48 0 48 -48zM418 821
q0 -46 -48 -46q-49 0 -49 46q0 48 49 48q48 0 48 -48z" />
    <glyph glyph-name="Igrave" unicode="&#xcc;" horiz-adv-x="303" 
d="M201 90q0 -55 77 -57v-33h-254v33q74 2 74 57v530q0 55 -74 57v33h254v-33q-77 -2 -77 -57v-530zM177 742q-92 56 -111 77q-11 14 -11 32q0 27 22 43q15 12 34 12q24 0 42 -21l2 -3q17 -23 44 -125z" />
    <glyph glyph-name="Iacute" unicode="&#xcd;" horiz-adv-x="303" 
d="M201 90q0 -55 77 -57v-33h-254v33q74 2 74 57v530q0 55 -74 57v33h254v-33q-77 -2 -77 -57v-530zM103 757q27 100 44 125l2 3q18 21 42 21q18 0 34 -12q22 -16 22 -43q0 -18 -11 -32q-19 -21 -111 -77z" />
    <glyph glyph-name="Icircumflex" unicode="&#xce;" horiz-adv-x="303" 
d="M201 90q0 -55 77 -57v-33h-254v33q74 2 74 57v530q0 55 -74 57v33h254v-33q-77 -2 -77 -57v-530zM281 783q1 -2 1 -6q0 -12 -17 -12q-6 0 -10 1l-100 57l-101 -57q-2 -1 -5 -1h-5q-17 0 -17 12q0 4 1 6l127 125z" />
    <glyph glyph-name="Idieresis" unicode="&#xcf;" horiz-adv-x="303" 
d="M201 90q0 -55 77 -57v-33h-254v33q74 2 74 57v530q0 55 -74 57v33h254v-33q-77 -2 -77 -57v-530zM132 821q0 -46 -48 -46q-49 0 -49 46q0 48 49 48q48 0 48 -48zM274 821q0 -46 -48 -46q-49 0 -49 46q0 48 49 48q48 0 48 -48z" />
    <glyph glyph-name="Eth" unicode="&#xd0;" horiz-adv-x="678" 
d="M93 380v240q0 56 -73 57v33h265q170 -5 257 -97q87 -93 87 -262q0 -160 -87 -253q-88 -94 -257 -98h-265v33q73 1 73 57v240h-73v50h73zM196 380h199v-50h-199v-281q10 -1 30 -1q23 -1 54 -1q109 1 173 86q65 86 65 215q0 136 -65 228q-63 90 -173 90q-62 0 -84 -2v-284z
" />
    <glyph glyph-name="Ntilde" unicode="&#xd1;" horiz-adv-x="688" 
d="M144 491v-401q0 -55 102 -57v-33h-217v33q49 1 49 57v481q0 105 -49 106v33h92l419 -511v421q0 55 -98 57v33h217v-33q-54 -1 -54 -57v-620h-40zM286 819q-26 0 -30 -19q-7 -25 -18 -25q-4 0 -9 5q5 63 50 91q11 7 35 7q19 0 48 -29t40 -29q25 0 29 19q7 25 18 25
q5 0 10 -5q-5 -63 -51 -91q-10 -7 -33 -7q-20 0 -49 29t-40 29z" />
    <glyph glyph-name="Ograve" unicode="&#xd2;" horiz-adv-x="742" 
d="M695 351q0 -161 -81 -259q-79 -99 -239 -99q-167 0 -248 99q-81 98 -81 259q0 167 80 267q81 99 239 99q169 0 250 -99q80 -100 80 -267zM375 37q96 0 148 82q53 83 53 232q-3 148 -60 232q-58 84 -151 84q-95 0 -147 -82q-53 -83 -53 -234q3 -146 61 -229
q58 -85 149 -85zM397 742q-92 56 -111 77q-11 14 -11 32q0 27 22 43q15 12 34 12q24 0 42 -21l2 -3q17 -23 44 -125z" />
    <glyph glyph-name="Oacute" unicode="&#xd3;" horiz-adv-x="742" 
d="M695 351q0 -161 -81 -259q-79 -99 -239 -99q-167 0 -248 99q-81 98 -81 259q0 167 80 267q81 99 239 99q169 0 250 -99q80 -100 80 -267zM375 37q96 0 148 82q53 83 53 232q-3 148 -60 232q-58 84 -151 84q-95 0 -147 -82q-53 -83 -53 -234q3 -146 61 -229
q58 -85 149 -85zM323 757q27 100 44 125l2 3q18 21 42 21q18 0 34 -12q22 -16 22 -43q0 -18 -11 -32q-19 -21 -111 -77z" />
    <glyph glyph-name="Ocircumflex" unicode="&#xd4;" horiz-adv-x="742" 
d="M695 351q0 -161 -81 -259q-79 -99 -239 -99q-167 0 -248 99q-81 98 -81 259q0 167 80 267q81 99 239 99q169 0 250 -99q80 -100 80 -267zM375 37q96 0 148 82q53 83 53 232q-3 148 -60 232q-58 84 -151 84q-95 0 -147 -82q-53 -83 -53 -234q3 -146 61 -229
q58 -85 149 -85zM497 783q1 -2 1 -6q0 -12 -17 -12q-6 0 -10 1l-100 57l-101 -57q-2 -1 -5 -1h-5q-17 0 -17 12q0 4 1 6l127 125z" />
    <glyph glyph-name="Otilde" unicode="&#xd5;" horiz-adv-x="742" 
d="M695 351q0 -161 -81 -259q-79 -99 -239 -99q-167 0 -248 99q-81 98 -81 259q0 167 80 267q81 99 239 99q169 0 250 -99q80 -100 80 -267zM375 37q96 0 148 82q53 83 53 232q-3 148 -60 232q-58 84 -151 84q-95 0 -147 -82q-53 -83 -53 -234q3 -146 61 -229
q58 -85 149 -85zM313 819q-26 0 -30 -19q-7 -25 -18 -25q-4 0 -9 5q5 63 50 91q11 7 35 7q19 0 48 -29t40 -29q25 0 29 19q7 25 18 25q5 0 10 -5q-5 -63 -51 -91q-10 -7 -33 -7q-20 0 -49 29t-40 29z" />
    <glyph glyph-name="Odieresis" unicode="&#xd6;" horiz-adv-x="742" 
d="M695 351q0 -161 -81 -259q-79 -99 -239 -99q-167 0 -248 99q-81 98 -81 259q0 167 80 267q81 99 239 99q169 0 250 -99q80 -100 80 -267zM375 37q96 0 148 82q53 83 53 232q-3 148 -60 232q-58 84 -151 84q-95 0 -147 -82q-53 -83 -53 -234q3 -146 61 -229
q58 -85 149 -85zM348 821q0 -46 -48 -46q-49 0 -49 46q0 48 49 48q48 0 48 -48zM490 821q0 -46 -48 -46q-49 0 -49 46q0 48 49 48q48 0 48 -48z" />
    <glyph glyph-name="multiply" unicode="&#xd7;" 
d="M259 259l-138 138l34 34l137 -139l139 139l33 -34l-138 -138l138 -138l-33 -34l-139 139l-137 -139l-34 34z" />
    <glyph glyph-name="Oslash" unicode="&#xd8;" horiz-adv-x="742" 
d="M277 69q43 -31 100 -31q94 0 146 82q53 83 53 232q-1 148 -60 232q-10 14 -16 20zM464 638q-43 30 -99 30q-94 0 -146 -82q-53 -83 -53 -234q1 -145 60 -229q3 -3 4 -5l4 -5q4 -6 7 -10zM533 682q46 -23 82 -65q80 -100 80 -268q0 -160 -81 -259q-80 -98 -243 -98
q-68 0 -119 16l-21 -51h-48l-2 1l28 67q-46 23 -82 65q-81 99 -81 259q0 168 80 268q81 98 245 98q68 0 119 -16l21 51h50z" />
    <glyph glyph-name="Ugrave" unicode="&#xd9;" horiz-adv-x="701" 
d="M82 619q0 56 -74 58v33h254v-33q-77 -2 -77 -107v-306q0 -205 187 -205q178 0 178 202v309q0 105 -74 107v33h217v-33q-78 -1 -78 -58v-369q0 -111 -66 -185q-66 -72 -204 -72q-139 0 -201 72q-62 74 -62 180v374zM377 742q-92 56 -111 77q-11 14 -11 32q0 27 22 43
q15 12 34 12q24 0 42 -21l2 -3q17 -23 44 -125z" />
    <glyph glyph-name="Uacute" unicode="&#xda;" horiz-adv-x="701" 
d="M82 619q0 56 -74 58v33h254v-33q-77 -2 -77 -107v-306q0 -205 187 -205q178 0 178 202v309q0 105 -74 107v33h217v-33q-78 -1 -78 -58v-369q0 -111 -66 -185q-66 -72 -204 -72q-139 0 -201 72q-62 74 -62 180v374zM302 757q27 100 44 125l2 3q18 21 42 21q18 0 34 -12
q22 -16 22 -43q0 -18 -11 -32q-19 -21 -111 -77z" />
    <glyph glyph-name="Ucircumflex" unicode="&#xdb;" horiz-adv-x="701" 
d="M82 619q0 56 -74 58v33h254v-33q-77 -2 -77 -107v-306q0 -205 187 -205q178 0 178 202v309q0 105 -74 107v33h217v-33q-78 -1 -78 -58v-369q0 -111 -66 -185q-66 -72 -204 -72q-139 0 -201 72q-62 74 -62 180v374zM477 783q1 -2 1 -6q0 -12 -17 -12q-6 0 -10 1l-100 57
l-101 -57q-2 -1 -5 -1h-5q-17 0 -17 12q0 4 1 6l127 125z" />
    <glyph glyph-name="Udieresis" unicode="&#xdc;" horiz-adv-x="701" 
d="M82 619q0 56 -74 58v33h254v-33q-77 -2 -77 -107v-306q0 -205 187 -205q178 0 178 202v309q0 105 -74 107v33h217v-33q-78 -1 -78 -58v-369q0 -111 -66 -185q-66 -72 -204 -72q-139 0 -201 72q-62 74 -62 180v374zM328 821q0 -46 -48 -46q-49 0 -49 46q0 48 49 48
q48 0 48 -48zM470 821q0 -46 -48 -46q-49 0 -49 46q0 48 49 48q48 0 48 -48z" />
    <glyph glyph-name="Yacute" unicode="&#xdd;" horiz-adv-x="538" 
d="M323 301v-211q0 -56 73 -57v-33h-250v33q74 2 74 57v213l-174 316q-33 57 -61 58v33h214v-33q-42 -1 -42 -33q0 -11 7 -24l129 -251l125 251q7 13 7 24q0 32 -42 33v33h170v-33q-40 -1 -70 -58zM221 757q27 100 44 125l2 3q18 21 42 21q18 0 34 -12q22 -16 22 -43
q0 -18 -11 -32q-19 -21 -111 -77z" />
    <glyph glyph-name="Thorn" unicode="&#xde;" horiz-adv-x="578" 
d="M191 90q0 -55 78 -57v-33h-254v33q73 1 73 57v530q0 56 -73 57v33h254v-33q-78 -1 -78 -57v-71q349 -1 349 -187q-1 -191 -349 -192v-80zM191 212q231 6 231 150q0 139 -231 145v-295z" />
    <glyph glyph-name="germandbls" unicode="&#xdf;" horiz-adv-x="554" 
d="M288 32q38 0 69 18q50 35 50 117q-1 81 -72 132q-70 51 -70 106q0 44 52 87t52 99q0 104 -91 104q-85 -1 -85 -114v-581h-163v35q60 0 60 57v335h-66v51h66v70q0 179 173 188h27q185 0 186 -132q0 -49 -56 -111t-56 -98q0 -39 88 -96q68 -44 68 -126q-1 -174 -193 -174
q-49 0 -92 22l7 18q21 -7 46 -7z" />
    <glyph glyph-name="agrave" unicode="&#xe0;" horiz-adv-x="511" 
d="M328 279q-30 -27 -108 -49t-78 -99q4 -88 109 -88q45 0 77 29v207zM250 492q181 -1 185 -149v-269q0 -22 16 -22q7 0 28 8l27 -20q-34 -40 -84 -42q-47 0 -77 31q-58 -31 -151 -31q-148 13 -150 128q0 127 126 146q125 21 162 62v57q-7 61 -56 61q-48 0 -56 -35t-34 -58
q-18 -15 -39 -15q-56 2 -56 57q1 43 55 67q53 24 104 24zM301 509q-92 56 -111 77q-11 14 -11 32q0 27 22 43q15 12 34 12q24 0 42 -21l2 -3q17 -23 44 -125z" />
    <glyph glyph-name="aacute" unicode="&#xe1;" horiz-adv-x="511" 
d="M328 279q-30 -27 -108 -49t-78 -99q4 -88 109 -88q45 0 77 29v207zM250 492q181 -1 185 -149v-269q0 -22 16 -22q7 0 28 8l27 -20q-34 -40 -84 -42q-47 0 -77 31q-58 -31 -151 -31q-148 13 -150 128q0 127 126 146q125 21 162 62v57q-7 61 -56 61q-48 0 -56 -35t-34 -58
q-18 -15 -39 -15q-56 2 -56 57q1 43 55 67q53 24 104 24zM227 524q27 100 44 125l2 3q18 21 42 21q18 0 34 -12q22 -16 22 -43q0 -18 -11 -32q-19 -21 -111 -77z" />
    <glyph glyph-name="acircumflex" unicode="&#xe2;" horiz-adv-x="511" 
d="M328 279q-30 -27 -108 -49t-78 -99q4 -88 109 -88q45 0 77 29v207zM250 492q181 -1 185 -149v-269q0 -22 16 -22q7 0 28 8l27 -20q-34 -40 -84 -42q-47 0 -77 31q-58 -31 -151 -31q-148 13 -150 128q0 127 126 146q125 21 162 62v57q-7 61 -56 61q-48 0 -56 -35t-34 -58
q-18 -15 -39 -15q-56 2 -56 57q1 43 55 67q53 24 104 24zM401 550q1 -2 1 -6q0 -12 -17 -12q-6 0 -10 1l-100 57l-101 -57q-2 -1 -5 -1h-5q-17 0 -17 12q0 4 1 6l127 125z" />
    <glyph glyph-name="atilde" unicode="&#xe3;" horiz-adv-x="511" 
d="M328 279q-30 -27 -108 -49t-78 -99q4 -88 109 -88q45 0 77 29v207zM250 492q181 -1 185 -149v-269q0 -22 16 -22q7 0 28 8l27 -20q-34 -40 -84 -42q-47 0 -77 31q-58 -31 -151 -31q-148 13 -150 128q0 127 126 146q125 21 162 62v57q-7 61 -56 61q-48 0 -56 -35t-34 -58
q-18 -15 -39 -15q-56 2 -56 57q1 43 55 67q53 24 104 24zM218 586q-26 0 -30 -19q-7 -25 -18 -25q-4 0 -9 5q5 63 50 91q11 7 35 7q19 0 48 -29t40 -29q25 0 29 19q7 25 18 25q5 0 10 -5q-5 -63 -51 -91q-10 -7 -33 -7q-20 0 -49 29t-40 29z" />
    <glyph glyph-name="adieresis" unicode="&#xe4;" horiz-adv-x="511" 
d="M328 279q-30 -27 -108 -49t-78 -99q4 -88 109 -88q45 0 77 29v207zM250 492q181 -1 185 -149v-269q0 -22 16 -22q7 0 28 8l27 -20q-34 -40 -84 -42q-47 0 -77 31q-58 -31 -151 -31q-148 13 -150 128q0 127 126 146q125 21 162 62v57q-7 61 -56 61q-48 0 -56 -35t-34 -58
q-18 -15 -39 -15q-56 2 -56 57q1 43 55 67q53 24 104 24zM253 588q0 -46 -48 -46q-49 0 -49 46q0 48 49 48q48 0 48 -48zM395 588q0 -46 -48 -46q-49 0 -49 46q0 48 49 48q48 0 48 -48z" />
    <glyph glyph-name="aring" unicode="&#xe5;" horiz-adv-x="511" 
d="M328 279q-30 -27 -108 -49t-78 -99q4 -88 109 -88q45 0 77 29v207zM250 492q181 -1 185 -149v-269q0 -22 16 -22q7 0 28 8l27 -20q-34 -40 -84 -42q-47 0 -77 31q-58 -31 -151 -31q-148 13 -150 128q0 127 126 146q125 21 162 62v57q-7 61 -56 61q-48 0 -56 -35t-34 -58
q-18 -15 -39 -15q-56 2 -56 57q1 43 55 67q53 24 104 24zM226 584q0 -48 48 -48q49 0 49 48q0 20 -14 34q-15 15 -35 15t-34 -15q-14 -14 -14 -34zM188 584q0 37 25 62t61 25q37 0 62 -25q26 -26 26 -62t-26 -62q-25 -24 -62 -24q-35 0 -61 24q-25 25 -25 62z" />
    <glyph glyph-name="ae" unicode="&#xe6;" horiz-adv-x="787" 
d="M651 311q-4 124 -86 126q-85 0 -106 -126h192zM389 70q-76 -72 -192 -72q-149 14 -151 128q0 127 126 146q127 21 162 62v57q-7 61 -56 61q-47 0 -55 -35t-35 -58q-16 -15 -38 -15q-56 2 -56 57q1 43 54 67t104 24q107 -2 151 -53q56 54 150 54q92 0 148 -62
q55 -62 55 -171h-309q0 -102 35 -148q43 -55 110 -57q48 0 86 44q22 23 34 51l29 -21q-16 -37 -43 -67q-52 -63 -145 -63q-109 2 -164 71zM365 107q-35 65 -35 146q0 16 1 24v2q-30 -27 -108 -49t-78 -99q4 -88 84 -88q69 0 136 64z" />
    <glyph glyph-name="ccedilla" unicode="&#xe7;" horiz-adv-x="486" 
d="M224 1q-179 23 -182 249q5 242 239 243q72 -2 115 -31q47 -35 50 -89q0 -51 -52 -54q-59 5 -59 62q0 6 3 22q1 3 1 7v7q0 34 -47 34q-133 -1 -136 -200q2 -193 137 -195q87 0 132 96l28 -19q-50 -131 -184 -134l-11 -38q89 0 89 -75q0 -80 -107 -80q-53 0 -92 15l21 38
q19 -16 53 -16q60 0 60 43q0 22 -24 31q-15 7 -56 7z" />
    <glyph glyph-name="egrave" unicode="&#xe8;" horiz-adv-x="487" 
d="M356 305q-4 138 -90 140q-85 0 -111 -140h201zM258 -2q-212 4 -223 253q11 240 223 241q203 0 203 -237h-309q2 -201 130 -201q93 0 135 94l29 -20q-46 -125 -188 -130zM275 509q-92 56 -111 77q-11 14 -11 32q0 27 22 43q15 12 34 12q24 0 42 -21l2 -3q17 -23 44 -125z
" />
    <glyph glyph-name="eacute" unicode="&#xe9;" horiz-adv-x="487" 
d="M356 305q-4 138 -90 140q-85 0 -111 -140h201zM258 -2q-212 4 -223 253q11 240 223 241q203 0 203 -237h-309q2 -201 130 -201q93 0 135 94l29 -20q-46 -125 -188 -130zM200 524q27 100 44 125l2 3q18 21 42 21q18 0 34 -12q22 -16 22 -43q0 -18 -11 -32
q-19 -21 -111 -77z" />
    <glyph glyph-name="ecircumflex" unicode="&#xea;" horiz-adv-x="487" 
d="M356 305q-4 138 -90 140q-85 0 -111 -140h201zM258 -2q-212 4 -223 253q11 240 223 241q203 0 203 -237h-309q2 -201 130 -201q93 0 135 94l29 -20q-46 -125 -188 -130zM374 550q1 -2 1 -6q0 -12 -17 -12q-6 0 -10 1l-100 57l-101 -57q-2 -1 -5 -1h-5q-17 0 -17 12
q0 4 1 6l127 125z" />
    <glyph glyph-name="edieresis" unicode="&#xeb;" horiz-adv-x="487" 
d="M356 305q-4 138 -90 140q-85 0 -111 -140h201zM258 -2q-212 4 -223 253q11 240 223 241q203 0 203 -237h-309q2 -201 130 -201q93 0 135 94l29 -20q-46 -125 -188 -130zM226 588q0 -46 -48 -46q-49 0 -49 46q0 48 49 48q48 0 48 -48zM368 588q0 -46 -48 -46q-49 0 -49 46
q0 48 49 48q48 0 48 -48z" />
    <glyph glyph-name="igrave" unicode="&#xec;" horiz-adv-x="306" 
d="M112 388q-5 48 -78 49v40l92 2q41 3 89 9v-398q0 -56 64 -57v-33h-227v33q60 2 60 57v298zM183 509q-92 56 -111 77q-11 14 -11 32q0 27 22 43q15 12 34 12q24 0 42 -21l2 -3q17 -23 44 -125z" />
    <glyph glyph-name="iacute" unicode="&#xed;" horiz-adv-x="306" 
d="M112 388q-5 48 -78 49v40l92 2q41 3 89 9v-398q0 -56 64 -57v-33h-227v33q60 2 60 57v298zM109 524q27 100 44 125l2 3q18 21 42 21q18 0 34 -12q22 -16 22 -43q0 -18 -11 -32q-19 -21 -111 -77z" />
    <glyph glyph-name="icircumflex" unicode="&#xee;" horiz-adv-x="306" 
d="M112 388q-5 48 -78 49v40l92 2q41 3 89 9v-398q0 -56 64 -57v-33h-227v33q60 2 60 57v298zM286 550q1 -2 1 -6q0 -12 -17 -12q-6 0 -10 1l-100 57l-101 -57q-2 -1 -5 -1h-5q-17 0 -17 12q0 4 1 6l127 125z" />
    <glyph glyph-name="idieresis" unicode="&#xef;" horiz-adv-x="306" 
d="M112 388q-5 48 -78 49v40l92 2q41 3 89 9v-398q0 -56 64 -57v-33h-227v33q60 2 60 57v298zM137 588q0 -46 -48 -46q-49 0 -49 46q0 48 49 48q48 0 48 -48zM279 588q0 -46 -48 -46q-49 0 -49 46q0 48 49 48q48 0 48 -48z" />
    <glyph glyph-name="eth" unicode="&#xf0;" horiz-adv-x="579" 
d="M288 450q-127 0 -127 -200v-7q3 -200 131 -200q126 0 126 200v4q-2 203 -130 203zM421 728l24 -41l-84 -47l21 -22q82 -82 118 -181q35 -99 35 -191q0 -252 -245 -252q-246 0 -246 252t246 252q37 0 68 -6q-18 42 -46 87q-8 14 -16 25l-101 -57l-25 41l97 54
q-43 51 -93 85h57q41 -14 92 -54z" />
    <glyph glyph-name="ntilde" unicode="&#xf1;" horiz-adv-x="578" 
d="M193 90q0 -55 60 -57v-33h-223v33q60 2 60 57v298q-5 48 -78 49v40q22 0 48 1q18 0 44 1q41 3 89 9v-70q66 74 170 74q140 0 140 -161v-241q0 -55 65 -57v-33h-223v33q56 2 56 57v237q0 102 -80 102q-70 0 -128 -76v-263zM232 586q-26 0 -30 -19q-7 -25 -18 -25
q-4 0 -9 5q5 63 50 91q11 7 35 7q19 0 48 -29t40 -29q25 0 29 19q7 25 18 25q5 0 10 -5q-5 -63 -51 -91q-10 -7 -33 -7q-20 0 -49 29t-40 29z" />
    <glyph glyph-name="ograve" unicode="&#xf2;" horiz-adv-x="569" 
d="M283 444q-133 0 -133 -195q3 -203 137 -203q132 0 132 200q-1 198 -136 198zM285 492q239 0 239 -247t-239 -247q-241 0 -241 247t241 247zM311 509q-92 56 -111 77q-11 14 -11 32q0 27 22 43q15 12 34 12q24 0 42 -21l2 -3q17 -23 44 -125z" />
    <glyph glyph-name="oacute" unicode="&#xf3;" horiz-adv-x="569" 
d="M283 444q-133 0 -133 -195q3 -203 137 -203q132 0 132 200q-1 198 -136 198zM285 492q239 0 239 -247t-239 -247q-241 0 -241 247t241 247zM237 524q27 100 44 125l2 3q18 21 42 21q18 0 34 -12q22 -16 22 -43q0 -18 -11 -32q-19 -21 -111 -77z" />
    <glyph glyph-name="ocircumflex" unicode="&#xf4;" horiz-adv-x="569" 
d="M283 444q-133 0 -133 -195q3 -203 137 -203q132 0 132 200q-1 198 -136 198zM285 492q239 0 239 -247t-239 -247q-241 0 -241 247t241 247zM411 550q1 -2 1 -6q0 -12 -17 -12q-6 0 -10 1l-100 57l-101 -57q-2 -1 -5 -1h-5q-17 0 -17 12q0 4 1 6l127 125z" />
    <glyph glyph-name="otilde" unicode="&#xf5;" horiz-adv-x="569" 
d="M283 444q-133 0 -133 -195q3 -203 137 -203q132 0 132 200q-1 198 -136 198zM285 492q239 0 239 -247t-239 -247q-241 0 -241 247t241 247zM227 586q-26 0 -30 -19q-7 -25 -18 -25q-4 0 -9 5q5 63 50 91q11 7 35 7q19 0 48 -29t40 -29q25 0 29 19q7 25 18 25q5 0 10 -5
q-5 -63 -51 -91q-10 -7 -33 -7q-20 0 -49 29t-40 29z" />
    <glyph glyph-name="odieresis" unicode="&#xf6;" horiz-adv-x="569" 
d="M283 444q-133 0 -133 -195q3 -203 137 -203q132 0 132 200q-1 198 -136 198zM285 492q239 0 239 -247t-239 -247q-241 0 -241 247t241 247zM262 588q0 -46 -48 -46q-49 0 -49 46q0 48 49 48q48 0 48 -48zM404 588q0 -46 -48 -46q-49 0 -49 46q0 48 49 48q48 0 48 -48z
" />
    <glyph glyph-name="divide" unicode="&#xf7;" 
d="M351 77q0 -22 -17 -39t-42 -17q-24 0 -41 17q-16 16 -16 39q0 24 16 40t41 16q26 0 42 -16q17 -17 17 -40zM351 445q0 -22 -17 -39t-42 -17q-24 0 -41 17q-16 16 -16 39q0 24 16 40t41 16q26 0 42 -16q17 -17 17 -40zM512 283v-48h-438v48h438z" />
    <glyph glyph-name="oslash" unicode="&#xf8;" horiz-adv-x="569" 
d="M162 17q-118 52 -118 227q0 250 241 250q32 0 55 -4l48 126h50l-52 -137q139 -45 139 -235q0 -250 -240 -250q-42 0 -79 8l-49 -130h-49l-1 1zM226 56q26 -14 61 -14q133 0 133 198v5q-1 128 -57 174zM321 440q-18 5 -38 5q-134 0 -134 -198v-6q2 -103 39 -153z" />
    <glyph glyph-name="ugrave" unicode="&#xf9;" horiz-adv-x="596" 
d="M92 388q-5 48 -77 49v40l92 2q41 3 88 9v-324q0 -102 80 -102q68 0 128 77v249q-5 48 -78 49v40q22 0 48 1q18 0 44 1q41 3 89 9v-389q4 -46 77 -49v-39q-49 0 -91 -3q-19 -1 -44 -4q-5 0 -11 -1q-5 0 -11 -1l-23 -2v74q-66 -75 -160 -76q-76 2 -113 41q-38 41 -38 121
v228zM325 509q-92 56 -111 77q-11 14 -11 32q0 27 22 43q15 12 34 12q24 0 42 -21l2 -3q17 -23 44 -125z" />
    <glyph glyph-name="uacute" unicode="&#xfa;" horiz-adv-x="596" 
d="M92 388q-5 48 -77 49v40l92 2q41 3 88 9v-324q0 -102 80 -102q68 0 128 77v249q-5 48 -78 49v40q22 0 48 1q18 0 44 1q41 3 89 9v-389q4 -46 77 -49v-39q-49 0 -91 -3q-19 -1 -44 -4q-5 0 -11 -1q-5 0 -11 -1l-23 -2v74q-66 -75 -160 -76q-76 2 -113 41q-38 41 -38 121
v228zM251 524q27 100 44 125l2 3q18 21 42 21q18 0 34 -12q22 -16 22 -43q0 -18 -11 -32q-19 -21 -111 -77z" />
    <glyph glyph-name="ucircumflex" unicode="&#xfb;" horiz-adv-x="596" 
d="M92 388q-5 48 -77 49v40l92 2q41 3 88 9v-324q0 -102 80 -102q68 0 128 77v249q-5 48 -78 49v40q22 0 48 1q18 0 44 1q41 3 89 9v-389q4 -46 77 -49v-39q-49 0 -91 -3q-19 -1 -44 -4q-5 0 -11 -1q-5 0 -11 -1l-23 -2v74q-66 -75 -160 -76q-76 2 -113 41q-38 41 -38 121
v228zM425 550q1 -2 1 -6q0 -12 -17 -12q-6 0 -10 1l-100 57l-101 -57q-2 -1 -5 -1h-5q-17 0 -17 12q0 4 1 6l127 125z" />
    <glyph glyph-name="udieresis" unicode="&#xfc;" horiz-adv-x="596" 
d="M92 388q-5 48 -77 49v40l92 2q41 3 88 9v-324q0 -102 80 -102q68 0 128 77v249q-5 48 -78 49v40q22 0 48 1q18 0 44 1q41 3 89 9v-389q4 -46 77 -49v-39q-49 0 -91 -3q-19 -1 -44 -4q-5 0 -11 -1q-5 0 -11 -1l-23 -2v74q-66 -75 -160 -76q-76 2 -113 41q-38 41 -38 121
v228zM276 588q0 -46 -48 -46q-49 0 -49 46q0 48 49 48q48 0 48 -48zM418 588q0 -46 -48 -46q-49 0 -49 46q0 48 49 48q48 0 48 -48z" />
    <glyph glyph-name="yacute" unicode="&#xfd;" horiz-adv-x="501" 
d="M10 -210q-77 5 -77 71q9 56 67 57q44 0 72 -22q11 -10 26 -10q17 0 35 15q58 43 91 137l-115 294q-52 110 -102 112v33h225v-33q-38 -2 -38 -43q0 -11 3 -25l84 -223l104 223q9 21 9 36q0 30 -41 32v33h164v-33q-39 -2 -90 -112l-123 -270q-123 -272 -291 -272h-3z
M177 524q27 100 44 125l2 3q18 21 42 21q18 0 34 -12q22 -16 22 -43q0 -18 -11 -32q-19 -21 -111 -77z" />
    <glyph glyph-name="thorn" unicode="&#xfe;" horiz-adv-x="555" 
d="M190 125q14 -72 98 -76q60 2 94 56q32 53 32 144q0 118 -43 161q-33 43 -96 43q-62 0 -85 -75v-253zM190 467q43 31 122 31q117 0 163 -75q46 -73 46 -174q0 -102 -54 -176q-53 -74 -167 -74q-60 0 -110 18v-137q0 -55 65 -57v-33h-227v33q59 2 59 57v757q-3 45 -77 50
v38q84 0 180 12v-270z" />
    <glyph glyph-name="ydieresis" unicode="&#xff;" horiz-adv-x="501" 
d="M10 -210q-77 5 -77 71q9 56 67 57q44 0 72 -22q11 -10 26 -10q17 0 35 15q58 43 91 137l-115 294q-52 110 -102 112v33h225v-33q-38 -2 -38 -43q0 -11 3 -25l84 -223l104 223q9 21 9 36q0 30 -41 32v33h164v-33q-39 -2 -90 -112l-123 -270q-123 -272 -291 -272h-3z
M202 588q0 -46 -48 -46q-49 0 -49 46q0 48 49 48q48 0 48 -48zM344 588q0 -46 -48 -46q-49 0 -49 46q0 48 49 48q48 0 48 -48z" />
    <glyph glyph-name="Amacron" unicode="&#x100;" horiz-adv-x="627" 
d="M190 276h207l-103 310zM169 223l-35 -95q-6 -21 -6 -37q0 -56 69 -58v-33h-207v33q31 1 64 80l226 597h65l228 -597q33 -79 64 -80v-33h-256v33q74 0 74 58q0 15 -6 37l-31 95h-249zM178 783v48h272v-48h-272z" />
    <glyph glyph-name="amacron" unicode="&#x101;" horiz-adv-x="511" 
d="M328 279q-30 -27 -108 -49t-78 -99q4 -88 109 -88q45 0 77 29v207zM250 492q181 -1 185 -149v-269q0 -22 16 -22q7 0 28 8l27 -20q-34 -40 -84 -42q-47 0 -77 31q-58 -31 -151 -31q-148 13 -150 128q0 127 126 146q125 21 162 62v57q-7 61 -56 61q-48 0 -56 -35t-34 -58
q-18 -15 -39 -15q-56 2 -56 57q1 43 55 67q53 24 104 24zM140 550v48h272v-48h-272z" />
    <glyph glyph-name="Abreve" unicode="&#x102;" horiz-adv-x="627" 
d="M190 276h207l-103 310zM169 223l-35 -95q-6 -21 -6 -37q0 -56 69 -58v-33h-207v33q31 1 64 80l226 597h65l228 -597q33 -79 64 -80v-33h-256v33q74 0 74 58q0 15 -6 37l-31 95h-249zM198 875q3 6 12 6q7 0 11 -4q2 -54 93 -54q93 0 93 54q4 4 11 4q9 0 12 -6
q-1 -115 -116 -115q-116 0 -116 115z" />
    <glyph glyph-name="abreve" unicode="&#x103;" horiz-adv-x="511" 
d="M328 279q-30 -27 -108 -49t-78 -99q4 -88 109 -88q45 0 77 29v207zM250 492q181 -1 185 -149v-269q0 -22 16 -22q7 0 28 8l27 -20q-34 -40 -84 -42q-47 0 -77 31q-58 -31 -151 -31q-148 13 -150 128q0 127 126 146q125 21 162 62v57q-7 61 -56 61q-48 0 -56 -35t-34 -58
q-18 -15 -39 -15q-56 2 -56 57q1 43 55 67q53 24 104 24zM159 642q3 6 12 6q7 0 11 -4q2 -54 93 -54q93 0 93 54q4 4 11 4q9 0 12 -6q-1 -115 -116 -115q-116 0 -116 115z" />
    <glyph glyph-name="Aogonek" unicode="&#x104;" horiz-adv-x="627" 
d="M190 276h207l-103 310zM381 0v33q74 0 74 58q0 15 -6 37l-31 95h-249l-35 -95q-6 -21 -6 -37q0 -56 69 -58v-33h-207v33q31 1 64 80l226 597h65l228 -597q33 -79 64 -80v-33h-47q-73 -64 -73 -113q0 -51 48 -51q39 0 59 32l13 -8q-36 -64 -102 -64q-77 0 -77 61
q0 37 29 77q23 33 79 66h-185z" />
    <glyph glyph-name="aogonek" unicode="&#x105;" horiz-adv-x="514" 
d="M331 279q-30 -27 -108 -49t-78 -99q4 -88 108 -88q46 0 78 29v207zM452 0q-74 -65 -74 -113q0 -51 49 -51q38 0 58 32l14 -8q-37 -64 -103 -64q-77 0 -77 61q0 38 30 77q12 17 34 36q17 14 40 28q-46 0 -76 31q-56 -31 -150 -31q-149 14 -151 128q0 127 126 146
q127 21 162 62v57q-7 61 -56 61q-47 0 -55 -35t-35 -58q-16 -15 -38 -15q-56 2 -56 57q1 43 54 67t104 24q182 -2 185 -149v-269q0 -22 17 -22q7 0 28 8l27 -20q-30 -33 -57 -40z" />
    <glyph glyph-name="Cacute" unicode="&#x106;" horiz-adv-x="657" 
d="M176 351q0 -139 59 -224q59 -83 150 -83q96 1 152 56q56 56 66 108h30q-15 -79 -81 -147q-64 -66 -191 -68q-137 0 -223 93q-89 98 -89 265q0 169 93 266q93 100 229 100q83 0 128 -30q18 -12 29 -12q19 0 19 33h44v-233h-43q-12 89 -48 142q-36 52 -119 52
q-82 0 -144 -90q-61 -88 -61 -228zM293 757q27 100 44 125l2 3q18 21 42 21q18 0 34 -12q22 -16 22 -43q0 -18 -11 -32q-19 -21 -111 -77z" />
    <glyph glyph-name="cacute" unicode="&#x107;" horiz-adv-x="486" 
d="M261 -2q-215 2 -219 251q5 242 239 243q73 -2 115 -32q47 -35 50 -89q0 -50 -52 -54q-59 6 -59 62q0 7 3 23q1 3 1 7v7q0 33 -47 33q-133 -1 -136 -199q2 -193 137 -195q87 0 132 96l28 -20q-49 -133 -192 -133zM199 524q27 100 44 125l2 3q18 21 42 21q18 0 34 -12
q22 -16 22 -43q0 -18 -11 -32q-19 -21 -111 -77z" />
    <glyph glyph-name="Ccircumflex" unicode="&#x108;" horiz-adv-x="657" 
d="M176 351q0 -139 59 -224q59 -83 150 -83q96 1 152 56q56 56 66 108h30q-15 -79 -81 -147q-64 -66 -191 -68q-137 0 -223 93q-89 98 -89 265q0 169 93 266q93 100 229 100q83 0 128 -30q18 -12 29 -12q19 0 19 33h44v-233h-43q-12 89 -48 142q-36 52 -119 52
q-82 0 -144 -90q-61 -88 -61 -228zM467 783q1 -2 1 -6q0 -12 -17 -12q-6 0 -10 1l-100 57l-101 -57q-2 -1 -5 -1h-5q-17 0 -17 12q0 4 1 6l127 125z" />
    <glyph glyph-name="ccircumflex" unicode="&#x109;" horiz-adv-x="486" 
d="M261 -2q-215 2 -219 251q5 242 239 243q73 -2 115 -32q47 -35 50 -89q0 -50 -52 -54q-59 6 -59 62q0 7 3 23q1 3 1 7v7q0 33 -47 33q-133 -1 -136 -199q2 -193 137 -195q87 0 132 96l28 -20q-49 -133 -192 -133zM374 550q1 -2 1 -6q0 -12 -17 -12q-6 0 -10 1l-100 57
l-101 -57q-2 -1 -5 -1h-5q-17 0 -17 12q0 4 1 6l127 125z" />
    <glyph glyph-name="Cdotaccent" unicode="&#x10a;" horiz-adv-x="657" 
d="M176 351q0 -139 59 -224q59 -83 150 -83q96 1 152 56q56 56 66 108h30q-15 -79 -81 -147q-64 -66 -191 -68q-137 0 -223 93q-89 98 -89 265q0 169 93 266q93 100 229 100q83 0 128 -30q18 -12 29 -12q19 0 19 33h44v-233h-43q-12 89 -48 142q-36 52 -119 52
q-82 0 -144 -90q-61 -88 -61 -228zM400 831q0 -56 -58 -56q-59 0 -59 56q0 57 59 57q58 0 58 -57z" />
    <glyph glyph-name="cdotaccent" unicode="&#x10b;" horiz-adv-x="486" 
d="M261 -2q-215 2 -219 251q5 242 239 243q73 -2 115 -32q47 -35 50 -89q0 -50 -52 -54q-59 6 -59 62q0 7 3 23q1 3 1 7v7q0 33 -47 33q-133 -1 -136 -199q2 -193 137 -195q87 0 132 96l28 -20q-49 -133 -192 -133zM306 598q0 -56 -58 -56q-59 0 -59 56q0 57 59 57
q58 0 58 -57z" />
    <glyph glyph-name="Ccaron" unicode="&#x10c;" horiz-adv-x="657" 
d="M176 351q0 -139 59 -224q59 -83 150 -83q96 1 152 56q56 56 66 108h30q-15 -79 -81 -147q-64 -66 -191 -68q-137 0 -223 93q-89 98 -89 265q0 169 93 266q93 100 229 100q83 0 128 -30q18 -12 29 -12q19 0 19 33h44v-233h-43q-12 89 -48 142q-36 52 -119 52
q-82 0 -144 -90q-61 -88 -61 -228zM341 765l-127 125q-1 2 -1 6q0 12 17 12h5q3 0 5 -1l101 -57l100 57q4 1 10 1q17 0 17 -12q0 -4 -1 -6z" />
    <glyph glyph-name="ccaron" unicode="&#x10d;" horiz-adv-x="486" 
d="M261 -2q-215 2 -219 251q5 242 239 243q73 -2 115 -32q47 -35 50 -89q0 -50 -52 -54q-59 6 -59 62q0 7 3 23q1 3 1 7v7q0 33 -47 33q-133 -1 -136 -199q2 -193 137 -195q87 0 132 96l28 -20q-49 -133 -192 -133zM248 532l-127 125q-1 2 -1 6q0 12 17 12h5q3 0 5 -1
l101 -57l100 57q4 1 10 1q17 0 17 -12q0 -4 -1 -6z" />
    <glyph glyph-name="Dcaron" unicode="&#x10e;" horiz-adv-x="678" 
d="M280 47q109 1 173 86q65 86 65 215q0 136 -65 228q-63 90 -173 90h-84v-573q0 -46 67 -46h17zM285 710q170 -5 257 -97q87 -93 87 -262q0 -160 -87 -253q-88 -94 -257 -98h-265v33q73 1 73 57v530q0 56 -73 57v33h265zM325 765l-127 125q-1 2 -1 6q0 12 17 12h5q3 0 5 -1
l101 -57l100 57q4 1 10 1q17 0 17 -12q0 -4 -1 -6z" />
    <glyph glyph-name="dcaron" unicode="&#x10f;" horiz-adv-x="635" 
d="M370 359q-39 80 -100 84q-123 -2 -125 -195q3 -204 138 -204q63 0 87 59v256zM370 41q-39 -42 -123 -42q-206 0 -209 249q3 245 205 245q77 0 127 -56v200q-3 46 -78 49v39q84 0 181 12v-639q5 -45 68 -48v-39q-44 0 -85 -3q-17 -1 -41 -4q-5 0 -11 -1l-23 -2
q-6 -1 -11 -1v41zM566 621q-17 0 -29 13q-16 13 -16 34q0 20 16 35q14 15 36 15q24 0 37 -15q15 -15 15 -35v-3q0 -66 -64 -131l-17 18q17 30 22 69z" />
    <glyph glyph-name="Dcroat" unicode="&#x110;" horiz-adv-x="678" 
d="M93 380v240q0 56 -73 57v33h265q170 -5 257 -97q87 -93 87 -262q0 -160 -87 -253q-88 -94 -257 -98h-265v33q73 1 73 57v240h-73v50h73zM196 380h199v-50h-199v-281q10 -1 30 -1q23 -1 54 -1q109 1 173 86q65 86 65 215q0 136 -65 228q-63 90 -173 90q-62 0 -84 -2v-284z
" />
    <glyph glyph-name="dcroat" unicode="&#x111;" horiz-adv-x="546" 
d="M370 364q-39 80 -100 84q-59 -1 -94 -57q-31 -50 -31 -143q16 -204 138 -204q63 0 87 59v261zM473 564v-466q5 -45 68 -48v-39h-8q-67 0 -163 -11v31q-44 -32 -123 -32q-117 0 -164 74q-45 74 -45 175q0 102 55 175q56 75 150 75q79 0 127 -22v88h-204v50h204v23
q-3 46 -78 49v39q84 0 181 12v-123h68v-50h-68z" />
    <glyph glyph-name="Emacron" unicode="&#x112;" horiz-adv-x="607" 
d="M201 340v-245q0 -41 47 -41h144q135 0 135 134h46v-188h-549v33q74 2 74 57v530q0 55 -74 57v33h517v-188h-46q0 134 -139 134h-155v-262h163q55 0 56 54h39v-157h-39q-1 49 -56 49h-163zM163 783v48h272v-48h-272z" />
    <glyph glyph-name="emacron" unicode="&#x113;" horiz-adv-x="487" 
d="M356 305q-4 138 -90 140q-85 0 -111 -140h201zM258 -2q-212 4 -223 253q11 240 223 241q203 0 203 -237h-309q2 -201 130 -201q93 0 135 94l29 -20q-46 -125 -188 -130zM113 550v48h272v-48h-272z" />
    <glyph glyph-name="Ebreve" unicode="&#x114;" horiz-adv-x="607" 
d="M201 340v-245q0 -41 47 -41h144q135 0 135 134h46v-188h-549v33q74 2 74 57v530q0 55 -74 57v33h517v-188h-46q0 134 -139 134h-155v-262h163q55 0 56 54h39v-157h-39q-1 49 -56 49h-163zM183 875q3 6 12 6q7 0 11 -4q2 -54 93 -54q93 0 93 54q4 4 11 4q9 0 12 -6
q-1 -115 -116 -115q-116 0 -116 115z" />
    <glyph glyph-name="ebreve" unicode="&#x115;" horiz-adv-x="487" 
d="M356 305q-4 138 -90 140q-85 0 -111 -140h201zM258 -2q-212 4 -223 253q11 240 223 241q203 0 203 -237h-309q2 -201 130 -201q93 0 135 94l29 -20q-46 -125 -188 -130zM133 642q3 6 12 6q7 0 11 -4q2 -54 93 -54q93 0 93 54q4 4 11 4q9 0 12 -6q-1 -115 -116 -115
q-116 0 -116 115z" />
    <glyph glyph-name="Edotaccent" unicode="&#x116;" horiz-adv-x="607" 
d="M201 340v-245q0 -41 47 -41h144q135 0 135 134h46v-188h-549v33q74 2 74 57v530q0 55 -74 57v33h517v-188h-46q0 134 -139 134h-155v-262h163q55 0 56 54h39v-157h-39q-1 49 -56 49h-163zM357 831q0 -56 -58 -56q-59 0 -59 56q0 57 59 57q58 0 58 -57z" />
    <glyph glyph-name="edotaccent" unicode="&#x117;" horiz-adv-x="487" 
d="M356 305q-4 138 -90 140q-85 0 -111 -140h201zM258 -2q-212 4 -223 253q11 240 223 241q203 0 203 -237h-309q2 -201 130 -201q93 0 135 94l29 -20q-46 -125 -188 -130zM307 598q0 -56 -58 -56q-59 0 -59 56q0 57 59 57q58 0 58 -57z" />
    <glyph glyph-name="Eogonek" unicode="&#x118;" horiz-adv-x="607" 
d="M24 0v33q74 2 74 57v530q0 55 -74 57v33h517v-188h-46q0 134 -139 134h-155v-262h163q55 0 56 54h39v-157h-39q-1 49 -56 49h-163v-245q0 -41 47 -41h144q135 0 135 134h46v-188h-48q-73 -64 -73 -113q0 -51 49 -51q38 0 58 32l14 -8q-37 -64 -103 -64q-77 0 -77 61
q0 37 29 77q25 34 79 66h-477z" />
    <glyph glyph-name="eogonek" unicode="&#x119;" horiz-adv-x="487" 
d="M356 306q-4 129 -90 131q-85 0 -111 -131h201zM330 11q-33 -10 -72 -12q-212 4 -223 254q11 239 223 240q203 0 203 -236h-309q1 -201 130 -202q93 0 135 95l29 -21q-22 -61 -70 -95h3q-42 -51 -59 -87q-14 -30 -14 -60q0 -51 48 -51q39 0 59 32l13 -8q-36 -64 -102 -64
q-77 0 -77 61q0 77 83 154z" />
    <glyph glyph-name="Ecaron" unicode="&#x11a;" horiz-adv-x="607" 
d="M201 340v-245q0 -41 47 -41h144q135 0 135 134h46v-188h-549v33q74 2 74 57v530q0 55 -74 57v33h517v-188h-46q0 134 -139 134h-155v-262h163q55 0 56 54h39v-157h-39q-1 49 -56 49h-163zM299 765l-127 125q-1 2 -1 6q0 12 17 12h5q3 0 5 -1l101 -57l100 57q4 1 10 1
q17 0 17 -12q0 -4 -1 -6z" />
    <glyph glyph-name="ecaron" unicode="&#x11b;" horiz-adv-x="487" 
d="M356 305q-4 138 -90 140q-85 0 -111 -140h201zM258 -2q-212 4 -223 253q11 240 223 241q203 0 203 -237h-309q2 -201 130 -201q93 0 135 94l29 -20q-46 -125 -188 -130zM248 532l-127 125q-1 2 -1 6q0 12 17 12h5q3 0 5 -1l101 -57l100 57q4 1 10 1q17 0 17 -12
q0 -4 -1 -6z" />
    <glyph glyph-name="Gcircumflex" unicode="&#x11c;" horiz-adv-x="683" 
d="M547 218q0 60 -95 62v34h211v-34q-27 -1 -27 -62v-208l-19 -16q-40 11 -57 42l-8 24q-65 -67 -195 -68q-133 0 -219 93q-89 98 -89 264q0 168 93 265t241 103q97 0 140 -30q20 -14 31 -14q18 0 18 32h43v-233h-43q-12 89 -48 142q-36 52 -130 52q-95 0 -157 -90
q-61 -88 -61 -227q0 -138 59 -223q59 -83 153 -83q93 1 159 67v108zM482 783q1 -2 1 -6q0 -12 -17 -12q-6 0 -10 1l-100 57l-101 -57q-2 -1 -5 -1h-5q-17 0 -17 12q0 4 1 6l127 125z" />
    <glyph glyph-name="gcircumflex" unicode="&#x11d;" horiz-adv-x="521" 
d="M256 453q-91 0 -93 -116q2 -120 89 -120q81 0 82 120q-2 116 -78 116zM397 -35q0 93 -89 95q-83 2 -135 11q-48 -18 -48 -72q0 -123 145 -126q125 0 127 92zM404 427q32 -40 33 -90q-5 -157 -190 -161q-69 -3 -69 -30q1 -25 78 -25h76q177 0 177 -143q-2 -146 -241 -146
t-239 146q0 90 107 110q-30 14 -30 56q5 41 51 45q-104 23 -104 148q0 155 201 155q77 0 111 -15h99v-50h-60zM395 550q1 -2 1 -6q0 -12 -17 -12q-6 0 -10 1l-100 57l-101 -57q-2 -1 -5 -1h-5q-17 0 -17 12q0 4 1 6l127 125z" />
    <glyph glyph-name="Gbreve" unicode="&#x11e;" horiz-adv-x="683" 
d="M547 218q0 60 -95 62v34h211v-34q-27 -1 -27 -62v-208l-19 -16q-40 11 -57 42l-8 24q-65 -67 -195 -68q-133 0 -219 93q-89 98 -89 264q0 168 93 265t241 103q97 0 140 -30q20 -14 31 -14q18 0 18 32h43v-233h-43q-12 89 -48 142q-36 52 -130 52q-95 0 -157 -90
q-61 -88 -61 -227q0 -138 59 -223q59 -83 153 -83q93 1 159 67v108zM240 875q3 6 12 6q7 0 11 -4q2 -54 93 -54q93 0 93 54q4 4 11 4q9 0 12 -6q-1 -115 -116 -115q-116 0 -116 115z" />
    <glyph glyph-name="gbreve" unicode="&#x11f;" horiz-adv-x="521" 
d="M256 453q-91 0 -93 -116q2 -120 89 -120q81 0 82 120q-2 116 -78 116zM397 -35q0 93 -89 95q-83 2 -135 11q-48 -18 -48 -72q0 -123 145 -126q125 0 127 92zM404 427q32 -40 33 -90q-5 -157 -190 -161q-69 -3 -69 -30q1 -25 78 -25h76q177 0 177 -143q-2 -146 -241 -146
t-239 146q0 90 107 110q-30 14 -30 56q5 41 51 45q-104 23 -104 148q0 155 201 155q77 0 111 -15h99v-50h-60zM153 642q3 6 12 6q7 0 11 -4q2 -54 93 -54q93 0 93 54q4 4 11 4q9 0 12 -6q-1 -115 -116 -115q-116 0 -116 115z" />
    <glyph glyph-name="Gdotaccent" unicode="&#x120;" horiz-adv-x="683" 
d="M547 218q0 60 -95 62v34h211v-34q-27 -1 -27 -62v-208l-19 -16q-40 11 -57 42l-8 24q-65 -67 -195 -68q-133 0 -219 93q-89 98 -89 264q0 168 93 265t241 103q97 0 140 -30q20 -14 31 -14q18 0 18 32h43v-233h-43q-12 89 -48 142q-36 52 -130 52q-95 0 -157 -90
q-61 -88 -61 -227q0 -138 59 -223q59 -83 153 -83q93 1 159 67v108zM415 831q0 -56 -58 -56q-59 0 -59 56q0 57 59 57q58 0 58 -57z" />
    <glyph glyph-name="gdotaccent" unicode="&#x121;" horiz-adv-x="521" 
d="M256 453q-91 0 -93 -116q2 -120 89 -120q81 0 82 120q-2 116 -78 116zM397 -35q0 93 -89 95q-83 2 -135 11q-48 -18 -48 -72q0 -123 145 -126q125 0 127 92zM404 427q32 -40 33 -90q-5 -157 -190 -161q-69 -3 -69 -30q1 -25 78 -25h76q177 0 177 -143q-2 -146 -241 -146
t-239 146q0 90 107 110q-30 14 -30 56q5 41 51 45q-104 23 -104 148q0 155 201 155q77 0 111 -15h99v-50h-60zM328 598q0 -56 -58 -56q-59 0 -59 56q0 57 59 57q58 0 58 -57z" />
    <glyph glyph-name="Gcommaaccent" unicode="&#x122;" horiz-adv-x="683" 
d="M547 218q0 60 -95 62v34h211v-34q-27 -1 -27 -62v-208l-19 -16q-40 11 -57 42l-8 24q-65 -67 -195 -68q-133 0 -219 93q-89 98 -89 264q0 168 93 265t241 103q97 0 140 -30q20 -14 31 -14q18 0 18 32h43v-233h-43q-12 89 -48 142q-36 52 -130 52q-95 0 -157 -90
q-61 -88 -61 -227q0 -138 59 -223q59 -83 153 -83q93 1 159 67v108zM349 -147q-17 0 -29 13q-16 13 -16 34t16 36q14 14 36 14q23 0 37 -14q15 -15 15 -36v-3q0 -44 -65 -111l-16 18q17 29 22 49z" />
    <glyph glyph-name="gcommaaccent" unicode="&#x123;" horiz-adv-x="521" 
d="M256 453q-91 0 -93 -116q2 -120 89 -120q81 0 82 120q-2 116 -78 116zM397 -35q0 93 -89 95q-83 2 -135 11q-48 -18 -48 -72q0 -123 145 -126q125 0 127 92zM404 427q32 -40 33 -90q-5 -157 -190 -161q-69 -3 -69 -30q1 -25 78 -25h76q177 0 177 -143q-2 -146 -241 -146
t-239 146q0 90 107 110q-30 14 -30 56q5 41 51 45q-104 23 -104 148q0 156 197 156q82 0 115 -16h99v-50h-60zM277 635q17 0 29 -13q15 -13 15 -35q0 -20 -15 -35q-14 -14 -36 -14t-38 14q-15 15 -15 35v4q0 64 65 131l17 -18q-17 -32 -22 -69z" />
    <glyph glyph-name="Hcircumflex" unicode="&#x124;" horiz-adv-x="700" 
d="M191 337v-247q0 -55 78 -57v-33h-254v33q73 1 73 57v530q0 56 -73 57v33h254v-33q-78 -1 -78 -57v-229h318v229q0 56 -73 57v33h249v-33q-78 -1 -78 -57v-530q0 -55 78 -57v-33h-249v33q73 1 73 57v247h-318zM476 783q1 -2 1 -6q0 -12 -17 -12q-6 0 -10 1l-100 57
l-101 -57q-2 -1 -5 -1h-5q-17 0 -17 12q0 4 1 6l127 125z" />
    <glyph glyph-name="hcircumflex" unicode="&#x125;" horiz-adv-x="581" 
d="M193 90q0 -55 65 -57v-33h-227v33q59 2 59 57v547q-3 45 -77 50v38q84 0 180 12v-320q66 75 175 75q135 0 135 -161v-241q0 -55 65 -57v-33h-223v33q56 2 56 57v237q0 102 -80 102q-68 0 -128 -77v-262zM416 783q1 -2 1 -6q0 -12 -17 -12q-6 0 -10 1l-100 57l-101 -57
q-2 -1 -5 -1h-5q-17 0 -17 12q0 4 1 6l127 125z" />
    <glyph glyph-name="Hbar" unicode="&#x126;" horiz-adv-x="690" 
d="M602 514v-424q0 -55 78 -57v-33h-249v33q73 1 73 57v247h-318v-247q0 -55 78 -57v-33h-254v33q73 1 73 57v424h-78v49h78v57q0 56 -73 57v33h254v-33q-78 -1 -78 -57v-57h318v57q0 56 -73 57v33h249v-33q-78 -1 -78 -57v-57h71v-49h-71zM186 514v-123h318v123h-318z" />
    <glyph glyph-name="hbar" unicode="&#x127;" horiz-adv-x="585" 
d="M193 564v-148q66 77 162 77q151 0 152 -207v-196q0 -55 65 -57v-33h-227v33q51 1 58 46v236q0 120 -79 120q-72 0 -131 -80v-265q0 -55 65 -57v-33h-227v33q59 2 59 57v474h-76v50h76v23q-3 45 -77 50v38q84 0 180 12v-123h197v-50h-197z" />
    <glyph glyph-name="Itilde" unicode="&#x128;" horiz-adv-x="303" 
d="M201 90q0 -55 77 -57v-33h-254v33q74 2 74 57v530q0 55 -74 57v33h254v-33q-77 -2 -77 -57v-530zM95 819q-26 0 -30 -19q-7 -25 -18 -25q-4 0 -9 5q5 63 50 91q11 7 35 7q19 0 48 -29t40 -29q25 0 29 19q7 25 18 25q5 0 10 -5q-5 -63 -51 -91q-10 -7 -33 -7q-20 0 -49 29
t-40 29z" />
    <glyph glyph-name="itilde" unicode="&#x129;" horiz-adv-x="306" 
d="M112 388q-5 48 -78 49v40l92 2q41 3 89 9v-398q0 -56 64 -57v-33h-227v33q60 2 60 57v298zM99 586q-26 0 -30 -19q-7 -25 -18 -25q-4 0 -9 5q5 63 50 91q11 7 35 7q19 0 48 -29t40 -29q25 0 29 19q7 25 18 25q5 0 10 -5q-5 -63 -51 -91q-10 -7 -33 -7q-20 0 -49 29
t-40 29z" />
    <glyph glyph-name="Imacron" unicode="&#x12a;" horiz-adv-x="303" 
d="M201 90q0 -55 77 -57v-33h-254v33q74 2 74 57v530q0 55 -74 57v33h254v-33q-77 -2 -77 -57v-530zM16 783v48h272v-48h-272z" />
    <glyph glyph-name="imacron" unicode="&#x12b;" horiz-adv-x="306" 
d="M112 388q-5 48 -78 49v40l92 2q41 3 89 9v-398q0 -56 64 -57v-33h-227v33q60 2 60 57v298zM21 550v48h272v-48h-272z" />
    <glyph glyph-name="Ibreve" unicode="&#x12c;" horiz-adv-x="303" 
d="M201 90q0 -55 77 -57v-33h-254v33q74 2 74 57v530q0 55 -74 57v33h254v-33q-77 -2 -77 -57v-530zM38 875q3 6 12 6q7 0 11 -4q2 -54 93 -54q93 0 93 54q4 4 11 4q9 0 12 -6q-1 -115 -116 -115q-116 0 -116 115z" />
    <glyph glyph-name="ibreve" unicode="&#x12d;" horiz-adv-x="306" 
d="M112 388q-5 48 -78 49v40l92 2q41 3 89 9v-398q0 -56 64 -57v-33h-227v33q60 2 60 57v298zM44 642q3 6 12 6q7 0 11 -4q2 -54 93 -54q93 0 93 54q4 4 11 4q9 0 12 -6q-1 -115 -116 -115q-116 0 -116 115z" />
    <glyph glyph-name="Iogonek" unicode="&#x12e;" horiz-adv-x="303" 
d="M24 0v33q74 2 74 57v530q0 55 -74 57v33h254v-33q-77 -2 -77 -57v-530q0 -55 77 -57v-33h-47q-73 -64 -73 -113q0 -51 49 -51q38 0 58 32l13 -8q-36 -64 -102 -64q-77 0 -77 61q0 37 29 77q25 34 79 66h-183z" />
    <glyph glyph-name="iogonek" unicode="&#x12f;" horiz-adv-x="306" 
d="M216 679q0 -26 -20 -46t-51 -20t-51 20t-20 46t20 46t51 20t51 -20t20 -46zM52 0v33q60 2 60 57v298q-5 48 -78 49v40l92 2q41 3 89 9v-398q0 -56 64 -57v-33h-47q-73 -64 -73 -113q0 -51 49 -51q38 0 58 32l13 -8q-36 -64 -102 -64q-77 0 -77 61q0 37 29 77q25 34 79 66
h-156z" />
    <glyph glyph-name="Idotaccent" unicode="&#x130;" horiz-adv-x="303" 
d="M201 90q0 -55 77 -57v-33h-254v33q74 2 74 57v530q0 55 -74 57v33h254v-33q-77 -2 -77 -57v-530zM210 831q0 -56 -58 -56q-59 0 -59 56q0 57 59 57q58 0 58 -57z" />
    <glyph glyph-name="dotlessi" unicode="&#x131;" horiz-adv-x="306" 
d="M112 388q-5 48 -78 49v40l92 2q41 3 89 9v-398q0 -56 64 -57v-33h-227v33q60 2 60 57v298z" />
    <glyph glyph-name="IJ" unicode="&#x132;" horiz-adv-x="615" 
d="M201 90q0 -55 77 -57v-33h-254v33q74 2 74 57v530q0 55 -74 57v33h254v-33q-77 -2 -77 -57v-530zM515 64q-1 -127 -81 -201q-79 -73 -141 -73v44q60 32 89 85q27 53 30 153v548q0 56 -73 57v33h254v-33q-78 -1 -78 -57v-556z" />
    <glyph glyph-name="ij" unicode="&#x133;" horiz-adv-x="535" 
d="M216 679q0 -26 -20 -46t-51 -20t-51 20t-20 46t20 46t51 20t51 -20t20 -46zM112 388q-5 48 -78 49v40l92 2q41 3 89 9v-398q0 -56 64 -57v-33h-227v33q60 2 60 57v298zM495 679q0 -26 -20 -46t-51 -20t-51 20t-20 46t20 46t51 20t51 -20t20 -46zM489 -24q0 -89 -56 -137
q-53 -49 -122 -49v41q75 27 75 143v415q-5 47 -74 48v40q21 0 46 1l43 1q43 3 88 9v-512z" />
    <glyph glyph-name="Jcircumflex" unicode="&#x134;" horiz-adv-x="312" 
d="M212 64q-1 -127 -81 -201q-79 -73 -141 -73v44q60 32 89 85q27 53 30 153v548q0 56 -73 57v33h254v-33q-78 -1 -78 -57v-556zM270 783q1 -2 1 -6q0 -12 -17 -12q-6 0 -10 1l-100 57l-101 -57q-2 -1 -5 -1h-5q-17 0 -17 12q0 4 1 6l127 125z" />
    <glyph glyph-name="jcircumflex" unicode="&#x135;" horiz-adv-x="248" 
d="M197 -24q0 -89 -55 -137q-55 -49 -122 -49v41q74 27 74 143v415q-3 47 -73 48v40q21 0 46 1q17 0 42 1q41 3 88 9v-512zM255 550q1 -2 1 -6q0 -12 -17 -12h-5q-3 0 -5 1l-101 57l-100 -57q-4 -1 -10 -1q-18 0 -18 12q0 4 1 6l127 125z" />
    <glyph glyph-name="Kcommaaccent" unicode="&#x136;" horiz-adv-x="629" 
d="M215 305l245 324q4 8 4 16q0 25 -49 32v31h204v-32q-59 -11 -100 -65l-163 -210l208 -313q32 -45 84 -56v-32h-148l-214 304l-71 -102v-87q0 -80 78 -82v-33h-254v33q73 1 73 57v530q0 56 -73 57v33h254v-33q-78 -1 -78 -57v-315zM337 -147q-17 0 -29 13q-16 13 -16 34
t16 36q14 14 36 14q23 0 37 -14q15 -15 15 -36v-3q0 -44 -65 -111l-16 18q17 29 22 49z" />
    <glyph glyph-name="kcommaaccent" unicode="&#x137;" horiz-adv-x="526" 
d="M184 101q0 -67 64 -68v-33h-227v33q60 2 60 57v547q-4 45 -78 50v38q84 0 181 12v-531l105 170q13 22 13 38q0 29 -45 29v34h191v-35q-39 0 -95 -72l-52 -72l133 -198q43 -65 104 -67v-33h-221v33q25 1 25 28q0 12 -4 24l-87 139zM263 -147q-17 0 -29 13q-16 13 -16 34
t16 36q14 14 36 14q23 0 37 -14q15 -15 15 -36v-3q0 -44 -65 -111l-16 18q17 29 22 49z" />
    <glyph glyph-name="kgreenlandic" unicode="&#x138;" horiz-adv-x="536" 
d="M196 210l102 166q14 23 14 38q0 28 -36 28v34h182v-34q-40 0 -96 -72l-51 -72l132 -198q43 -65 104 -67v-33h-220v33q25 1 25 28q0 12 -4 24l-87 139l-68 -123q0 -66 65 -68v-33h-227v33q59 2 59 57v296q0 55 -59 57v34h200v-34q-35 0 -35 -57v-176z" />
    <glyph glyph-name="Lacute" unicode="&#x139;" horiz-adv-x="555" 
d="M339 54q136 0 136 130h46v-184h-477v33q73 1 73 57v530q0 56 -73 57v33h254v-33q-78 -1 -78 -57v-527q0 -39 60 -39h59zM234 757q27 100 44 125l2 3q18 21 42 21q18 0 34 -12q22 -16 22 -43q0 -18 -11 -32q-19 -21 -111 -77z" />
    <glyph glyph-name="lacute" unicode="&#x13a;" horiz-adv-x="273" 
d="M83 637q-3 45 -77 50v38q84 0 181 12v-647q0 -56 64 -57v-33h-227v33q59 2 59 57v547zM56 760q27 100 44 125l2 3q18 21 42 21q18 0 34 -12q22 -16 22 -43q0 -18 -11 -32q-19 -21 -111 -77z" />
    <glyph glyph-name="Lcommaaccent" unicode="&#x13b;" horiz-adv-x="555" 
d="M339 54q136 0 136 130h46v-184h-477v33q73 1 73 57v530q0 56 -73 57v33h254v-33q-78 -1 -78 -57v-527q0 -39 60 -39h59zM275 -147q-17 0 -29 13q-16 13 -16 34t16 36q14 14 36 14q23 0 37 -14q15 -15 15 -36v-3q0 -44 -65 -111l-16 18q17 29 22 49z" />
    <glyph glyph-name="lcommaaccent" unicode="&#x13c;" horiz-adv-x="273" 
d="M83 637q-3 45 -77 50v38q84 0 181 12v-647q0 -56 64 -57v-33h-227v33q59 2 59 57v547zM121 -147q-17 0 -29 13q-16 13 -16 34t16 36q14 14 36 14q23 0 37 -14q15 -15 15 -36v-3q0 -44 -65 -111l-16 18q17 29 22 49z" />
    <glyph glyph-name="Lcaron" unicode="&#x13d;" horiz-adv-x="555" 
d="M339 54q136 0 136 130h46v-184h-477v33q73 1 73 57v530q0 56 -73 57v33h254v-33q-78 -1 -78 -57v-527q0 -39 60 -39h59zM461 621q-17 0 -29 13q-16 13 -16 34q0 20 16 35q14 15 36 15q24 0 37 -15q15 -15 15 -35v-3q0 -64 -65 -131l-16 18q17 30 22 69z" />
    <glyph glyph-name="lcaron" unicode="&#x13e;" horiz-adv-x="372" 
d="M93 637q-3 45 -77 50v38q84 0 180 12v-647q0 -55 65 -57v-33h-227v33q59 2 59 57v547zM303 621q-17 0 -30 13q-15 14 -15 34t15 35t37 15q24 0 37 -15q15 -15 15 -35v-3q0 -64 -65 -131l-16 18q17 30 22 69z" />
    <glyph glyph-name="Ldot" unicode="&#x13f;" horiz-adv-x="555" 
d="M339 54q136 0 136 130h46v-184h-477v33q73 1 73 57v530q0 56 -73 57v33h254v-33q-78 -1 -78 -57v-527q0 -39 60 -39h59zM491 354q0 -19 -14 -33q-16 -14 -36 -14q-21 0 -35 14t-14 33q0 20 14 34t35 14q20 0 36 -14q14 -14 14 -34z" />
    <glyph glyph-name="ldot" unicode="&#x140;" horiz-adv-x="371" 
d="M83 637q-3 45 -77 50v38q84 0 181 12v-647q0 -56 64 -57v-33h-227v33q59 2 59 57v547zM349 368q0 -19 -14 -33t-35 -14t-35 14q-15 14 -15 33q0 21 15 34q14 14 35 14t35 -14t14 -34z" />
    <glyph glyph-name="Lslash" unicode="&#x141;" horiz-adv-x="555" 
d="M220 325v-271h119q136 0 136 130h46v-184h-477v33q73 1 73 57v189l-74 -33v49l74 34v291q0 56 -73 57v33h254v-33q-78 -1 -78 -57v-245l199 89v-49z" />
    <glyph glyph-name="lslash" unicode="&#x142;" horiz-adv-x="294" 
d="M102 357v280q-3 45 -78 50v38q84 0 181 12v-334l75 34v-50l-75 -33v-264q0 -55 65 -57v-33h-228v33q60 2 60 57v217l-71 -32v50z" />
    <glyph glyph-name="Nacute" unicode="&#x143;" horiz-adv-x="688" 
d="M144 491v-401q0 -55 102 -57v-33h-217v33q49 1 49 57v481q0 105 -49 106v33h92l419 -511v421q0 55 -98 57v33h217v-33q-54 -1 -54 -57v-620h-40zM296 757q27 100 44 125l2 3q18 21 42 21q18 0 34 -12q22 -16 22 -43q0 -18 -11 -32q-19 -21 -111 -77z" />
    <glyph glyph-name="nacute" unicode="&#x144;" horiz-adv-x="578" 
d="M193 90q0 -55 60 -57v-33h-223v33q60 2 60 57v298q-5 48 -78 49v40q22 0 48 1q18 0 44 1q41 3 89 9v-70q66 74 170 74q140 0 140 -161v-241q0 -55 65 -57v-33h-223v33q56 2 56 57v237q0 102 -80 102q-70 0 -128 -76v-263zM242 524q27 100 44 125l2 3q18 21 42 21
q18 0 34 -12q22 -16 22 -43q0 -18 -11 -32q-19 -21 -111 -77z" />
    <glyph glyph-name="Ncommaaccent" unicode="&#x145;" horiz-adv-x="688" 
d="M144 491v-401q0 -55 102 -57v-33h-217v33q49 1 49 57v481q0 105 -49 106v33h92l419 -511v421q0 55 -98 57v33h217v-33q-54 -1 -54 -57v-620h-40zM337 -147q-17 0 -29 13q-16 13 -16 34t16 36q14 14 36 14q23 0 37 -14q15 -15 15 -36v-3q0 -44 -65 -111l-16 18
q17 29 22 49z" />
    <glyph glyph-name="ncommaaccent" unicode="&#x146;" horiz-adv-x="578" 
d="M193 90q0 -55 60 -57v-33h-223v33q60 2 60 57v298q-5 48 -78 49v40q22 0 48 1q18 0 44 1q41 3 89 9v-70q66 74 170 74q140 0 140 -161v-241q0 -55 65 -57v-33h-223v33q56 2 56 57v237q0 102 -80 102q-70 0 -128 -76v-263zM283 -147q-17 0 -29 13q-16 13 -16 34t16 36
q14 14 36 14q23 0 37 -14q15 -15 15 -36v-3q0 -44 -65 -111l-16 18q17 29 22 49z" />
    <glyph glyph-name="Ncaron" unicode="&#x147;" horiz-adv-x="688" 
d="M144 491v-401q0 -55 102 -57v-33h-217v33q49 1 49 57v481q0 105 -49 106v33h92l419 -511v421q0 55 -98 57v33h217v-33q-54 -1 -54 -57v-620h-40zM344 765l-127 125q-1 2 -1 6q0 12 17 12h5q3 0 5 -1l101 -57l100 57q4 1 10 1q17 0 17 -12q0 -4 -1 -6z" />
    <glyph glyph-name="ncaron" unicode="&#x148;" horiz-adv-x="578" 
d="M193 90q0 -55 60 -57v-33h-223v33q60 2 60 57v298q-5 48 -78 49v40q22 0 48 1q18 0 44 1q41 3 89 9v-70q66 74 170 74q140 0 140 -161v-241q0 -55 65 -57v-33h-223v33q56 2 56 57v237q0 102 -80 102q-70 0 -128 -76v-263zM290 532l-127 125q-1 2 -1 6q0 12 17 12h5
q3 0 5 -1l101 -57l100 57q4 1 10 1q17 0 17 -12q0 -4 -1 -6z" />
    <glyph glyph-name="napostrophe" unicode="&#x149;" horiz-adv-x="700" 
d="M54 576q-17 0 -29 12q-15 15 -15 35q0 22 15 35q15 15 37 15t37 -15q15 -13 15 -35v-3q0 -64 -65 -131l-17 18q17 30 22 69zM315 90q0 -55 60 -57v-33h-222v33q59 2 59 57v298q-5 48 -77 49v40l92 2q42 3 88 9v-70q66 75 161 75q75 0 112 -40q38 -41 38 -120v-243
q0 -56 64 -57v-33h-222v33q55 1 55 57v238q0 102 -80 102q-68 0 -128 -77v-263z" />
    <glyph glyph-name="Eng" unicode="&#x14a;" horiz-adv-x="688" 
d="M503 72l-359 419v-401q0 -55 102 -57v-33h-217v33q49 1 49 57v481q0 105 -49 106v33h92l419 -511v421q0 55 -98 57v33h217v-33q-54 -1 -54 -57v-644q0 -89 -55 -137q-52 -49 -121 -49v41q74 10 74 153v88z" />
    <glyph glyph-name="eng" unicode="&#x14b;" horiz-adv-x="575" 
d="M398 328q0 102 -80 102q-68 0 -128 -77v-263q0 -55 60 -57v-33h-222v33q59 2 59 57v298q-5 48 -77 49v40l92 2q42 3 88 9v-70q66 75 161 75q150 0 150 -160v-357q0 -89 -55 -137q-53 -49 -122 -49v41q74 10 74 153v344z" />
    <glyph glyph-name="Omacron" unicode="&#x14c;" horiz-adv-x="742" 
d="M695 351q0 -161 -81 -259q-79 -99 -239 -99q-167 0 -248 99q-81 98 -81 259q0 167 80 267q81 99 239 99q169 0 250 -99q80 -100 80 -267zM375 37q96 0 148 82q53 83 53 232q-3 148 -60 232q-58 84 -151 84q-95 0 -147 -82q-53 -83 -53 -234q3 -146 61 -229
q58 -85 149 -85zM235 783v48h272v-48h-272z" />
    <glyph glyph-name="omacron" unicode="&#x14d;" horiz-adv-x="569" 
d="M283 444q-133 0 -133 -195q3 -203 137 -203q132 0 132 200q-1 198 -136 198zM285 492q239 0 239 -247t-239 -247q-241 0 -241 247t241 247zM149 550v48h272v-48h-272z" />
    <glyph glyph-name="Obreve" unicode="&#x14e;" horiz-adv-x="742" 
d="M695 351q0 -161 -81 -259q-79 -99 -239 -99q-167 0 -248 99q-81 98 -81 259q0 167 80 267q81 99 239 99q169 0 250 -99q80 -100 80 -267zM375 37q96 0 148 82q53 83 53 232q-3 148 -60 232q-58 84 -151 84q-95 0 -147 -82q-53 -83 -53 -234q3 -146 61 -229
q58 -85 149 -85zM255 875q3 6 12 6q7 0 11 -4q2 -54 93 -54q93 0 93 54q4 4 11 4q9 0 12 -6q-1 -115 -116 -115q-116 0 -116 115z" />
    <glyph glyph-name="obreve" unicode="&#x14f;" horiz-adv-x="569" 
d="M283 444q-133 0 -133 -195q3 -203 137 -203q132 0 132 200q-1 198 -136 198zM285 492q239 0 239 -247t-239 -247q-241 0 -241 247t241 247zM169 642q3 6 12 6q7 0 11 -4q2 -54 93 -54q93 0 93 54q4 4 11 4q9 0 12 -6q-1 -115 -116 -115q-116 0 -116 115z" />
    <glyph glyph-name="Ohungarumlaut" unicode="&#x150;" horiz-adv-x="742" 
d="M695 351q0 -161 -81 -259q-79 -99 -239 -99q-167 0 -248 99q-81 98 -81 259q0 167 80 267q81 99 239 99q169 0 250 -99q80 -100 80 -267zM375 37q96 0 148 82q53 83 53 232q-3 148 -60 232q-58 84 -151 84q-95 0 -147 -82q-53 -83 -53 -234q3 -146 61 -229
q58 -85 149 -85zM226 757q27 100 44 125l2 3q18 21 42 21q18 0 34 -12q22 -16 22 -43q0 -18 -11 -32q-19 -21 -111 -77zM373 757q25 99 43 125l3 3q15 21 42 21q18 0 33 -12q22 -15 22 -43q0 -19 -10 -32q-22 -22 -112 -77z" />
    <glyph glyph-name="ohungarumlaut" unicode="&#x151;" horiz-adv-x="569" 
d="M283 444q-133 0 -133 -195q3 -203 137 -203q132 0 132 200q-1 198 -136 198zM285 492q239 0 239 -247t-239 -247q-241 0 -241 247t241 247zM139 524q27 100 44 125l2 3q18 21 42 21q18 0 34 -12q22 -16 22 -43q0 -18 -11 -32q-19 -21 -111 -77zM286 524q25 99 43 125l3 3
q15 21 42 21q18 0 33 -12q22 -15 22 -43q0 -19 -10 -32q-22 -22 -112 -77z" />
    <glyph glyph-name="OE" unicode="&#x152;" horiz-adv-x="999" 
d="M495 608q-54 58 -130 58q-94 0 -147 -83q-53 -82 -53 -234q3 -146 61 -229q59 -84 149 -84q72 0 119 46q14 13 29 36q53 83 53 231q-3 149 -60 233q-14 18 -21 26zM937 710v-188h-45q0 134 -139 134h-155v-21l9 -9q5 -5 8 -9q68 -85 79 -223h67q55 0 56 54h39v-157h-39
q-1 49 -56 49h-66q-1 -154 -81 -250q-2 -3 -8 -9l-8 -9v-18h191q135 0 135 134h46v-188h-510q-42 -8 -85 -8q-167 0 -248 98q-81 99 -81 259q0 168 80 268q81 98 239 98q36 0 74 -5h498z" />
    <glyph glyph-name="oe" unicode="&#x153;" horiz-adv-x="857" 
d="M283 448q-133 0 -133 -198q3 -205 137 -205q132 0 132 202q-1 201 -136 201zM726 306q-4 129 -86 131q-95 0 -116 -131h202zM467 61q-60 -65 -182 -65q-241 0 -241 250t241 250q118 0 178 -61q55 56 164 58q93 0 149 -62q55 -62 55 -174h-307v-11q0 -20 -1 -29
q14 -160 129 -162q91 0 135 95l28 -21q-46 -130 -187 -130q-106 1 -161 62z" />
    <glyph glyph-name="Racute" unicode="&#x154;" horiz-adv-x="603" 
d="M487 193q42 -159 136 -166v-27h-116q-110 1 -145 180q-25 118 -106 138h-60v-179q0 -104 77 -106v-33h-253v33q73 1 73 57v530q0 56 -73 57v33h201q297 0 306 -179q0 -174 -209 -201q133 -21 169 -137zM196 665v-249q0 -55 75 -55q148 16 148 152q0 149 -172 152h-51z
M273 757q27 100 44 125l2 3q18 21 42 21q18 0 34 -12q22 -16 22 -43q0 -18 -11 -32q-19 -21 -111 -77z" />
    <glyph glyph-name="racute" unicode="&#x155;" horiz-adv-x="406" 
d="M208 376q46 113 117 113t76 -62q0 -61 -54 -66q-48 2 -61 47q-1 6 -6 6q-29 0 -72 -102v-222q0 -55 60 -57v-33h-223v33q59 2 59 57v298q-3 47 -77 49v40l92 2q41 3 89 9v-112zM166 524q27 100 44 125l2 3q18 21 42 21q18 0 34 -12q22 -16 22 -43q0 -18 -11 -32
q-19 -21 -111 -77z" />
    <glyph glyph-name="Rcommaaccent" unicode="&#x156;" horiz-adv-x="603" 
d="M487 193q42 -159 136 -166v-27h-116q-110 1 -145 180q-25 118 -106 138h-60v-179q0 -104 77 -106v-33h-253v33q73 1 73 57v530q0 56 -73 57v33h201q297 0 306 -179q0 -174 -209 -201q133 -21 169 -137zM196 665v-249q0 -55 75 -55q148 16 148 152q0 149 -172 152h-51z
M314 -147q-17 0 -29 13q-16 13 -16 34t16 36q14 14 36 14q23 0 37 -14q15 -15 15 -36v-3q0 -44 -65 -111l-16 18q17 29 22 49z" />
    <glyph glyph-name="rcommaaccent" unicode="&#x157;" horiz-adv-x="406" 
d="M208 376q46 113 117 113t76 -62q0 -61 -54 -66q-48 2 -61 47q-1 6 -6 6q-29 0 -72 -102v-222q0 -55 60 -57v-33h-223v33q59 2 59 57v298q-3 47 -77 49v40l92 2q41 3 89 9v-112zM207 -147q-17 0 -29 13q-16 13 -16 34t16 36q14 14 36 14q23 0 37 -14q15 -15 15 -36v-3
q0 -44 -65 -111l-16 18q17 29 22 49z" />
    <glyph glyph-name="Rcaron" unicode="&#x158;" horiz-adv-x="603" 
d="M487 193q42 -159 136 -166v-27h-116q-110 1 -145 180q-25 118 -106 138h-60v-179q0 -104 77 -106v-33h-253v33q73 1 73 57v530q0 56 -73 57v33h201q297 0 306 -179q0 -174 -209 -201q133 -21 169 -137zM196 665v-249q0 -55 75 -55q148 16 148 152q0 149 -172 152h-51z
M321 765l-127 125q-1 2 -1 6q0 12 17 12h5q3 0 5 -1l101 -57l100 57q4 1 10 1q17 0 17 -12q0 -4 -1 -6z" />
    <glyph glyph-name="rcaron" unicode="&#x159;" horiz-adv-x="406" 
d="M208 376q46 113 117 113t76 -62q0 -61 -54 -66q-48 2 -61 47q-1 6 -6 6q-29 0 -72 -102v-222q0 -55 60 -57v-33h-223v33q59 2 59 57v298q-3 47 -77 49v40l92 2q41 3 89 9v-112zM215 532l-127 125q-1 2 -1 6q0 12 17 12h5q3 0 5 -1l101 -57l100 57q4 1 10 1q17 0 17 -12
q0 -4 -1 -6z" />
    <glyph glyph-name="Sacute" unicode="&#x15a;" horiz-adv-x="557" 
d="M137 408q-70 52 -76 131q0 73 59 126q58 52 167 52q108 0 176 -62v-132h-34q-20 82 -54 113q-35 31 -83 31q-62 0 -90 -31q-29 -32 -29 -77q3 -50 107 -106q99 -53 153 -94q81 -64 88 -166q0 -88 -62 -144q-64 -56 -189 -56q-146 0 -221 83v176h50q19 -135 61 -173
q41 -38 103 -38q74 0 109 31q33 29 35 98q-5 84 -115 145q-108 59 -155 93zM237 757q27 100 44 125l2 3q18 21 42 21q18 0 34 -12q22 -16 22 -43q0 -18 -11 -32q-19 -21 -111 -77z" />
    <glyph glyph-name="sacute" unicode="&#x15b;" horiz-adv-x="452" 
d="M377 334h-44q-20 84 -41 102q-27 18 -68 18q-67 -7 -72 -60q0 -53 129 -94q128 -47 132 -140q0 -162 -197 -162q-116 0 -164 48v124h46q19 -78 35 -105q14 -24 79 -32q103 4 105 93q0 39 -34 67q-34 29 -102 45q-133 34 -137 113q0 63 51 102q50 39 136 39q95 0 146 -52
v-106zM181 524q27 100 44 125l2 3q18 21 42 21q18 0 34 -12q22 -16 22 -43q0 -18 -11 -32q-19 -21 -111 -77z" />
    <glyph glyph-name="Scircumflex" unicode="&#x15c;" horiz-adv-x="557" 
d="M137 408q-70 52 -76 131q0 73 59 126q58 52 167 52q108 0 176 -62v-132h-34q-20 82 -54 113q-35 31 -83 31q-62 0 -90 -31q-29 -32 -29 -77q3 -50 107 -106q99 -53 153 -94q81 -64 88 -166q0 -88 -62 -144q-64 -56 -189 -56q-146 0 -221 83v176h50q19 -135 61 -173
q41 -38 103 -38q74 0 109 31q33 29 35 98q-5 84 -115 145q-108 59 -155 93zM411 783q1 -2 1 -6q0 -12 -17 -12q-6 0 -10 1l-100 57l-101 -57q-2 -1 -5 -1h-5q-17 0 -17 12q0 4 1 6l127 125z" />
    <glyph glyph-name="scircumflex" unicode="&#x15d;" horiz-adv-x="452" 
d="M377 334h-44q-20 84 -41 102q-27 18 -68 18q-67 -7 -72 -60q0 -53 129 -94q128 -47 132 -140q0 -162 -197 -162q-116 0 -164 48v124h46q19 -78 35 -105q14 -24 79 -32q103 4 105 93q0 39 -34 67q-34 29 -102 45q-133 34 -137 113q0 63 51 102q50 39 136 39q95 0 146 -52
v-106zM355 550q1 -2 1 -6q0 -12 -17 -12q-6 0 -10 1l-100 57l-101 -57q-2 -1 -5 -1h-5q-17 0 -17 12q0 4 1 6l127 125z" />
    <glyph glyph-name="Scedilla" unicode="&#x15e;" horiz-adv-x="557" 
d="M259 -7q-138 3 -210 83v176h50q19 -135 61 -173q41 -38 103 -38q74 0 109 31q33 29 35 98q-5 84 -115 145q-108 59 -155 93q-70 52 -76 131q0 73 59 126q58 52 167 52q108 0 176 -62v-132h-34q-20 82 -54 113q-35 31 -83 31q-62 0 -90 -31q-29 -32 -29 -77
q3 -50 107 -106q99 -53 153 -94q81 -64 88 -166q0 -88 -62 -144q-53 -47 -154 -55l-9 -33q89 0 89 -75q0 -80 -107 -80q-53 0 -92 15l21 38q19 -16 53 -16q60 0 60 43q0 22 -24 31q-15 7 -56 7z" />
    <glyph glyph-name="scedilla" unicode="&#x15f;" horiz-adv-x="452" 
d="M204 -2q-107 3 -152 48v124h46q19 -78 35 -105q14 -24 79 -32q103 4 105 93q0 39 -34 67q-34 29 -102 45q-133 34 -137 113q0 63 51 102q50 39 136 39q95 0 146 -52v-106h-44q-20 84 -41 102q-27 18 -68 18q-67 -7 -72 -60q0 -53 129 -94q128 -47 132 -140
q0 -148 -164 -161l-10 -38q89 0 89 -75q0 -80 -107 -80q-53 0 -92 15l21 38q19 -16 53 -16q60 0 60 43q0 22 -24 31q-15 7 -56 7z" />
    <glyph glyph-name="Scaron" unicode="&#x160;" horiz-adv-x="557" 
d="M137 408q-70 52 -76 131q0 73 59 126q58 52 167 52q108 0 176 -62v-132h-34q-20 82 -54 113q-35 31 -83 31q-62 0 -90 -31q-29 -32 -29 -77q3 -50 107 -106q99 -53 153 -94q81 -64 88 -166q0 -88 -62 -144q-64 -56 -189 -56q-146 0 -221 83v176h50q19 -135 61 -173
q41 -38 103 -38q74 0 109 31q33 29 35 98q-5 84 -115 145q-108 59 -155 93zM285 765l-127 125q-1 2 -1 6q0 12 17 12h5q3 0 5 -1l101 -57l100 57q4 1 10 1q17 0 17 -12q0 -4 -1 -6z" />
    <glyph glyph-name="scaron" unicode="&#x161;" horiz-adv-x="452" 
d="M377 334h-44q-20 74 -41 92q-27 18 -68 18q-67 -7 -72 -60q0 -43 129 -84q128 -47 132 -140q0 -162 -197 -162q-116 0 -164 48v124h46q19 -68 35 -95q14 -24 79 -32q103 4 105 83q0 39 -34 67q-34 29 -102 45q-133 34 -137 113q0 63 51 102q50 39 126 39q125 -5 156 -52
v-106zM228 532l-127 125q-1 2 -1 6q0 12 17 12h5q3 0 5 -1l101 -57l100 57q4 1 10 1q17 0 17 -12q0 -4 -1 -6z" />
    <glyph glyph-name="Tcommaaccent" unicode="&#x162;" horiz-adv-x="562" 
d="M257 0h-101v33q73 1 73 57v566h-74q-90 0 -90 -134h-45v188h522v-188h-45q0 134 -90 134h-74v-566q0 -56 73 -57v-33h-103l-11 -39q89 0 89 -75q0 -80 -107 -80q-53 0 -92 15l21 38q19 -16 53 -16q60 0 60 43q0 22 -24 31q-15 7 -56 7z" />
    <glyph glyph-name="tcommaaccent" unicode="&#x163;" horiz-adv-x="302" 
d="M150 1q-75 15 -75 100v336h-75v40q95 21 117 135h60v-135h96v-40h-96v-327q0 -38 26 -46q36 2 58 22l26 -30q-39 -52 -93 -57l-10 -38q89 0 89 -75q0 -80 -107 -80q-53 0 -92 15l21 38q19 -16 53 -16q60 0 60 43q0 22 -24 31q-15 7 -56 7z" />
    <glyph glyph-name="Tcaron" unicode="&#x164;" horiz-adv-x="562" 
d="M542 710v-188h-45q0 134 -90 134h-74v-566q0 -56 73 -57v-33h-250v33q73 1 73 57v566h-74q-90 0 -90 -134h-45v188h522zM281 765l-127 125q-1 2 -1 6q0 12 17 12h5q3 0 5 -1l101 -57l100 57q4 1 10 1q17 0 17 -12q0 -4 -1 -6z" />
    <glyph glyph-name="tcaron" unicode="&#x165;" horiz-adv-x="391" 
d="M177 437v-327q0 -37 26 -45q36 0 58 21l26 -29q-44 -59 -105 -59q-107 2 -107 104v335h-75v40q95 21 117 135h60v-135h96v-40h-96zM322 621q-17 0 -30 13q-15 14 -15 34t15 35t37 15q24 0 37 -15q15 -15 15 -35v-3q0 -64 -65 -131l-16 18q17 30 22 69z" />
    <glyph glyph-name="Tbar" unicode="&#x166;" horiz-adv-x="542" 
d="M220 380v276h-74q-91 0 -91 -134h-45v188h523v-188h-46q0 134 -90 134h-74v-276h136v-50h-136v-240q0 -56 73 -57v-33h-250v33q74 2 74 57v240h-137v50h137z" />
    <glyph glyph-name="tbar" unicode="&#x167;" horiz-adv-x="312" 
d="M80 269v168h-56v25q95 56 98 150h60v-135h96v-40h-96v-168h96v-50h-96v-108q0 -38 33 -52q19 0 51 28l26 -29q-44 -59 -105 -59q-44 1 -75 34q-30 32 -32 70v116h-56v50h56z" />
    <glyph glyph-name="Utilde" unicode="&#x168;" horiz-adv-x="701" 
d="M82 619q0 56 -74 58v33h254v-33q-77 -2 -77 -107v-306q0 -205 187 -205q178 0 178 202v309q0 105 -74 107v33h217v-33q-78 -1 -78 -58v-369q0 -111 -66 -185q-66 -72 -204 -72q-139 0 -201 72q-62 74 -62 180v374zM293 819q-26 0 -30 -19q-7 -25 -18 -25q-4 0 -9 5
q5 63 50 91q11 7 35 7q19 0 48 -29t40 -29q25 0 29 19q7 25 18 25q5 0 10 -5q-5 -63 -51 -91q-10 -7 -33 -7q-20 0 -49 29t-40 29z" />
    <glyph glyph-name="utilde" unicode="&#x169;" horiz-adv-x="596" 
d="M92 388q-5 48 -77 49v40l92 2q41 3 88 9v-324q0 -102 80 -102q68 0 128 77v249q-5 48 -78 49v40q22 0 48 1q18 0 44 1q41 3 89 9v-389q4 -46 77 -49v-39q-49 0 -91 -3q-19 -1 -44 -4q-5 0 -11 -1q-5 0 -11 -1l-23 -2v74q-66 -75 -160 -76q-76 2 -113 41q-38 41 -38 121
v228zM241 586q-26 0 -30 -19q-7 -25 -18 -25q-4 0 -9 5q5 63 50 91q11 7 35 7q19 0 48 -29t40 -29q25 0 29 19q7 25 18 25q5 0 10 -5q-5 -63 -51 -91q-10 -7 -33 -7q-20 0 -49 29t-40 29z" />
    <glyph glyph-name="Umacron" unicode="&#x16a;" horiz-adv-x="701" 
d="M82 619q0 56 -74 58v33h254v-33q-77 -2 -77 -107v-306q0 -205 187 -205q178 0 178 202v309q0 105 -74 107v33h217v-33q-78 -1 -78 -58v-369q0 -111 -66 -185q-66 -72 -204 -72q-139 0 -201 72q-62 74 -62 180v374zM215 783v48h272v-48h-272z" />
    <glyph glyph-name="umacron" unicode="&#x16b;" horiz-adv-x="596" 
d="M92 388q-5 48 -77 49v40l92 2q41 3 88 9v-324q0 -102 80 -102q68 0 128 77v249q-5 48 -78 49v40q22 0 48 1q18 0 44 1q41 3 89 9v-389q4 -46 77 -49v-39q-49 0 -91 -3q-19 -1 -44 -4q-5 0 -11 -1q-5 0 -11 -1l-23 -2v74q-66 -75 -160 -76q-76 2 -113 41q-38 41 -38 121
v228zM163 550v48h272v-48h-272z" />
    <glyph glyph-name="Ubreve" unicode="&#x16c;" horiz-adv-x="701" 
d="M82 619q0 56 -74 58v33h254v-33q-77 -2 -77 -107v-306q0 -205 187 -205q178 0 178 202v309q0 105 -74 107v33h217v-33q-78 -1 -78 -58v-369q0 -111 -66 -185q-66 -72 -204 -72q-139 0 -201 72q-62 74 -62 180v374zM235 875q3 6 12 6q7 0 11 -4q2 -54 93 -54q93 0 93 54
q4 4 11 4q9 0 12 -6q-1 -115 -116 -115q-116 0 -116 115z" />
    <glyph glyph-name="ubreve" unicode="&#x16d;" horiz-adv-x="596" 
d="M92 388q-5 48 -77 49v40l92 2q41 3 88 9v-324q0 -102 80 -102q68 0 128 77v249q-5 48 -78 49v40q22 0 48 1q18 0 44 1q41 3 89 9v-389q4 -46 77 -49v-39q-49 0 -91 -3q-19 -1 -44 -4q-5 0 -11 -1q-5 0 -11 -1l-23 -2v74q-66 -75 -160 -76q-76 2 -113 41q-38 41 -38 121
v228zM183 642q3 6 12 6q7 0 11 -4q2 -54 93 -54q93 0 93 54q4 4 11 4q9 0 12 -6q-1 -115 -116 -115q-116 0 -116 115z" />
    <glyph glyph-name="Uring" unicode="&#x16e;" horiz-adv-x="701" 
d="M82 619q0 56 -74 58v33h254v-33q-77 -2 -77 -107v-306q0 -205 187 -205q178 0 178 202v309q0 105 -74 107v33h217v-33q-78 -1 -78 -58v-369q0 -111 -66 -185q-66 -72 -204 -72q-139 0 -201 72q-62 74 -62 180v374zM302 817q0 -48 48 -48q49 0 49 48q0 20 -14 34
q-15 15 -35 15t-34 -15q-14 -14 -14 -34zM264 817q0 37 25 62t61 25q37 0 62 -25q26 -26 26 -62t-26 -62q-25 -24 -62 -24q-35 0 -61 24q-25 25 -25 62z" />
    <glyph glyph-name="uring" unicode="&#x16f;" horiz-adv-x="596" 
d="M92 388q-5 48 -77 49v40l92 2q41 3 88 9v-324q0 -102 80 -102q68 0 128 77v249q-5 48 -78 49v40q22 0 48 1q18 0 44 1q41 3 89 9v-389q4 -46 77 -49v-39q-49 0 -91 -3q-19 -1 -44 -4q-5 0 -11 -1q-5 0 -11 -1l-23 -2v74q-66 -75 -160 -76q-76 2 -113 41q-38 41 -38 121
v228zM250 584q0 -48 48 -48q49 0 49 48q0 20 -14 34q-15 15 -35 15t-34 -15q-14 -14 -14 -34zM212 584q0 37 25 62t61 25q37 0 62 -25q26 -26 26 -62t-26 -62q-25 -24 -62 -24q-35 0 -61 24q-25 25 -25 62z" />
    <glyph glyph-name="Uhungarumlaut" unicode="&#x170;" horiz-adv-x="701" 
d="M82 619q0 56 -74 58v33h254v-33q-77 -2 -77 -107v-306q0 -205 187 -205q178 0 178 202v309q0 105 -74 107v33h217v-33q-78 -1 -78 -58v-369q0 -111 -66 -185q-66 -72 -204 -72q-139 0 -201 72q-62 74 -62 180v374zM205 757q27 100 44 125l2 3q18 21 42 21q18 0 34 -12
q22 -16 22 -43q0 -18 -11 -32q-19 -21 -111 -77zM352 757q25 99 43 125l3 3q15 21 42 21q18 0 33 -12q22 -15 22 -43q0 -19 -10 -32q-22 -22 -112 -77z" />
    <glyph glyph-name="uhungarumlaut" unicode="&#x171;" horiz-adv-x="596" 
d="M92 388q-5 48 -77 49v40l92 2q41 3 88 9v-324q0 -102 80 -102q68 0 128 77v249q-5 48 -78 49v40q22 0 48 1q18 0 44 1q41 3 89 9v-389q4 -46 77 -49v-39q-49 0 -91 -3q-19 -1 -44 -4q-5 0 -11 -1q-5 0 -11 -1l-23 -2v74q-66 -75 -160 -76q-76 2 -113 41q-38 41 -38 121
v228zM154 524q27 100 44 125l2 3q18 21 42 21q18 0 34 -12q22 -16 22 -43q0 -18 -11 -32q-19 -21 -111 -77zM301 524q25 99 43 125l3 3q15 21 42 21q18 0 33 -12q22 -15 22 -43q0 -19 -10 -32q-22 -22 -112 -77z" />
    <glyph glyph-name="Uogonek" unicode="&#x172;" horiz-adv-x="701" 
d="M463 14q-51 -17 -118 -17q-139 0 -201 72q-62 74 -62 180v370q0 56 -74 58v33h254v-33q-77 -2 -77 -107v-302q0 -205 187 -205q178 0 178 202v305q0 105 -74 107v33h217v-33q-78 -1 -78 -58v-365q0 -111 -66 -185q-14 -14 -22 -20q-26 -32 -48 -91q-12 -34 -12 -60
q0 -18 7 -31q15 -31 38 -31q38 0 58 32l13 -8q-36 -64 -102 -64q-60 0 -73 51q-3 8 -3 18q0 30 18 75q22 55 40 74z" />
    <glyph glyph-name="uogonek" unicode="&#x173;" horiz-adv-x="596" 
d="M456 5q-33 -4 -53 -5v71q-66 -75 -160 -75q-76 0 -113 40q-38 41 -38 121v231q-5 48 -77 49v40l92 2q41 3 88 9v-327q0 -102 80 -102q68 0 128 77v252q-5 48 -78 49v40q22 0 48 1q18 0 44 1q41 3 89 9v-389q4 -46 77 -49v-39q-42 0 -80 -3q-14 -24 -24 -50
q-12 -34 -12 -60q0 -18 7 -31q15 -31 38 -31q38 0 58 32l13 -8q-36 -64 -102 -64q-60 0 -73 51q-3 8 -3 18q0 30 18 75q17 44 33 65z" />
    <glyph glyph-name="Wcircumflex" unicode="&#x174;" horiz-adv-x="817" 
d="M412 490l-114 -490h-80l-192 628q-13 34 -46 45v37h233v-40q-65 -6 -65 -48l133 -452l124 542h36l166 -562l122 475q0 43 -73 44v41h186v-38q-31 -10 -43 -44l-172 -628h-79zM538 783q1 -2 1 -6q0 -12 -17 -12q-6 0 -10 1l-100 57l-101 -57q-2 -1 -5 -1h-5q-17 0 -17 12
q0 4 1 6l127 125z" />
    <glyph glyph-name="wcircumflex" unicode="&#x175;" horiz-adv-x="688" 
d="M337 294l-116 -294h-33l-134 386q-22 56 -74 58v33h226v-33q-55 -1 -55 -32l85 -242l119 304l153 -306l75 243q0 31 -59 33v33h184v-33q-40 -1 -62 -58l-135 -386h-32zM470 550q1 -2 1 -6q0 -12 -17 -12q-6 0 -10 1l-100 57l-101 -57q-2 -1 -5 -1h-5q-17 0 -17 12
q0 4 1 6l127 125z" />
    <glyph glyph-name="Ycircumflex" unicode="&#x176;" horiz-adv-x="538" 
d="M323 301v-211q0 -56 73 -57v-33h-250v33q74 2 74 57v213l-174 316q-33 57 -61 58v33h214v-33q-42 -1 -42 -33q0 -11 7 -24l129 -251l125 251q7 13 7 24q0 32 -42 33v33h170v-33q-40 -1 -70 -58zM395 783q1 -2 1 -6q0 -12 -17 -12q-6 0 -10 1l-100 57l-101 -57
q-2 -1 -5 -1h-5q-17 0 -17 12q0 4 1 6l127 125z" />
    <glyph glyph-name="ycircumflex" unicode="&#x177;" horiz-adv-x="501" 
d="M10 -210q-77 5 -77 71q9 56 67 57q44 0 72 -22q11 -10 26 -10q17 0 35 15q58 43 91 137l-115 294q-52 110 -102 112v33h225v-33q-38 -2 -38 -43q0 -11 3 -25l84 -223l104 223q9 21 9 36q0 30 -41 32v33h164v-33q-39 -2 -90 -112l-123 -270q-123 -272 -291 -272h-3z
M351 550q1 -2 1 -6q0 -12 -17 -12q-6 0 -10 1l-100 57l-101 -57q-2 -1 -5 -1h-5q-17 0 -17 12q0 4 1 6l127 125z" />
    <glyph glyph-name="Ydieresis" unicode="&#x178;" horiz-adv-x="538" 
d="M323 301v-211q0 -56 73 -57v-33h-250v33q74 2 74 57v213l-174 316q-33 57 -61 58v33h214v-33q-42 -1 -42 -33q0 -11 7 -24l129 -251l125 251q7 13 7 24q0 32 -42 33v33h170v-33q-40 -1 -70 -58zM247 821q0 -46 -48 -46q-49 0 -49 46q0 48 49 48q48 0 48 -48zM389 821
q0 -46 -48 -46q-49 0 -49 46q0 48 49 48q48 0 48 -48z" />
    <glyph glyph-name="Zacute" unicode="&#x179;" horiz-adv-x="527" 
d="M129 54h222q111 0 111 178h45v-232h-487v46l379 614h-195q-134 0 -135 -130h-46v184h482v-54zM216 757q27 100 44 125l2 3q18 21 42 21q18 0 34 -12q22 -16 22 -43q0 -18 -11 -32q-19 -21 -111 -77z" />
    <glyph glyph-name="zacute" unicode="&#x17a;" horiz-adv-x="437" 
d="M392 435l-234 -394h136q43 10 53 116h46v-157h-349v55l226 381h-121q-44 -17 -54 -116h-45v157h342v-42zM171 524q27 100 44 125l2 3q18 21 42 21q18 0 34 -12q22 -16 22 -43q0 -18 -11 -32q-19 -21 -111 -77z" />
    <glyph glyph-name="Zdotaccent" unicode="&#x17b;" horiz-adv-x="527" 
d="M129 54h222q111 0 111 178h45v-232h-487v46l379 614h-195q-134 0 -135 -130h-46v184h482v-54zM322 831q0 -56 -58 -56q-59 0 -59 56q0 57 59 57q58 0 58 -57z" />
    <glyph glyph-name="zdotaccent" unicode="&#x17c;" horiz-adv-x="437" 
d="M392 435l-234 -394h136q43 10 53 116h46v-157h-349v55l226 381h-121q-44 -17 -54 -116h-45v157h342v-42zM277 598q0 -56 -58 -56q-59 0 -59 56q0 57 59 57q58 0 58 -57z" />
    <glyph glyph-name="Zcaron" unicode="&#x17d;" horiz-adv-x="527" 
d="M129 54h222q111 0 111 178h45v-232h-487v46l379 614h-195q-134 0 -135 -130h-46v184h482v-54zM264 765l-127 125q-1 2 -1 6q0 12 17 12h5q3 0 5 -1l101 -57l100 57q4 1 10 1q17 0 17 -12q0 -4 -1 -6z" />
    <glyph glyph-name="zcaron" unicode="&#x17e;" horiz-adv-x="437" 
d="M392 435l-224 -384h136q43 10 43 106h46v-157h-349v55l216 371h-121q-44 -17 -44 -106h-45v157h342v-42zM219 532l-127 125q-1 2 -1 6q0 12 17 12h5q3 0 5 -1l101 -57l100 57q4 1 10 1q17 0 17 -12q0 -4 -1 -6z" />
    <glyph glyph-name="longs" unicode="&#x17f;" horiz-adv-x="361" 
d="M287 743q-72 0 -72 -115v-538q0 -55 87 -57v-33h-250v33q60 2 60 57v347h-90v40h90v119q0 182 155 196q125 0 143 -103q0 -64 -57 -66q-57 3 -58 51q0 20 7 31q11 19 11 25q0 13 -26 13z" />
    <glyph glyph-name="florin" unicode="&#x192;" horiz-adv-x="361" 
d="M220 596q33 183 190 196q125 0 125 -103q-12 -65 -70 -66q-48 2 -48 41v10q5 20 13 31q14 18 15 25v2q0 11 -24 11q-73 0 -92 -115l-28 -151h150l-9 -40h-150l-80 -451q-33 -183 -190 -196q-125 0 -125 102q12 66 70 67q49 -3 49 -41v-5q0 -3 -1 -5q-3 -21 -13 -31
q-14 -20 -15 -25v-2q0 -12 24 -12q72 0 93 115l85 484h-90l9 40h90z" />
    <glyph glyph-name="Aringacute" unicode="&#x1fa;" horiz-adv-x="627" 
d="M190 222h207l-103 248zM281 603q0 -24 29 -24t29 24q0 9 -8 17q-10 8 -21 8t-21 -8q-8 -8 -8 -17zM344 569h1l228 -479q33 -63 64 -63v-27h-256v27q74 0 74 46q0 12 -6 30l-31 76h-249l-35 -76q-6 -16 -6 -30q0 -46 69 -46v-27h-207v27q31 0 64 63l225 477q-2 1 -6 5
q-15 12 -15 31t15 31q14 13 37 13t37 -13q15 -12 15 -31t-15 -31zM282 657q15 50 26 63l1 2q10 10 25 10q9 0 21 -5q13 -11 13 -22q0 -10 -7 -17q-11 -11 -67 -39z" />
    <glyph glyph-name="aringacute" unicode="&#x1fb;" horiz-adv-x="500" 
d="M302 239q-56 -10 -116 -27q-56 -17 -56 -69q3 -103 100 -103q41 0 72 26v173zM222 496q0 -25 29 -25q30 0 30 25q0 10 -9 17q-10 8 -21 8t-21 -8q-8 -8 -8 -17zM262 453q133 -13 138 -137v-248q0 -20 16 -20q10 0 25 7l25 -19q-32 -37 -77 -38q-44 0 -72 28
q-52 -28 -116 -28q-65 0 -109 31q-45 31 -53 105q0 85 86 111q87 27 180 41v75q-8 56 -52 56q-43 0 -51 -32q-8 -33 -32 -53q-17 -14 -35 -14q-52 1 -52 53q1 39 50 61q47 22 96 22h5q-13 4 -19 10q-15 14 -15 32t15 31q13 13 36 13q22 0 38 -13q15 -13 15 -31t-15 -32
q-13 -10 -27 -11zM223 550q17 53 26 63l1 1q10 11 26 11q11 0 20 -6q14 -8 14 -22q0 -9 -7 -16q-9 -9 -67 -39z" />
    <glyph glyph-name="AEacute" unicode="&#x1fc;" horiz-adv-x="853" 
d="M275 697v13h517v-188h-46q0 134 -139 134h-155v-262h163q55 0 56 54h39v-157h-39q-1 49 -56 49h-163v-286h191q135 0 135 134h46v-188h-549v33q74 2 74 57v133h-180l-35 -95q-6 -21 -6 -37q0 -56 69 -58v-33h-207v33q31 1 64 80zM349 276v380h-18l-141 -380h159zM359 757
q27 100 44 125l2 3q18 21 42 21q18 0 34 -12q22 -16 22 -43q0 -18 -11 -32q-19 -21 -111 -77z" />
    <glyph glyph-name="aeacute" unicode="&#x1fd;" horiz-adv-x="787" 
d="M651 311q-4 124 -86 126q-85 0 -106 -126h192zM389 70q-76 -72 -192 -72q-149 14 -151 128q0 127 126 146q127 21 162 62v57q-7 61 -56 61q-47 0 -55 -35t-35 -58q-16 -15 -38 -15q-56 2 -56 57q1 43 54 67t104 24q107 -2 151 -53q56 54 150 54q92 0 148 -62
q55 -62 55 -171h-309q0 -102 35 -148q43 -55 110 -57q48 0 86 44q22 23 34 51l29 -21q-16 -37 -43 -67q-52 -63 -145 -63q-109 2 -164 71zM365 107q-35 65 -35 146q0 16 1 24v2q-30 -27 -108 -49t-78 -99q4 -88 84 -88q69 0 136 64zM353 524q27 100 44 125l2 3q18 21 42 21
q18 0 34 -12q22 -16 22 -43q0 -18 -11 -32q-19 -21 -111 -77z" />
    <glyph glyph-name="Oslashacute" unicode="&#x1fe;" horiz-adv-x="742" 
d="M277 69q43 -31 100 -31q94 0 146 82q53 83 53 232q-1 148 -60 232q-10 14 -16 20zM464 638q-43 30 -99 30q-94 0 -146 -82q-53 -83 -53 -234q1 -145 60 -229q3 -3 4 -5l4 -5q4 -6 7 -10zM533 682q46 -23 82 -65q80 -100 80 -268q0 -160 -81 -259q-80 -98 -243 -98
q-68 0 -119 16l-21 -51h-48l-2 1l28 67q-46 23 -82 65q-81 99 -81 259q0 168 80 268q81 98 245 98q68 0 119 -16l21 51h50zM323 757q27 100 44 125l2 3q18 21 42 21q18 0 34 -12q22 -16 22 -43q0 -18 -11 -32q-19 -21 -111 -77z" />
    <glyph glyph-name="oslashacute" unicode="&#x1ff;" horiz-adv-x="569" 
d="M162 17q-118 52 -118 227q0 250 241 250q32 0 55 -4l48 126h50l-52 -137q139 -45 139 -235q0 -250 -240 -250q-42 0 -79 8l-49 -130h-49l-1 1zM226 56q26 -14 61 -14q133 0 133 198v5q-1 128 -57 174zM321 440q-18 5 -38 5q-134 0 -134 -198v-6q2 -103 39 -153zM237 524
q27 100 44 125l2 3q18 21 42 21q18 0 34 -12q22 -16 22 -43q0 -18 -11 -32q-19 -21 -111 -77z" />
    <glyph glyph-name="Scommaaccent" unicode="&#x218;" horiz-adv-x="557" 
d="M137 408q-70 52 -76 131q0 73 59 126q58 52 167 52q108 0 176 -62v-132h-34q-20 82 -54 113q-35 31 -83 31q-62 0 -90 -31q-29 -32 -29 -77q3 -50 107 -106q99 -53 153 -94q81 -64 88 -166q0 -88 -62 -144q-64 -56 -189 -56q-146 0 -221 83v176h50q19 -135 61 -173
q41 -38 103 -38q74 0 109 31q33 29 35 98q-5 84 -115 145q-108 59 -155 93zM277 -147q-17 0 -29 13q-16 13 -16 34t16 36q14 14 36 14q23 0 37 -14q15 -15 15 -36v-3q0 -44 -65 -111l-16 18q17 29 22 49z" />
    <glyph glyph-name="scommaaccent" unicode="&#x219;" horiz-adv-x="452" 
d="M377 334h-44q-20 74 -41 92q-27 18 -68 18q-67 -7 -72 -60q0 -43 129 -84q128 -47 132 -140q0 -162 -197 -162q-116 0 -164 48v124h46q19 -68 35 -95q14 -24 79 -32q103 4 105 83q0 39 -34 67q-34 29 -102 45q-133 34 -137 113q0 63 51 102q50 39 126 39q125 -5 156 -52
v-106zM221 -147q-17 0 -29 13q-16 13 -16 34t16 36q14 14 36 14q23 0 37 -14q15 -15 15 -36v-3q0 -44 -65 -111l-16 18q17 29 22 49z" />
    <glyph glyph-name="uni021A" unicode="&#x21a;" horiz-adv-x="562" 
d="M542 710v-188h-45q0 134 -90 134h-74v-566q0 -56 73 -57v-33h-250v33q73 1 73 57v566h-74q-90 0 -90 -134h-45v188h522zM274 -147q-17 0 -29 13q-16 13 -16 34t16 36q14 14 36 14q23 0 37 -14q15 -15 15 -36v-3q0 -44 -65 -111l-16 18q17 29 22 49z" />
    <glyph glyph-name="uni021B" unicode="&#x21b;" horiz-adv-x="302" 
d="M177 437v-327q0 -38 26 -46q36 2 58 22l26 -30q-43 -58 -105 -58q-107 2 -107 103v336h-75v40q95 21 117 135h60v-135h96v-40h-96zM137 -147q-17 0 -29 13q-16 13 -16 34t16 36q14 14 36 14q23 0 37 -14q15 -15 15 -36v-3q0 -44 -65 -111l-16 18q17 29 22 49z" />
    <glyph glyph-name="uni0232" unicode="&#x232;" horiz-adv-x="538" 
d="M323 301v-211q0 -56 73 -57v-33h-250v33q74 2 74 57v213l-174 316q-33 57 -61 58v33h214v-33q-42 -1 -42 -33q0 -11 7 -24l129 -251l125 251q7 13 7 24q0 32 -42 33v33h170v-33q-40 -1 -70 -58zM134 783v48h272v-48h-272z" />
    <glyph glyph-name="uni0233" unicode="&#x233;" horiz-adv-x="501" 
d="M10 -210q-77 5 -77 71q9 56 67 57q44 0 72 -22q11 -10 26 -10q17 0 35 15q58 43 91 137l-115 294q-52 110 -102 112v33h225v-33q-38 -2 -38 -43q0 -11 3 -25l84 -223l104 223q9 21 9 36q0 30 -41 32v33h164v-33q-39 -2 -90 -112l-123 -270q-123 -272 -291 -272h-3z
M89 550v48h272v-48h-272z" />
    <glyph glyph-name="uni0237" unicode="&#x237;" horiz-adv-x="248" 
d="M197 -24q0 -89 -55 -137q-55 -49 -122 -49v41q74 27 74 143v415q-3 47 -73 48v40q21 0 46 1q17 0 42 1q41 3 88 9v-512z" />
    <glyph glyph-name="uni02BB" unicode="&#x2bb;" horiz-adv-x="153" 
d="M84 586q17 0 29 -13q15 -13 15 -34t-15 -36q-14 -14 -36 -14q-23 0 -37 14q-16 15 -16 36v3q0 64 65 131l17 -18q-17 -30 -22 -69z" />
    <glyph glyph-name="afii57929" unicode="&#x2bc;" horiz-adv-x="153" 
d="M69 576q-17 0 -29 12q-16 15 -16 35q0 22 16 35q14 15 36 15q24 0 37 -15q15 -13 15 -35v-3q0 -64 -65 -131l-16 18q17 30 22 69z" />
    <glyph glyph-name="circumflex" unicode="&#x2c6;" horiz-adv-x="372" 
d="M312 550q1 -2 1 -6q0 -12 -17 -12q-6 0 -10 1l-100 57l-101 -57q-2 -1 -5 -1h-5q-17 0 -17 12q0 4 1 6l127 125z" />
    <glyph glyph-name="caron" unicode="&#x2c7;" horiz-adv-x="372" 
d="M186 532l-127 125q-1 2 -1 6q0 12 17 12h5q3 0 5 -1l101 -57l100 57q4 1 10 1q17 0 17 -12q0 -4 -1 -6z" />
    <glyph glyph-name="uni02C9" unicode="&#x2c9;" horiz-adv-x="301" 
d="M15 550v48h272v-48h-272z" />
    <glyph glyph-name="uni02CA" unicode="&#x2ca;" horiz-adv-x="192" 
d="M24 524q27 100 44 125l2 3q18 21 42 21q18 0 34 -12q22 -16 22 -43q0 -18 -11 -32q-19 -21 -111 -77z" />
    <glyph glyph-name="uni02CB" unicode="&#x2cb;" horiz-adv-x="192" 
d="M146 509q-92 56 -111 77q-11 14 -11 32q0 27 22 43q17 12 34 12q24 0 42 -21l2 -3q19 -23 44 -125z" />
    <glyph glyph-name="uni02CD" unicode="&#x2cd;" horiz-adv-x="321" 
d="M24 -120v48h272v-48h-272z" />
    <glyph glyph-name="breve" unicode="&#x2d8;" horiz-adv-x="334" 
d="M51 642q3 6 12 6q7 0 11 -4q2 -54 93 -54q93 0 93 54q4 4 11 4q9 0 12 -6q-1 -115 -116 -115q-116 0 -116 115z" />
    <glyph glyph-name="dotaccent" unicode="&#x2d9;" horiz-adv-x="203" 
d="M160 598q0 -56 -58 -56q-59 0 -59 56q0 57 59 57q58 0 58 -57z" />
    <glyph glyph-name="ring" unicode="&#x2da;" horiz-adv-x="222" 
d="M62 584q0 -48 48 -48q49 0 49 48q0 20 -14 34q-15 15 -35 15t-34 -15q-14 -14 -14 -34zM24 584q0 37 25 62t61 25q37 0 62 -25q26 -26 26 -62t-26 -62q-25 -24 -62 -24q-35 0 -61 24q-25 25 -25 62z" />
    <glyph glyph-name="ogonek" unicode="&#x2db;" horiz-adv-x="229" 
d="M157 0q-74 -65 -74 -113q0 -51 49 -51q38 0 58 32l14 -8q-36 -64 -102 -64q-78 0 -78 61q0 38 30 77q24 34 79 66h24z" />
    <glyph glyph-name="tilde" unicode="&#x2dc;" horiz-adv-x="306" 
d="M95 586q-26 0 -30 -19q-7 -25 -18 -25q-4 0 -9 5q5 63 50 91q11 7 35 7q19 0 48 -29t40 -29q25 0 29 19q7 25 18 25q5 0 10 -5q-5 -63 -51 -91q-10 -7 -33 -7q-20 0 -49 29t-40 29z" />
    <glyph glyph-name="hungarumlaut" unicode="&#x2dd;" horiz-adv-x="395" 
d="M51 524q27 100 44 125l2 3q18 21 42 21q18 0 34 -12q22 -16 22 -43q0 -18 -11 -32q-19 -21 -111 -77zM198 524q25 99 43 125l3 3q15 21 42 21q18 0 33 -12q22 -15 22 -43q0 -19 -10 -32q-22 -22 -112 -77z" />
    <glyph glyph-name="uni02F7" unicode="&#x2f7;" horiz-adv-x="279" 
d="M82 -111q-26 0 -30 -19q-8 -26 -18 -26q-4 0 -10 6q5 63 51 91q10 7 34 7q20 0 49 -29t40 -29q25 0 29 19q7 25 18 25q5 0 10 -5q-5 -63 -51 -91q-10 -7 -33 -7q-20 0 -49 29t-40 29z" />
    <glyph glyph-name="gravecomb" unicode="&#x300;" horiz-adv-x="192" 
d="M146 509q-92 56 -111 77q-11 14 -11 32q0 27 22 43q17 12 34 12q24 0 42 -21l2 -3q19 -23 44 -125z" />
    <glyph glyph-name="acutecomb" unicode="&#x301;" horiz-adv-x="192" 
d="M24 524q27 100 44 125l2 3q18 21 42 21q18 0 34 -12q22 -16 22 -43q0 -18 -11 -32q-19 -21 -111 -77z" />
    <glyph glyph-name="uni0302" unicode="&#x302;" horiz-adv-x="304" 
d="M279 550q1 -2 1 -6q0 -12 -17 -12h-5q-3 0 -6 1l-100 57l-100 -57q-4 -1 -10 -1q-18 0 -18 12q0 4 1 6l127 125z" />
    <glyph glyph-name="tildecomb" unicode="&#x303;" horiz-adv-x="279" 
d="M82 586q-26 0 -30 -19q-7 -25 -18 -25q-3 0 -10 5q5 63 51 91q10 7 34 7q20 0 49 -29t40 -29q25 0 29 19q7 25 18 25q5 0 10 -5q-5 -63 -51 -91q-10 -7 -33 -7q-20 0 -49 29t-40 29z" />
    <glyph glyph-name="uni0304" unicode="&#x304;" horiz-adv-x="321" 
d="M24 599v48h272v-48h-272z" />
    <glyph glyph-name="uni0305" unicode="&#x305;" horiz-adv-x="327" 
d="M24 -139v50h278v-50h-278z" />
    <glyph glyph-name="uni0306" unicode="&#x306;" horiz-adv-x="280" 
d="M24 642q3 6 12 6q7 0 11 -4q2 -54 94 -54t92 54q4 4 11 4q9 0 12 -6q-1 -115 -115 -115q-117 0 -117 115z" />
    <glyph glyph-name="uni0307" unicode="&#x307;" horiz-adv-x="146" 
d="M122 588q0 -46 -49 -46t-49 46q0 48 49 48t49 -48z" />
    <glyph glyph-name="uni0308" unicode="&#x308;" horiz-adv-x="289" 
d="M122 588q0 -46 -49 -46t-49 46q0 48 49 48t49 -48zM264 588q0 -46 -49 -46q-48 0 -48 46q0 48 48 48q49 0 49 -48z" />
    <glyph glyph-name="uni0310" unicode="&#x310;" horiz-adv-x="280" 
d="M24 642q3 6 12 6q7 0 11 -4q2 -54 94 -54t92 54q4 4 11 4q9 0 12 -6q-1 -115 -115 -115q-117 0 -117 115zM189 695q0 -47 -48 -47q-49 0 -49 47q0 48 49 48q48 0 48 -48z" />
    <glyph glyph-name="uni0315" unicode="&#x315;" horiz-adv-x="153" 
d="M69 621q-17 0 -29 13q-16 13 -16 34q0 20 16 35q14 15 36 15q24 0 37 -15q15 -15 15 -35v-3q0 -64 -65 -131l-16 18q17 30 22 69z" />
    <glyph glyph-name="dotbelowcomb" unicode="&#x323;" horiz-adv-x="147" 
d="M123 -110q0 -20 -14 -34t-36 -14q-20 0 -34 14q-15 14 -15 34t15 33q14 14 34 14q22 0 36 -14t14 -33z" />
    <glyph glyph-name="uni0324" unicode="&#x324;" horiz-adv-x="289" 
d="M122 -111q0 -47 -49 -47t-49 47q0 48 49 48t49 -48zM264 -111q0 -47 -49 -47q-48 0 -48 47q0 48 48 48q49 0 49 -48z" />
    <glyph glyph-name="uni0325" unicode="&#x325;" horiz-adv-x="222" 
d="M62 -124q0 -48 48 -48q49 0 49 48q0 20 -14 34q-15 15 -35 15t-34 -15q-14 -14 -14 -34zM24 -124q0 37 25 62t61 25t62 -26q26 -24 26 -61q0 -36 -26 -62q-25 -24 -62 -24q-35 0 -61 24q-25 25 -25 62z" />
    <glyph glyph-name="uni0326" unicode="&#x326;" horiz-adv-x="153" 
d="M69 -147q-17 0 -29 13q-16 13 -16 34t16 36q14 14 36 14q23 0 37 -14q15 -15 15 -36v-3q0 -44 -65 -111l-16 18q17 29 22 49z" />
    <glyph glyph-name="tonos" unicode="&#x384;" horiz-adv-x="163" 
d="M27 545v80q0 44 4 56q9 33 46 36h4q8 0 18 -3q34 -12 37 -47l-1 -12q0 -4 -1 -8l-1 -4q-9 -27 -79 -106z" />
    <glyph glyph-name="dieresistonos" unicode="&#x385;" horiz-adv-x="409" 
d="M140 588q0 -46 -48 -46q-49 0 -49 46q0 48 49 48q48 0 48 -48zM366 588q0 -46 -49 -46q-48 0 -48 46q0 48 48 48q49 0 49 -48zM161 545v80q0 44 4 56q9 32 46 36h4q9 0 18 -3q35 -13 38 -47v-4q0 -8 -3 -16l-1 -4q-9 -27 -79 -106z" />
    <glyph glyph-name="Alphatonos" unicode="&#x386;" horiz-adv-x="627" 
d="M76 545v80q0 44 4 56q9 33 46 36h3q9 0 18 -3q35 -12 38 -47l-1 -12q0 -4 -1 -8l-1 -4q-11 -27 -79 -106zM190 276h207l-103 310zM169 223l-35 -95q-6 -21 -6 -37q0 -56 69 -58v-33h-207v33q31 1 64 80l226 597h65l228 -597q33 -79 64 -80v-33h-256v33q74 0 74 58
q0 15 -6 37l-31 95h-249z" />
    <glyph glyph-name="anoteleia" unicode="&#x387;" horiz-adv-x="248" 
d="M154 524q0 -20 -13 -33q-16 -14 -36 -14q-21 0 -35 14t-14 33q0 20 14 34t35 14q20 0 36 -14q13 -13 13 -34z" />
    <glyph glyph-name="Epsilontonos" unicode="&#x388;" horiz-adv-x="727" 
d="M12 545v80q0 44 4 56q12 33 46 36h4q9 0 18 -3q35 -13 38 -47v-4q0 -8 -3 -16l-1 -4q-9 -26 -78 -106zM324 340v-245q0 -41 46 -41h144q135 0 135 134h46v-188h-548v33q73 1 73 57v530q0 56 -73 57v33h516v-188h-45q0 134 -139 134h-155v-262h163q55 0 56 54h39v-157h-39
q-1 49 -56 49h-163z" />
    <glyph glyph-name="Etatonos" unicode="&#x389;" horiz-adv-x="827" 
d="M12 545v80q0 44 4 56q12 33 46 36h4q9 0 18 -3q35 -13 38 -47v-4q0 -8 -3 -16l-1 -4q-9 -26 -78 -106zM323 337v-247q0 -55 78 -57v-33h-254v33q73 1 73 57v530q0 56 -73 57v33h254v-33q-78 -1 -78 -57v-229h318v229q0 56 -73 57v33h249v-33q-78 -1 -78 -57v-530
q0 -55 78 -57v-33h-249v33q73 1 73 57v247h-318z" />
    <glyph glyph-name="Iotatonos" unicode="&#x38a;" horiz-adv-x="430" 
d="M17 545v80q0 44 4 56q9 32 46 36h4q9 0 18 -3q34 -12 37 -47l-1 -12q0 -4 -1 -8l-1 -4q-9 -27 -79 -106zM328 90q0 -55 78 -57v-33h-254v33q73 1 73 57v530q0 56 -73 57v33h254v-33q-78 -1 -78 -57v-530z" />
    <glyph glyph-name="Omicrontonos" unicode="&#x38c;" horiz-adv-x="762" 
d="M12 545v80q0 44 4 56q12 33 46 36h4q9 0 18 -3q35 -13 38 -47v-4q0 -8 -3 -16l-1 -4q-9 -26 -78 -106zM723 349q0 -160 -81 -259q-80 -98 -240 -98q-166 0 -247 98q-81 99 -81 259q0 168 80 268q81 98 239 98q169 0 250 -98q80 -100 80 -268zM402 36q97 0 149 82
q53 83 53 231q-3 150 -61 233q-58 84 -150 84q-94 0 -147 -83q-53 -82 -53 -234q3 -145 60 -229q59 -84 149 -84z" />
    <glyph glyph-name="Upsilontonos" unicode="&#x38e;" horiz-adv-x="714" 
d="M22 545v80q0 44 4 56q9 32 46 36h4q8 0 18 -3q34 -12 37 -47l-1 -12q0 -4 -1 -8l-1 -4q-9 -27 -79 -106zM494 301v-211q0 -56 73 -57v-33h-249v33q73 1 73 57v213l-173 316q-34 57 -61 58v33h214v-33q-42 -1 -42 -33q0 -10 6 -24l130 -251l125 251q6 14 6 24q0 32 -42 33
v33h170v-33q-39 -2 -69 -58z" />
    <glyph glyph-name="Omegatonos" unicode="&#x38f;" horiz-adv-x="826" 
d="M17 545v80q0 44 4 56q9 32 46 36h4q9 0 18 -3q34 -12 37 -47l-1 -12q0 -4 -1 -8l-1 -4q-9 -27 -79 -106zM485 51q193 120 193 314q0 23 -3 47q-26 227 -230 230h-4q-200 0 -223 -224l-2 -43q0 -196 192 -321v-54h-268l-49 139h46q49 -85 135 -85h76q-252 111 -252 355
l2 45q24 278 349 278q324 0 348 -278l2 -45q0 -244 -251 -355h74q87 0 135 85h46l-49 -139h-267v51z" />
    <glyph glyph-name="iotadieresistonos" unicode="&#x390;" horiz-adv-x="312" 
d="M110 388q-5 48 -78 49v40l93 2q41 3 88 9v-399q0 -31 18 -31q17 0 46 23v-34q-45 -48 -105 -48q-62 0 -62 90v299zM94 588q0 -46 -48 -46q-49 0 -49 46q0 48 49 48q48 0 48 -48zM320 588q0 -46 -49 -46q-48 0 -48 46q0 48 48 48q49 0 49 -48zM115 545v80q0 44 4 56
q9 32 46 36h4q9 0 18 -3q35 -13 38 -47v-4q0 -8 -3 -16l-1 -4q-9 -27 -79 -106z" />
    <glyph glyph-name="Alpha" unicode="&#x391;" horiz-adv-x="627" 
d="M190 276h207l-103 310zM169 223l-35 -95q-6 -21 -6 -37q0 -56 69 -58v-33h-207v33q31 1 64 80l226 597h65l228 -597q33 -79 64 -80v-33h-256v33q74 0 74 58q0 15 -6 37l-31 95h-249z" />
    <glyph glyph-name="Beta" unicode="&#x392;" horiz-adv-x="649" 
d="M336 402q110 9 110 128q0 135 -157 139h-64v-267h111zM354 710q199 -1 199 -172q0 -105 -109 -156q162 -25 166 -182q0 -200 -235 -200h-326v33q73 1 73 57v530q0 56 -73 57v33h305zM225 349v-246q0 -60 82 -60h22q166 1 166 151q0 151 -136 155h-134z" />
    <glyph glyph-name="Gamma" unicode="&#x393;" horiz-adv-x="515" 
d="M211 115q0 -80 78 -82v-33h-250v33q69 2 69 57v530q0 56 -69 57v33h476v-188h-46q0 134 -90 134h-168v-541z" />
    <glyph glyph-name="uni0394" unicode="&#x394;" 
d="M-15 0l308 713l309 -713h-617zM520 62l-213 513l-213 -513h426z" />
    <glyph glyph-name="Epsilon" unicode="&#x395;" horiz-adv-x="607" 
d="M201 340v-245q0 -41 47 -41h144q135 0 135 134h46v-188h-549v33q74 2 74 57v530q0 55 -74 57v33h517v-188h-46q0 134 -139 134h-155v-262h163q55 0 56 54h39v-157h-39q-1 49 -56 49h-163z" />
    <glyph glyph-name="Zeta" unicode="&#x396;" horiz-adv-x="527" 
d="M129 54h222q111 0 111 178h45v-232h-487v46l379 614h-195q-134 0 -135 -130h-46v184h482v-54z" />
    <glyph glyph-name="Eta" unicode="&#x397;" horiz-adv-x="700" 
d="M191 337v-247q0 -55 78 -57v-33h-254v33q73 1 73 57v530q0 56 -73 57v33h254v-33q-78 -1 -78 -57v-229h318v229q0 56 -73 57v33h249v-33q-78 -1 -78 -57v-530q0 -55 78 -57v-33h-249v33q73 1 73 57v247h-318z" />
    <glyph glyph-name="Theta" unicode="&#x398;" horiz-adv-x="742" 
d="M695 349q0 -160 -81 -259q-80 -98 -249 -98q-157 0 -238 98q-81 99 -81 259q0 168 80 268q81 98 239 98q169 0 250 -98q80 -100 80 -268zM365 39q106 0 158 82q53 83 53 231q-1 148 -60 232q-58 85 -151 85t-146 -83q-53 -82 -53 -234q1 -145 60 -229t139 -84zM416 378
q57 0 57 54h33v-157h-33q0 49 -57 49h-90q-56 0 -57 -49h-33v157h33q2 -54 57 -54h90z" />
    <glyph glyph-name="Iota" unicode="&#x399;" horiz-adv-x="303" 
d="M201 90q0 -55 77 -57v-33h-254v33q74 2 74 57v530q0 55 -74 57v33h254v-33q-77 -2 -77 -57v-530z" />
    <glyph glyph-name="Kappa" unicode="&#x39a;" horiz-adv-x="629" 
d="M215 305l245 324q4 8 4 16q0 25 -49 32v31h204v-32q-59 -11 -100 -65l-163 -210l208 -313q32 -45 84 -56v-32h-148l-214 304l-71 -102v-87q0 -80 78 -82v-33h-254v33q73 1 73 57v530q0 56 -73 57v33h254v-33q-78 -1 -78 -57v-315z" />
    <glyph glyph-name="Lambda" unicode="&#x39b;" horiz-adv-x="680" 
d="M285 710h65l228 -598q33 -78 82 -79v-33h-279v33q77 2 77 43q0 11 -4 22l-155 493l-155 -493q-3 -5 -3 -11q-1 -4 -1 -11q0 -41 77 -43v-33h-197v33q32 2 63 79z" />
    <glyph glyph-name="Mu" unicode="&#x39c;" horiz-adv-x="855" 
d="M154 710l285 -578l253 578h134v-33q-49 -1 -49 -106v-481q0 -56 49 -57v-33h-205v33q47 2 53 50v402l-222 -485h-68l-240 481v-391q0 -55 48 -57v-33h-163v33q49 1 49 57v481q0 105 -49 106v33h125z" />
    <glyph glyph-name="Nu" unicode="&#x39d;" horiz-adv-x="688" 
d="M144 491v-401q0 -55 102 -57v-33h-217v33q49 1 49 57v481q0 105 -49 106v33h92l419 -511v421q0 55 -98 57v33h217v-33q-54 -1 -54 -57v-620h-40z" />
    <glyph glyph-name="Xi" unicode="&#x39e;" horiz-adv-x="548" 
d="M504 710l24 -188h-45q-25 120 -115 120h-188q-91 0 -115 -120h-45l24 188h460zM368 383q56 0 57 54h33v-166h-33q-1 48 -57 48h-188q-55 0 -57 -48h-33v166h33q2 -54 57 -54h188zM44 0l-24 188h45q24 -120 115 -120h188q90 0 115 120h45l-24 -188h-460z" />
    <glyph glyph-name="Omicron" unicode="&#x39f;" horiz-adv-x="742" 
d="M695 351q0 -161 -81 -259q-79 -99 -239 -99q-167 0 -248 99q-81 98 -81 259q0 167 80 267q81 99 239 99q169 0 250 -99q80 -100 80 -267zM375 37q96 0 148 82q53 83 53 232q-3 148 -60 232q-58 84 -151 84q-95 0 -147 -82q-53 -83 -53 -234q3 -146 61 -229
q58 -85 149 -85z" />
    <glyph glyph-name="Pi" unicode="&#x3a0;" horiz-adv-x="732" 
d="M196 654v-564q0 -55 77 -57v-33h-253v33q73 1 73 57v530q0 56 -73 57v33h693v-33q-78 -1 -78 -57v-530q0 -55 78 -57v-33h-254v33q73 1 73 57v564h-336z" />
    <glyph glyph-name="Rho" unicode="&#x3a1;" horiz-adv-x="573" 
d="M206 316v-177q0 -104 77 -106v-33h-254v33q74 2 74 57v530q0 55 -74 57v33h238q292 -1 292 -197q-1 -196 -292 -197h-61zM206 667v-266q0 -43 49 -43h20q166 6 166 155q0 150 -166 154h-69z" />
    <glyph glyph-name="Sigma" unicode="&#x3a3;" horiz-adv-x="587" 
d="M187 54h190q135 0 135 134h46v-188h-548v33q23 1 73 57l146 265l-146 265q-50 56 -73 57v33h516v-188h-46q0 134 -139 134h-154l146 -301z" />
    <glyph glyph-name="Tau" unicode="&#x3a4;" horiz-adv-x="562" 
d="M542 710v-188h-45q0 134 -90 134h-74v-566q0 -56 73 -57v-33h-250v33q73 1 73 57v566h-74q-90 0 -90 -134h-45v188h522z" />
    <glyph glyph-name="Upsilon" unicode="&#x3a5;" horiz-adv-x="538" 
d="M323 301v-211q0 -56 73 -57v-33h-250v33q74 2 74 57v213l-174 316q-33 57 -61 58v33h214v-33q-42 -1 -42 -33q0 -11 7 -24l129 -251l125 251q7 13 7 24q0 32 -42 33v33h170v-33q-40 -1 -70 -58z" />
    <glyph glyph-name="Phi" unicode="&#x3a6;" horiz-adv-x="821" 
d="M462 90q0 -55 78 -57v-33h-254v33q73 1 73 57v61q-349 0 -349 211q0 206 349 207v51q0 56 -73 57v33h254v-33q-78 -1 -78 -57v-51q349 -1 349 -207q0 -211 -349 -211v-61zM359 527q-232 -6 -232 -165q0 -165 232 -169v334zM462 193q232 4 232 169q0 159 -232 165v-334z
" />
    <glyph glyph-name="Chi" unicode="&#x3a7;" horiz-adv-x="610" 
d="M339 375l193 -284q43 -57 88 -58v-33h-241v33q42 2 42 33q0 11 -6 24l-121 190l-125 -190q-4 -8 -4 -19q0 -36 51 -38v-33h-226v33q71 2 114 58l163 243l-193 285q-37 56 -84 58v33h237v-33q-42 -1 -42 -33q0 -10 6 -24l120 -190l125 190q5 12 5 21q0 35 -39 36v33h218
v-33q-76 -2 -119 -58z" />
    <glyph glyph-name="Psi" unicode="&#x3a8;" horiz-adv-x="917" 
d="M510 90q0 -56 73 -57v-33h-250v33q74 2 74 57v61q-255 3 -294 266t-133 270v23h116q107 -2 138 -260q33 -258 173 -258v428q0 55 -74 57v33h254v-33q-77 -2 -77 -57v-428q140 0 170 258t141 260h116v-23q-94 -7 -133 -270t-294 -266v-61z" />
    <glyph glyph-name="uni03A9" unicode="&#x3a9;" horiz-adv-x="759" 
d="M418 51q193 120 193 314q0 23 -3 47q-26 227 -230 230h-3q-201 0 -224 -224l-2 -43q0 -196 192 -321v-54h-268l-49 139h46q49 -85 136 -85h75q-252 111 -252 355l2 45q24 278 349 278q323 0 349 -278q1 -10 1 -22v-23q0 -244 -251 -355h74q87 0 135 85h46l-48 -139h-268
v51z" />
    <glyph glyph-name="Iotadieresis" unicode="&#x3aa;" horiz-adv-x="303" 
d="M201 90q0 -55 77 -57v-33h-254v33q74 2 74 57v530q0 55 -74 57v33h254v-33q-77 -2 -77 -57v-530zM129 822q0 -47 -48 -47q-49 0 -49 47t49 47q48 0 48 -47zM271 822q0 -47 -48 -47q-49 0 -49 47t49 47q48 0 48 -47z" />
    <glyph glyph-name="Upsilondieresis" unicode="&#x3ab;" horiz-adv-x="538" 
d="M323 301v-211q0 -56 73 -57v-33h-250v33q74 2 74 57v213l-174 316q-33 57 -61 58v33h214v-33q-42 -1 -42 -33q0 -11 7 -24l129 -251l125 251q7 13 7 24q0 32 -42 33v33h170v-33q-40 -1 -70 -58zM247 822q0 -47 -49 -47t-49 47t49 47t49 -47zM389 822q0 -47 -49 -47
q-48 0 -48 47t48 47q49 0 49 -47z" />
    <glyph glyph-name="alphatonos" unicode="&#x3ac;" horiz-adv-x="623" 
d="M288 448q-139 0 -139 -198v-7q3 -198 143 -198q138 0 138 198v4q-3 201 -142 201zM445 52q-62 -56 -155 -56q-246 0 -246 250t246 250q106 0 167 -48l3 29h103l-48 -236q7 -178 49 -178q14 0 30 18v-34q-34 -48 -81 -48q-48 0 -68 53zM282 545v80q0 44 4 56q9 33 46 36h4
q8 0 18 -3q34 -12 37 -47l-1 -12q0 -4 -1 -8l-1 -4q-9 -27 -79 -106z" />
    <glyph glyph-name="epsilontonos" unicode="&#x3ad;" horiz-adv-x="429" 
d="M313 352q-1 85 -69 85q-34 0 -53 -25q-13 -16 -13 -51q2 -78 100 -82v-47q-143 -2 -143 -91q0 -93 107 -95q90 3 95 114h53v-116q-49 -44 -158 -47q-198 3 -198 155q0 88 84 113q-51 20 -51 95q0 52 37 83q44 39 115 39q96 0 146 -56v-74h-52zM175 545v80q0 44 4 56
q9 33 46 36h4q8 0 18 -3q34 -12 37 -47l-1 -12q0 -4 -1 -8l-1 -4q-9 -27 -79 -106z" />
    <glyph glyph-name="etatonos" unicode="&#x3ae;" horiz-adv-x="560" 
d="M205 90q0 -55 60 -57v-33h-223v33q60 2 60 57v298q-5 48 -78 49v40l93 2q41 3 88 9v-70q66 75 160 75q151 0 151 -160v-543h-103v538q0 102 -80 102q-68 0 -128 -77v-263zM234 545v80q0 44 4 56q9 33 46 36h4q8 0 18 -3q34 -12 37 -47l-1 -12q0 -4 -1 -8l-1 -4
q-9 -27 -79 -106z" />
    <glyph glyph-name="iotatonos" unicode="&#x3af;" horiz-adv-x="312" 
d="M110 388q-5 48 -78 49v40l93 2q41 3 88 9v-399q0 -31 18 -31q17 0 46 23v-34q-45 -48 -105 -48q-62 0 -62 90v299zM118 545v80q0 44 4 56q9 33 46 36h4q8 0 18 -3q34 -12 37 -47l-1 -12q0 -4 -1 -8l-1 -4q-9 -27 -79 -106z" />
    <glyph glyph-name="upsilondieresistonos" unicode="&#x3b0;" horiz-adv-x="559" 
d="M471 480q37 -46 43 -172q1 -5 1 -10v-11q0 -113 -63 -197q-67 -91 -195 -91q-160 0 -160 188v201q-5 48 -77 49v40l92 2q41 3 88 9v-301q0 -129 97 -129q86 2 122 85q17 39 17 76q0 48 -26 102q-45 95 -45 131q0 54 54 54q32 0 52 -26zM203 588q0 -46 -48 -46
q-49 0 -49 46q0 48 49 48q48 0 48 -48zM429 588q0 -46 -49 -46q-48 0 -48 46q0 48 48 48q49 0 49 -48zM224 545v80q0 44 4 56q9 32 46 36h4q9 0 18 -3q35 -13 38 -47v-4q0 -8 -3 -16l-1 -4q-9 -27 -79 -106z" />
    <glyph glyph-name="alpha" unicode="&#x3b1;" horiz-adv-x="623" 
d="M288 448q-139 0 -139 -198v-7q3 -198 143 -198q138 0 138 198v4q-3 201 -142 201zM445 52q-62 -56 -155 -56q-246 0 -246 250t246 250q106 0 167 -48l3 29h103l-48 -236q7 -178 49 -178q14 0 30 18v-34q-34 -48 -81 -48q-48 0 -68 53z" />
    <glyph glyph-name="beta" unicode="&#x3b2;" horiz-adv-x="512" 
d="M152 -210h-103v744q0 186 191 188q161 0 174 -141q0 -105 -105 -161q169 -43 169 -226q0 -192 -212 -197q-69 2 -114 25v-232zM152 62q53 -22 105 -24q120 3 120 140q0 201 -199 202v43q138 36 139 141q0 115 -76 115q-89 -12 -89 -148v-469z" />
    <glyph glyph-name="gamma" unicode="&#x3b3;" horiz-adv-x="501" 
d="M10 -210q-77 5 -77 71q9 56 67 57q44 0 72 -22q11 -10 26 -10q17 0 35 15q58 43 91 137l-115 294q-52 110 -102 112v33h225v-33q-38 -2 -38 -43q0 -11 3 -25l84 -223l104 223q9 21 9 36q0 30 -41 32v33h164v-33q-39 -2 -90 -112l-123 -270q-123 -272 -291 -272h-3z" />
    <glyph glyph-name="delta" unicode="&#x3b4;" horiz-adv-x="579" 
d="M175 113q35 -68 117 -68q138 0 138 198v4q-1 179 -114 198q-13 3 -28 3q-139 0 -139 -198v-7q2 -84 26 -130zM208 487q2 1 4 1l4 1q-96 47 -99 122q0 118 192 119q97 -3 150 -50q41 -38 41 -97q0 -18 -3 -36q-10 -31 -39 -31l-15 2q-34 13 -34 44q0 16 7 31q18 17 18 35
q-13 66 -126 66q-91 0 -91 -67v-4q0 -73 96 -123q18 -3 28 -7q194 -26 194 -247q0 -250 -245 -250q-169 0 -222 117q-24 54 -24 133q0 203 164 241z" />
    <glyph glyph-name="epsilon" unicode="&#x3b5;" horiz-adv-x="429" 
d="M313 352q-1 85 -69 85q-34 0 -53 -25q-13 -16 -13 -51q2 -78 100 -82v-47q-143 -2 -143 -91q0 -93 107 -95q90 3 95 114h53v-116q-49 -44 -158 -47q-198 3 -198 155q0 88 84 113q-51 20 -51 95q0 52 37 83q44 39 115 39q96 0 146 -56v-74h-52z" />
    <glyph glyph-name="zeta" unicode="&#x3b6;" horiz-adv-x="437" 
d="M420 657q-271 -229 -271 -423q1 -159 151 -192q149 -32 152 -123q0 -127 -168 -129q-142 4 -142 99q0 17 3 36q10 31 39 31l15 -2q34 -13 34 -45q0 -13 -6 -30q0 -53 73 -53q61 0 61 62q0 92 -159 128q-158 38 -158 220q0 224 301 420h-261v54h335z" />
    <glyph glyph-name="eta" unicode="&#x3b7;" horiz-adv-x="560" 
d="M205 90q0 -55 60 -57v-33h-223v33q60 2 60 57v298q-5 48 -78 49v40l93 2q41 3 88 9v-70q66 75 160 75q151 0 151 -160v-543h-103v538q0 102 -80 102q-68 0 -128 -77v-263z" />
    <glyph glyph-name="theta" unicode="&#x3b8;" horiz-adv-x="543" 
d="M504 355q0 -361 -235 -362q-230 0 -230 362q0 361 230 361q235 0 235 -361zM129 328q6 -291 140 -291q141 0 145 291h-285zM414 377q-4 295 -145 295q-134 0 -140 -295h285z" />
    <glyph glyph-name="iota" unicode="&#x3b9;" horiz-adv-x="312" 
d="M110 388q-5 48 -78 49v40l93 2q41 3 88 9v-399q0 -31 18 -31q17 0 46 23v-34q-45 -48 -105 -48q-62 0 -62 90v299z" />
    <glyph glyph-name="kappa" unicode="&#x3ba;" horiz-adv-x="604" 
d="M205 260q41 20 96 125q57 106 184 106q49 0 78 -29q17 -20 17 -47q-1 -54 -56 -54q-49 0 -49 43q0 24 27 37q9 5 9 6q-3 7 -22 7h-9q-28 -1 -84 -97t-91 -106q77 -14 136 -113q61 -99 129 -103v-35h-97q-92 0 -144 106t-98 106q-17 0 -26 -4v-118q0 -55 65 -57v-33h-228
v33q60 2 60 57v300q-5 48 -78 49v40l93 2q41 3 88 9v-230z" />
    <glyph glyph-name="lambda" unicode="&#x3bb;" horiz-adv-x="534" 
d="M454 145q51 -110 90 -112v-33h-164v33q40 1 40 32q0 13 -8 35l-104 233l-77 -202q-10 -33 -10 -56q0 -42 38 -42v-33h-225v33q50 0 102 112l121 309q-28 83 -81 127q-18 15 -31 15q-10 0 -18 -11q-16 -22 -54 -22h-3q-41 2 -50 57q4 63 67 67q143 -3 255 -282z" />
    <glyph glyph-name="uni03BC" unicode="&#x3bc;" horiz-adv-x="575" 
d="M385 388q-5 48 -78 49v40l92 2q41 3 89 9v-399q0 -31 18 -31q15 0 46 23v-34q-45 -48 -105 -48q-50 0 -60 58q-68 -74 -162 -74q-23 0 -48 5v-108q0 -55 65 -57v-33h-227v33q59 2 59 57v508q-5 48 -77 49v40l92 2q41 3 88 9v-355q6 -87 80 -87q68 0 128 78v264z" />
    <glyph glyph-name="nu" unicode="&#x3bd;" horiz-adv-x="495" 
d="M-22 477h225v-33q-38 -2 -38 -43l2 -25l84 -223l105 223q8 22 8 36q0 31 -40 32v33h164v-33q-39 -1 -91 -112l-154 -332h-33l-130 332q-52 110 -102 112v33z" />
    <glyph glyph-name="xi" unicode="&#x3be;" horiz-adv-x="457" 
d="M421 432h-100q-167 -8 -167 -159q1 -130 156 -190q154 -58 157 -149q0 -143 -193 -144q-142 4 -142 99q0 17 3 36q10 31 39 31l15 -2q34 -13 34 -45q0 -13 -6 -30q0 -53 73 -53q86 0 86 77q0 92 -171 155t-171 217q0 130 114 176q-89 32 -89 116q0 143 205 143h157v-49
h-129q-137 0 -137 -89t134 -91h132v-49z" />
    <glyph glyph-name="omicron" unicode="&#x3bf;" horiz-adv-x="569" 
d="M283 444q-133 0 -133 -195q3 -203 137 -203q132 0 132 200q-1 198 -136 198zM285 492q239 0 239 -247t-239 -247q-241 0 -241 247t241 247z" />
    <glyph glyph-name="pi" unicode="&#x3c0;" horiz-adv-x="632" 
d="M279 423q3 -31 3 -62q0 -100 -28 -196q-38 -132 -86 -167q-19 -14 -39 -14l-17 2q-25 8 -36 24q-5 12 -5 23q0 10 3 20q9 36 50 77t73 137q15 45 15 89q0 32 -8 67h-39q-90 0 -90 -66h-46q0 120 82 120h492v-54h-139v-334q0 -31 18 -31q17 0 46 23v-34q-45 -48 -105 -48
q-62 0 -62 90v334h-82z" />
    <glyph glyph-name="rho" unicode="&#x3c1;" horiz-adv-x="568" 
d="M282 448q-138 0 -138 -198v-7q2 -198 142 -198q138 0 138 198v4q-3 201 -142 201zM284 496q245 0 245 -250t-245 -250q-87 0 -142 31v-237h-103v486q15 220 245 220z" />
    <glyph glyph-name="sigma1" unicode="&#x3c2;" horiz-adv-x="482" 
d="M446 428h-109q-188 0 -188 -155q1 -130 156 -190q154 -58 157 -149q0 -142 -192 -144q-141 4 -143 99q0 19 4 36q10 31 38 31l8 -1q4 0 8 -1q34 -13 34 -45q0 -15 -7 -30q2 -53 74 -53q86 0 86 77q0 92 -164 155t-164 217q0 202 265 202h137v-49z" />
    <glyph glyph-name="sigma" unicode="&#x3c3;" horiz-adv-x="607" 
d="M288 448q-139 0 -139 -198v-7q3 -198 143 -198q138 0 138 198v4q-3 201 -142 201zM480 427q55 -64 55 -181q0 -250 -245 -250q-246 0 -246 250t246 250q71 0 121 -19h167v-50h-98z" />
    <glyph glyph-name="tau" unicode="&#x3c4;" horiz-adv-x="510" 
d="M213 423h-38q-91 0 -91 -66h-45q0 120 82 120h345v-54h-150v-334q0 -31 18 -31q17 0 46 23v-34q-45 -48 -105 -48q-62 0 -62 90v334z" />
    <glyph glyph-name="upsilon" unicode="&#x3c5;" horiz-adv-x="559" 
d="M471 480q37 -46 43 -172q1 -5 1 -10v-11q0 -113 -63 -197q-67 -91 -195 -91q-160 0 -160 188v201q-5 48 -77 49v40l92 2q41 3 88 9v-301q0 -129 97 -129q86 2 122 85q17 39 17 76q0 48 -26 102q-45 95 -45 131q0 54 54 54q32 0 52 -26z" />
    <glyph glyph-name="phi" unicode="&#x3c6;" horiz-adv-x="667" 
d="M278 444q0 46 53 46q150 0 222 -83q71 -83 71 -196q0 -112 -69 -193q-59 -69 -174 -79v-149h-103v150q-109 14 -165 78q-69 81 -69 193q0 113 68 196q35 42 88 62v-31q-48 -33 -48 -227q0 -95 41 -165q29 -47 85 -62v460zM411 437q-3 1 -7 1q-23 0 -23 -52v-404
q64 14 95 64q39 62 39 165q0 97 -43 167q-31 51 -61 59z" />
    <glyph glyph-name="chi" unicode="&#x3c7;" horiz-adv-x="605" 
d="M349 157l173 -276q43 -57 88 -58v-33h-231v33q42 2 42 33q0 11 -6 24l-121 191l-125 -191q-4 -8 -4 -19q0 -36 51 -38v-33h-226v33q71 2 114 58l153 235l-174 270q-46 57 -83 57v34h227v-34q-42 0 -42 -32q0 -11 6 -25l120 -185l125 185q5 13 5 21q0 35 -39 36v34h218
v-34q-75 0 -119 -57z" />
    <glyph glyph-name="psi" unicode="&#x3c8;" horiz-adv-x="710" 
d="M330 477h103v-415q110 14 138 81q16 36 16 76q0 51 -25 102q-46 93 -46 131q0 54 55 54q31 0 51 -26q36 -45 44 -172v-21q0 -112 -62 -197q-51 -67 -171 -85v-215h-103v209q-228 2 -228 188v201q-5 48 -78 49v40l93 2q41 3 88 9v-301q0 -111 125 -126v416z" />
    <glyph glyph-name="omega" unicode="&#x3c9;" horiz-adv-x="760" 
d="M347 383h57v-237q3 -101 118 -101q89 0 89 198v4q-1 181 -76 204v29q181 -18 181 -259q0 -225 -196 -225q-95 0 -145 59q-50 -59 -144 -59q-197 0 -197 225q0 239 182 259v-29q-76 -19 -76 -201v-7q3 -198 93 -198q114 0 114 100v238z" />
    <glyph glyph-name="iotadieresis" unicode="&#x3ca;" horiz-adv-x="312" 
d="M110 388q-5 48 -78 49v40l93 2q41 3 88 9v-399q0 -31 18 -31q17 0 46 23v-34q-45 -48 -105 -48q-62 0 -62 90v299zM135 588q0 -46 -48 -46q-49 0 -49 46q0 48 49 48q48 0 48 -48zM277 588q0 -46 -48 -46q-49 0 -49 46q0 48 49 48q48 0 48 -48z" />
    <glyph glyph-name="upsilondieresis" unicode="&#x3cb;" horiz-adv-x="559" 
d="M471 480q37 -46 43 -172q1 -5 1 -10v-11q0 -113 -63 -197q-67 -91 -195 -91q-160 0 -160 188v201q-5 48 -77 49v40l92 2q41 3 88 9v-301q0 -129 97 -129q86 2 122 85q17 39 17 76q0 48 -26 102q-45 95 -45 131q0 54 54 54q32 0 52 -26zM245 588q0 -46 -48 -46
q-49 0 -49 46q0 48 49 48q48 0 48 -48zM387 588q0 -46 -48 -46q-49 0 -49 46q0 48 49 48q48 0 48 -48z" />
    <glyph glyph-name="omicrontonos" unicode="&#x3cc;" horiz-adv-x="569" 
d="M283 448q-133 0 -133 -198q3 -205 137 -205q132 0 132 202q-1 201 -136 201zM285 496q239 0 239 -250t-239 -250q-241 0 -241 250t241 250zM248 545v80q0 44 4 56q9 32 46 36h4q9 0 18 -3q34 -12 37 -47l-1 -12q0 -4 -1 -8l-1 -4q-9 -27 -79 -106z" />
    <glyph glyph-name="upsilontonos" unicode="&#x3cd;" horiz-adv-x="559" 
d="M471 480q37 -46 43 -172q1 -5 1 -10v-11q0 -113 -63 -197q-67 -91 -195 -91q-160 0 -160 188v201q-5 48 -77 49v40l92 2q41 3 88 9v-301q0 -129 97 -129q86 2 122 85q17 39 17 76q0 48 -26 102q-45 95 -45 131q0 54 54 54q32 0 52 -26zM231 545v80q0 44 4 56q9 33 46 36
h4q8 0 18 -3q34 -12 37 -47l-1 -12q0 -4 -1 -8l-1 -4q-9 -27 -79 -106z" />
    <glyph glyph-name="omegatonos" unicode="&#x3ce;" horiz-adv-x="760" 
d="M347 383h57v-237q3 -101 118 -101q89 0 89 198v4q-1 181 -76 204v29q181 -18 181 -259q0 -225 -196 -225q-95 0 -145 59q-50 -59 -144 -59q-197 0 -197 225q0 239 182 259v-29q-76 -19 -76 -201v-7q3 -198 93 -198q114 0 114 100v238zM339 545v80q0 44 4 56q9 33 46 36h4
q8 0 18 -3q34 -12 37 -47l-1 -12q0 -4 -1 -8l-1 -4q-9 -27 -79 -106z" />
    <glyph glyph-name="uni03DC" unicode="&#x3dc;" horiz-adv-x="515" 
d="M201 340v-225q0 -80 78 -82v-33h-250v33q69 2 69 57v530q0 56 -69 57v33h476v-188h-46q0 134 -90 134h-168v-262h154q56 0 57 54h39v-157h-39q-1 49 -57 49h-154z" />
    <glyph glyph-name="uni03F2" unicode="&#x3f2;" horiz-adv-x="486" 
d="M261 -2q-215 2 -219 251q5 242 239 243q73 -2 115 -32q47 -35 50 -89q0 -50 -52 -54q-59 6 -59 62q0 7 3 23q1 3 1 7v7q0 33 -47 33q-133 -1 -136 -199q2 -193 137 -195q87 0 132 96l28 -20q-49 -133 -192 -133z" />
    <glyph glyph-name="afii10023" unicode="&#x401;" horiz-adv-x="607" 
d="M201 340v-245q0 -41 47 -41h144q135 0 135 134h46v-188h-549v33q74 2 74 57v530q0 55 -74 57v33h517v-188h-46q0 134 -139 134h-155v-262h163q55 0 56 54h39v-157h-39q-1 49 -56 49h-163zM276 821q0 -46 -48 -46q-49 0 -49 46q0 48 49 48q48 0 48 -48zM418 821
q0 -46 -48 -46q-49 0 -49 46q0 48 49 48q48 0 48 -48z" />
    <glyph glyph-name="afii10051" unicode="&#x402;" horiz-adv-x="744" 
d="M582 315q0 120 -104 120q-96 0 -155 -80v-265q0 -56 73 -57v-33h-250v33q74 2 74 57v566h-74q-91 0 -91 -105h-45v159h523v-159h-46q0 105 -90 105h-74v-240q66 77 186 77q176 0 177 -207v-310q0 -89 -56 -137q-55 -49 -123 -49v41q75 9 75 153v331z" />
    <glyph glyph-name="afii10052" unicode="&#x403;" horiz-adv-x="515" 
d="M211 115q0 -80 78 -82v-33h-250v33q69 2 69 57v530q0 56 -69 57v33h476v-188h-46q0 134 -90 134h-168v-541zM262 757q27 100 44 125l2 3q18 21 42 21q18 0 34 -12q22 -16 22 -43q0 -18 -11 -32q-19 -21 -111 -77z" />
    <glyph glyph-name="afii10053" unicode="&#x404;" horiz-adv-x="671" 
d="M343 394q55 0 56 54h38v-157h-38q-1 49 -56 49h-165q3 -129 59 -209q59 -83 151 -83q95 1 151 56q20 20 20 40q0 11 -8 24q-20 32 -20 55q0 56 47 56q49 -4 49 -77q-7 -69 -72 -137q-64 -66 -192 -68q-136 0 -223 93q-89 98 -89 264q0 168 93 265q93 100 214 100
q98 0 143 -30q18 -12 30 -12q19 0 19 33h43v-233h-43q-12 89 -48 142q-36 52 -118 52t-144 -90q-53 -77 -60 -187h163z" />
    <glyph glyph-name="afii10054" unicode="&#x405;" horiz-adv-x="557" 
d="M137 408q-70 52 -76 131q0 73 59 126q58 52 167 52q108 0 176 -62v-132h-34q-20 82 -54 113q-35 31 -83 31q-62 0 -90 -31q-29 -32 -29 -77q3 -50 107 -106q99 -53 153 -94q81 -64 88 -166q0 -88 -62 -144q-64 -56 -189 -56q-146 0 -221 83v176h50q19 -135 61 -173
q41 -38 103 -38q74 0 109 31q33 29 35 98q-5 84 -115 145q-108 59 -155 93z" />
    <glyph glyph-name="afii10055" unicode="&#x406;" horiz-adv-x="303" 
d="M201 90q0 -55 77 -57v-33h-254v33q74 2 74 57v530q0 55 -74 57v33h254v-33q-77 -2 -77 -57v-530z" />
    <glyph glyph-name="afii10056" unicode="&#x407;" horiz-adv-x="303" 
d="M201 90q0 -55 77 -57v-33h-254v33q74 2 74 57v530q0 55 -74 57v33h254v-33q-77 -2 -77 -57v-530zM132 821q0 -46 -48 -46q-49 0 -49 46q0 48 49 48q48 0 48 -48zM274 821q0 -46 -48 -46q-49 0 -49 46q0 48 49 48q48 0 48 -48z" />
    <glyph glyph-name="afii10057" unicode="&#x408;" horiz-adv-x="312" 
d="M212 64q-1 -127 -81 -201q-79 -73 -141 -73v44q60 32 89 85q27 53 30 153v548q0 56 -73 57v33h254v-33q-78 -1 -78 -57v-556z" />
    <glyph glyph-name="afii10058" unicode="&#x409;" horiz-adv-x="941" 
d="M555 42h64q166 6 166 155t-166 155h-64v-310zM222 656q15 -81 15 -164q0 -134 -41 -274q-67 -220 -165 -220h-9q-42 5 -42 49v7q5 50 68 50h5q68 0 113 167q24 90 24 191q0 92 -19 187q-15 26 -66 28v33h523v-33q-73 -1 -73 -57v-226h55q292 -1 292 -197
q0 -195 -291 -197h-236v33q77 2 77 57v566h-230z" />
    <glyph glyph-name="afii10059" unicode="&#x40a;" horiz-adv-x="998" 
d="M675 42q167 6 167 155t-167 155h-73v-310h73zM602 394h65q291 -1 292 -197q0 -196 -292 -197h-236v33q71 2 72 57v247h-317v-247q0 -55 78 -57v-33h-254v33q73 1 73 57v530q0 56 -73 57v33h254v-33q-78 -1 -78 -57v-229h317v229l1 -1v1q0 56 -73 57v33h249v-33
q-78 -1 -78 -57v-226z" />
    <glyph glyph-name="afii10060" unicode="&#x40b;" horiz-adv-x="784" 
d="M323 90q0 -56 73 -57v-33h-250v33q74 2 74 57v566h-74q-91 0 -91 -110h-45v164h523v-164h-46q0 110 -90 110h-74v-240q66 77 186 77q176 0 177 -207v-196q0 -56 64 -57v-33h-227v33q52 2 59 46v236q0 120 -104 120q-96 0 -155 -80v-265z" />
    <glyph glyph-name="afii10061" unicode="&#x40c;" horiz-adv-x="644" 
d="M220 361q72 31 107 192q35 162 198 162q60 0 94 -37q20 -25 20 -63q-2 -65 -59 -65q-50 0 -50 49q0 27 30 43q21 14 21 25q-10 24 -50 24h-7q-5 0 -8 -1q-55 -4 -88 -150t-133 -177q158 -32 193 -170q44 -164 136 -171v-22h-116q-111 2 -144 180q-27 143 -106 143
q-30 0 -60 -10h-1v-223q0 -55 78 -57v-33h-254v33q73 1 73 57v530q0 56 -73 57v33h250v-33q-74 -2 -74 -57v-259h23zM282 757q27 100 44 125l2 3q18 21 42 21q18 0 34 -12q22 -16 22 -43q0 -18 -11 -32q-19 -21 -111 -77z" />
    <glyph glyph-name="uni040D" unicode="&#x40d;" horiz-adv-x="688" 
d="M123 0h-40v620q0 56 -54 57v33h217v-33q-98 -2 -98 -57v-421l419 511h92v-33q-49 -1 -49 -106v-481q0 -56 49 -57v-33h-217v33q102 2 102 57v401zM397 742q-92 56 -111 77q-11 14 -11 32q0 27 22 43q15 12 34 12q24 0 42 -21l2 -3q17 -23 44 -125z" />
    <glyph glyph-name="afii10062" unicode="&#x40e;" horiz-adv-x="595" 
d="M119 1q-11 -1 -22 -1h-14q-61 0 -66 53q0 26 20 48q22 20 51 20q35 0 51 -21q8 -9 17 -9q19 0 55 32q44 40 90 111l-232 385q-48 57 -79 58v33h232v-33q-42 -1 -42 -33q0 -10 6 -24l169 -288l130 288q5 12 5 21q0 34 -53 36v33h178v-33q-22 -2 -65 -58l-138 -300
q-143 -300 -293 -318zM187 875q3 6 12 6q7 0 11 -4q2 -54 93 -54q93 0 93 54q4 4 11 4q9 0 12 -6q-1 -115 -116 -115q-116 0 -116 115z" />
    <glyph glyph-name="afii10145" unicode="&#x40f;" horiz-adv-x="732" 
d="M20 0v33q73 1 73 57v530q0 56 -73 57v33h229v-33q-53 -2 -53 -57v-564h336v564q0 56 -73 57v33h254v-33q-78 -1 -78 -57v-530q0 -55 78 -57v-33h-294q-22 -82 -24 -192h-57q-1 106 -25 192h-293z" />
    <glyph glyph-name="afii10017" unicode="&#x410;" horiz-adv-x="627" 
d="M190 276h207l-103 310zM169 223l-35 -95q-6 -21 -6 -37q0 -56 69 -58v-33h-207v33q31 1 64 80l226 597h65l228 -597q33 -79 64 -80v-33h-256v33q74 0 74 58q0 15 -6 37l-31 95h-249z" />
    <glyph glyph-name="afii10018" unicode="&#x411;" horiz-adv-x="583" 
d="M260 42q167 6 167 155t-167 155h-69v-310h69zM89 634q0 42 -76 43v33h479v-184h-46q0 130 -135 130h-119v-262h60q291 -1 292 -197q0 -190 -274 -197h-257v33q67 1 76 43v558z" />
    <glyph glyph-name="afii10019" unicode="&#x412;" horiz-adv-x="649" 
d="M336 402q110 9 110 128q0 135 -157 139h-64v-267h111zM354 710q199 -1 199 -172q0 -105 -109 -156q162 -25 166 -182q0 -200 -235 -200h-326v33q73 1 73 57v530q0 56 -73 57v33h305zM225 349v-246q0 -60 82 -60h22q166 1 166 151q0 151 -136 155h-134z" />
    <glyph glyph-name="afii10020" unicode="&#x413;" horiz-adv-x="515" 
d="M211 115q0 -80 78 -82v-33h-250v33q69 2 69 57v530q0 56 -69 57v33h476v-188h-46q0 134 -90 134h-168v-541z" />
    <glyph glyph-name="afii10021" unicode="&#x414;" horiz-adv-x="674" 
d="M464 56v600h-210q11 -69 11 -132q0 -233 -136 -468h335zM66 72q143 227 143 470q0 60 -7 112q-29 21 -76 23v33h514v-33q-73 -1 -73 -57v-530q0 -55 78 -57l-32 -225h-47q-1 122 -24 192h-437q-22 -70 -24 -192h-47l-34 225q50 15 67 38z" />
    <glyph glyph-name="afii10022" unicode="&#x415;" horiz-adv-x="607" 
d="M201 340v-245q0 -41 47 -41h144q135 0 135 134h46v-188h-549v33q74 2 74 57v530q0 55 -74 57v33h517v-188h-46q0 134 -139 134h-155v-262h163q55 0 56 54h39v-157h-39q-1 49 -56 49h-163z" />
    <glyph glyph-name="afii10024" unicode="&#x416;" horiz-adv-x="1005" 
d="M576 361q74 32 108 192q35 162 197 162q60 0 94 -37q20 -25 20 -63q-2 -65 -59 -65q-50 0 -50 49q0 27 30 43q21 14 21 25q-9 24 -50 24h-7q-5 0 -8 -1q-53 -4 -88 -150q-33 -145 -132 -177q157 -31 193 -170q42 -163 135 -171v-22h-115q-110 1 -145 180
q-26 143 -106 143q-30 0 -60 -10v-223q0 -55 77 -57v-33h-254v33q74 2 74 57v223q-30 10 -60 10q-80 0 -106 -143q-35 -179 -145 -180h-116v22q94 7 136 171q36 139 193 170q-100 31 -133 177t-87 150q-3 1 -7 1h-8q-41 0 -50 -24q0 -11 21 -25q30 -16 30 -43q0 -49 -50 -49
q-57 0 -59 65q0 38 20 63q33 37 94 37q162 0 196 -162q34 -160 109 -192h22v259q0 55 -74 57v33h250v-33q-73 -1 -73 -57v-259h22z" />
    <glyph glyph-name="afii10025" unicode="&#x417;" horiz-adv-x="542" 
d="M332 530q0 50 -21 77q-34 45 -90 45t-66 -28q0 -13 21 -25q30 -18 30 -43q0 -45 -50 -50q-57 4 -59 66q0 37 20 63q50 53 138 53q89 0 145 -53q47 -44 47 -108q0 -115 -118 -151q164 -35 164 -182q0 -192 -222 -197q-142 5 -192 96q-30 60 -30 102q3 77 69 77
q57 0 57 -55q0 -41 -30 -68q-19 -16 -19 -35q15 -71 131 -76q135 3 135 140q0 166 -200 168v43q139 36 140 141z" />
    <glyph glyph-name="afii10026" unicode="&#x418;" horiz-adv-x="688" 
d="M123 0h-40v620q0 56 -54 57v33h217v-33q-98 -2 -98 -57v-421l419 511h92v-33q-49 -1 -49 -106v-481q0 -56 49 -57v-33h-217v33q102 2 102 57v401z" />
    <glyph glyph-name="afii10027" unicode="&#x419;" horiz-adv-x="688" 
d="M123 0h-40v620q0 56 -54 57v33h217v-33q-98 -2 -98 -57v-421l419 511h92v-33q-49 -1 -49 -106v-481q0 -56 49 -57v-33h-217v33q102 2 102 57v401zM228 875q3 6 12 6q7 0 11 -4q2 -54 93 -54q93 0 93 54q4 4 11 4q9 0 12 -6q-1 -115 -116 -115q-116 0 -116 115z" />
    <glyph glyph-name="afii10028" unicode="&#x41a;" horiz-adv-x="644" 
d="M220 361q72 31 107 192q35 162 198 162q60 0 94 -37q20 -25 20 -63q-2 -65 -59 -65q-50 0 -50 49q0 27 30 43q21 14 21 25q-10 24 -50 24h-7q-5 0 -8 -1q-55 -4 -88 -150t-133 -177q158 -32 193 -170q44 -164 136 -171v-22h-116q-111 2 -144 180q-27 143 -106 143
q-30 0 -60 -10h-1v-223q0 -55 78 -57v-33h-254v33q73 1 73 57v530q0 56 -73 57v33h250v-33q-74 -2 -74 -57v-259h23z" />
    <glyph glyph-name="afii10029" unicode="&#x41b;" horiz-adv-x="670" 
d="M375 0v33q77 2 77 57v566h-230q15 -81 15 -164q0 -134 -41 -274q-67 -220 -165 -220h-9q-42 5 -42 49v7q5 50 68 50h5q68 0 113 167q24 90 24 191q0 92 -19 187q-15 26 -66 28v33h523v-33q-73 -1 -73 -57v-544q9 -42 76 -43v-33h-256z" />
    <glyph glyph-name="afii10030" unicode="&#x41c;" horiz-adv-x="855" 
d="M154 710l285 -578l253 578h134v-33q-49 -1 -49 -106v-481q0 -56 49 -57v-33h-205v33q47 2 53 50v402l-222 -485h-68l-240 481v-391q0 -55 48 -57v-33h-163v33q49 1 49 57v481q0 105 -49 106v33h125z" />
    <glyph glyph-name="afii10031" unicode="&#x41d;" horiz-adv-x="700" 
d="M191 337v-247q0 -55 78 -57v-33h-254v33q73 1 73 57v530q0 56 -73 57v33h254v-33q-78 -1 -78 -57v-229h318v229q0 56 -73 57v33h249v-33q-78 -1 -78 -57v-530q0 -55 78 -57v-33h-249v33q73 1 73 57v247h-318z" />
    <glyph glyph-name="afii10032" unicode="&#x41e;" horiz-adv-x="742" 
d="M695 351q0 -161 -81 -259q-79 -99 -239 -99q-167 0 -248 99q-81 98 -81 259q0 167 80 267q81 99 239 99q169 0 250 -99q80 -100 80 -267zM375 37q96 0 148 82q53 83 53 232q-3 148 -60 232q-58 84 -151 84q-95 0 -147 -82q-53 -83 -53 -234q3 -146 61 -229
q58 -85 149 -85z" />
    <glyph glyph-name="afii10033" unicode="&#x41f;" horiz-adv-x="732" 
d="M196 659v-569q0 -55 77 -57v-33h-253v33q73 1 73 57v530q0 56 -73 57v33h693v-33q-78 -1 -78 -57v-530q0 -55 78 -57v-33h-254v33q73 1 73 57v569h-336z" />
    <glyph glyph-name="afii10034" unicode="&#x420;" horiz-adv-x="573" 
d="M206 316v-177q0 -104 77 -106v-33h-254v33q74 2 74 57v530q0 55 -74 57v33h238q292 -1 292 -197q-1 -196 -292 -197h-61zM206 667v-266q0 -43 49 -43h20q166 6 166 155q0 150 -166 154h-69z" />
    <glyph glyph-name="afii10035" unicode="&#x421;" horiz-adv-x="657" 
d="M176 351q0 -139 59 -224q59 -83 150 -83q96 1 152 56q56 56 66 108h30q-15 -79 -81 -147q-64 -66 -191 -68q-137 0 -223 93q-89 98 -89 265q0 169 93 266q93 100 229 100q83 0 128 -30q18 -12 29 -12q19 0 19 33h44v-233h-43q-12 89 -48 142q-36 52 -119 52
q-82 0 -144 -90q-61 -88 -61 -228z" />
    <glyph glyph-name="afii10036" unicode="&#x422;" horiz-adv-x="562" 
d="M542 710v-188h-45q0 134 -90 134h-74v-566q0 -56 73 -57v-33h-250v33q73 1 73 57v566h-74q-90 0 -90 -134h-45v188h522z" />
    <glyph glyph-name="afii10037" unicode="&#x423;" horiz-adv-x="595" 
d="M119 1q-11 -1 -22 -1h-14q-61 0 -66 53q0 26 20 48q22 20 51 20q35 0 51 -21q8 -9 17 -9q19 0 55 32q44 40 90 111l-232 385q-48 57 -79 58v33h232v-33q-42 -1 -42 -33q0 -10 6 -24l169 -288l130 288q5 12 5 21q0 34 -53 36v33h178v-33q-22 -2 -65 -58l-138 -300
q-143 -300 -293 -318z" />
    <glyph glyph-name="afii10038" unicode="&#x424;" horiz-adv-x="870" 
d="M487 90q0 -55 77 -57v-33h-253v33q73 1 73 57v61q-349 0 -350 211q0 205 350 207v51q0 56 -73 57v33h253v-33q-77 -2 -77 -57v-51q348 -1 348 -207q0 -211 -348 -211v-61zM384 527q-233 -6 -233 -165q0 -164 233 -169v334zM487 193q231 5 231 169q0 159 -231 165v-334z
" />
    <glyph glyph-name="afii10039" unicode="&#x425;" horiz-adv-x="610" 
d="M339 375l193 -284q43 -57 88 -58v-33h-241v33q42 2 42 33q0 11 -6 24l-121 190l-125 -190q-4 -8 -4 -19q0 -36 51 -38v-33h-226v33q71 2 114 58l163 243l-193 285q-37 56 -84 58v33h237v-33q-42 -1 -42 -33q0 -10 6 -24l120 -190l125 190q5 12 5 21q0 35 -39 36v33h218
v-33q-76 -2 -119 -58z" />
    <glyph glyph-name="afii10040" unicode="&#x426;" horiz-adv-x="732" 
d="M20 0v33q73 1 73 57v530q0 56 -73 57v33h253v-33q-77 -2 -77 -57v-564h336v564q0 56 -73 57v33h254v-33q-78 -1 -78 -57v-530q0 -55 78 -57l-32 -225h-46q-3 123 -25 192h-590z" />
    <glyph glyph-name="afii10041" unicode="&#x427;" horiz-adv-x="662" 
d="M447 294q-66 -77 -187 -77q-174 0 -176 207v196q0 56 -64 57v33h227v-33q-52 -1 -59 -46v-236q0 -120 104 -120q96 0 155 80v265q0 56 -73 57v33h249v-33q-73 -1 -73 -57v-538q4 -47 73 -49v-33h-249v33q73 1 73 57v204z" />
    <glyph glyph-name="afii10042" unicode="&#x428;" horiz-adv-x="977" 
d="M435 56v564q0 55 -74 57v33h254v-33q-77 -2 -77 -57v-564h238v564q0 56 -73 57v33h254v-33q-78 -1 -78 -57v-530q0 -55 78 -57v-33h-937v33q73 1 73 57v530q0 56 -73 57v33h253v-33q-77 -2 -77 -57v-564h239z" />
    <glyph glyph-name="afii10043" unicode="&#x429;" horiz-adv-x="977" 
d="M20 0v33q73 1 73 57v530q0 56 -73 57v33h253v-33q-77 -2 -77 -57v-564h239v564q0 55 -74 57v33h254v-33q-77 -2 -77 -57v-564h238v564q0 56 -73 57v33h254v-33q-78 -1 -78 -57v-530q0 -55 78 -57l-32 -225h-46q-3 123 -25 192h-834z" />
    <glyph glyph-name="afii10044" unicode="&#x42a;" horiz-adv-x="819" 
d="M428 42h63q167 6 167 155t-167 155h-63v-310zM428 394h55q291 -1 292 -197q0 -196 -292 -197h-236v33q78 2 78 57v566h-168q-87 0 -87 -130h-46v184h477v-33q-73 -1 -73 -57v-226z" />
    <glyph glyph-name="afii10045" unicode="&#x42b;" horiz-adv-x="903" 
d="M252 394q291 -1 292 -197q0 -196 -292 -197h-237v33q73 1 73 57v530q0 56 -73 57v33h254v-33q-78 -1 -78 -106v-177h61zM260 42q167 6 167 155t-167 155h-69v-310h69zM782 90q0 -55 77 -57v-33h-254v33q74 2 74 57v530q0 55 -74 57v33h254v-33q-77 -2 -77 -57v-530z" />
    <glyph glyph-name="afii10046" unicode="&#x42c;" horiz-adv-x="583" 
d="M252 394q291 -1 292 -197q0 -196 -292 -197h-237v33q73 1 73 57v530q0 56 -73 57v33h254v-33q-78 -1 -78 -106v-177h61zM260 42q167 6 167 155t-167 155h-69v-310h69z" />
    <glyph glyph-name="afii10047" unicode="&#x42d;" horiz-adv-x="655" 
d="M482 394q-7 110 -60 187q-61 90 -144 90q-84 0 -118 -52q-35 -52 -49 -142h-43v233h44q0 -33 19 -33q12 0 30 12q45 30 142 30q121 0 215 -100q92 -98 92 -265q0 -166 -89 -264q-85 -93 -223 -93q-127 2 -191 68q-66 69 -73 137q2 73 49 77q47 0 47 -56q0 -23 -20 -55
q-7 -11 -7 -24q0 -20 20 -40q55 -55 151 -56q91 0 150 83q56 80 59 209h-164q-55 0 -56 -49h-39v157h39q2 -54 56 -54h163z" />
    <glyph glyph-name="afii10048" unicode="&#x42e;" horiz-adv-x="1027" 
d="M667 36q97 0 149 82q53 83 53 231q-3 149 -60 233q-58 84 -151 84q-94 0 -147 -83q-53 -82 -53 -234q3 -146 61 -229q59 -84 148 -84zM186 337v-247q0 -55 78 -57v-33h-254v33q73 1 73 57v530q0 56 -73 57v33h254v-33q-78 -1 -78 -57v-229h155q9 139 78 226q81 98 239 98
q169 0 250 -98q80 -100 80 -268q0 -160 -81 -259q-80 -98 -240 -98q-166 0 -247 98q-78 94 -81 247h-153z" />
    <glyph glyph-name="afii10049" unicode="&#x42f;" horiz-adv-x="608" 
d="M76 531q9 177 306 179h201v-33q-73 -1 -73 -57v-530q0 -56 73 -57v-33h-253v33q77 2 77 106v174q-30 10 -60 10q-80 0 -106 -143q-35 -179 -145 -180h-116v22q94 7 136 171q38 144 183 144q-223 25 -223 194zM356 665q-172 -18 -172 -152q0 -136 172 -152h51v304h-51z
" />
    <glyph glyph-name="afii10065" unicode="&#x430;" horiz-adv-x="511" 
d="M328 279q-30 -27 -108 -49t-78 -99q4 -88 109 -88q45 0 77 29v207zM250 492q181 -1 185 -149v-269q0 -22 16 -22q7 0 28 8l27 -20q-34 -40 -84 -42q-47 0 -77 31q-58 -31 -151 -31q-148 13 -150 128q0 127 126 146q125 21 162 62v57q-7 61 -56 61q-48 0 -56 -35t-34 -58
q-18 -15 -39 -15q-56 2 -56 57q1 43 55 67q53 24 104 24z" />
    <glyph glyph-name="afii10066" unicode="&#x431;" horiz-adv-x="579" 
d="M149 243q3 -198 143 -198q138 0 138 198v4q-3 201 -142 201q-135 0 -139 -205zM43 283q0 445 414 445h3v-40h-2q-231 -1 -290 -213q50 21 122 21q245 0 245 -250t-245 -250t-247 287z" />
    <glyph glyph-name="afii10067" unicode="&#x432;" horiz-adv-x="473" 
d="M190 429v-149h33q85 4 85 74q0 72 -85 75h-33zM233 48q100 3 100 89t-100 89h-43v-178h43zM357 254q80 -31 82 -117q0 -137 -210 -137h-205v33q78 2 78 82v247q0 81 -78 81v34h193q196 0 197 -123q0 -70 -57 -100z" />
    <glyph glyph-name="afii10068" unicode="&#x433;" horiz-adv-x="495" 
d="M201 115q0 -80 78 -82v-33h-250v33q69 2 69 57v296q0 56 -69 57v34h427v-188h-45q0 134 -91 134h-119v-308z" />
    <glyph glyph-name="afii10069" unicode="&#x434;" horiz-adv-x="572" 
d="M165 423q-17 20 -58 20v34h426v-34q-69 -1 -69 -57v-296q0 -55 69 -57l-28 -225h-46q-1 122 -24 192h-325q-22 -69 -25 -192h-46l-29 225q41 2 57 21h1q86 125 99 369h-2zM214 423q-13 -244 -99 -369h246v308q0 17 -3 30h3v31h-147z" />
    <glyph glyph-name="afii10070" unicode="&#x435;" horiz-adv-x="487" 
d="M356 305q-4 138 -90 140q-85 0 -111 -140h201zM258 -2q-212 4 -223 253q11 240 223 241q203 0 203 -237h-309q2 -201 130 -201q93 0 135 94l29 -20q-46 -125 -188 -130z" />
    <glyph glyph-name="afii10072" unicode="&#x436;" horiz-adv-x="900" 
d="M502 260q41 21 96 126q56 105 183 105q49 0 78 -29q17 -20 17 -47q-1 -54 -56 -54q-49 0 -49 43q0 24 27 37q9 5 9 6q-3 7 -22 7h-9q-28 -1 -84 -97t-91 -106q77 -14 136 -113q61 -99 129 -103v-35h-97q-92 0 -144 106t-98 106q-16 0 -25 -4h-1v-118q0 -56 64 -57v-33
h-227v33q60 2 60 57v118q-9 4 -25 4q-46 0 -98 -106t-144 -106h-96v35q69 4 128 103q60 100 136 113q-35 10 -91 106t-83 97h-10q-20 0 -21 -7q0 -1 9 -6q27 -13 27 -37q0 -43 -49 -43q-55 0 -57 54q0 28 18 47q29 29 77 29q129 0 184 -105t95 -126v126q0 56 -60 57v34h227
v-34q-64 0 -64 -57v-126h1z" />
    <glyph glyph-name="afii10073" unicode="&#x437;" horiz-adv-x="429" 
d="M63 350v74q51 56 146 56q71 0 115 -38q38 -33 38 -79q0 -93 -51 -98q84 -16 84 -113q0 -149 -199 -152q-112 1 -157 46v116h52q5 -110 96 -113q107 2 107 92t-144 91v47q100 4 100 86q0 31 -13 45q-19 25 -52 25q-69 0 -69 -85h-53z" />
    <glyph glyph-name="afii10074" unicode="&#x438;" horiz-adv-x="641" 
d="M430 475v2h172v-34q-69 0 -69 -57v-296q0 -55 69 -57v-33h-250v33q78 2 78 82v263l-219 -373v-5h-172v33q69 2 69 57v296q0 57 -69 57v34h250v-34q-78 0 -78 -81v-255z" />
    <glyph glyph-name="afii10075" unicode="&#x439;" horiz-adv-x="641" 
d="M430 475v2h172v-34q-69 0 -69 -57v-296q0 -55 69 -57v-33h-250v33q78 2 78 82v263l-219 -373v-5h-172v33q69 2 69 57v296q0 57 -69 57v34h250v-34q-78 0 -78 -81v-255zM204 642q3 6 12 6q7 0 11 -4q2 -54 93 -54q93 0 93 54q4 4 11 4q9 0 12 -6q-1 -115 -116 -115
q-116 0 -116 115z" />
    <glyph glyph-name="afii10076" unicode="&#x43a;" horiz-adv-x="604" 
d="M205 260q41 20 96 125q57 106 184 106q49 0 78 -29q17 -20 17 -47q-1 -54 -56 -54q-49 0 -49 43q0 24 27 37q9 5 9 6q-3 7 -22 7h-9q-28 -1 -84 -97t-91 -106q77 -14 136 -113q61 -99 129 -103v-35h-97q-92 0 -144 106t-98 106q-17 0 -26 -4v-118q0 -55 65 -57v-33h-228
v33q60 2 60 57v300q-5 48 -78 49v40l93 2q41 3 88 9v-230z" />
    <glyph glyph-name="afii10077" unicode="&#x43b;" horiz-adv-x="584" 
d="M358 423h-123q0 -162 -25 -258q-38 -132 -86 -167q-20 -14 -39 -14q-4 0 -9 1l-9 1q-24 7 -35 24q-6 11 -6 23q0 10 3 20q11 37 51 77q43 43 62 103q21 63 22 169q-9 40 -67 41v34h434v-34q-69 -1 -69 -57v-271q0 -80 78 -82v-33h-250v33q68 2 68 57v333z" />
    <glyph glyph-name="afii10078" unicode="&#x43c;" horiz-adv-x="638" 
d="M154 479l173 -352l150 352h117v-42q-34 0 -34 -58v-310q0 -27 34 -27v-42h-171v42q36 0 37 22v194l-114 -258h-67l-128 260v-191q0 -27 34 -27v-42h-141v42q34 0 34 27v310q0 58 -34 58v42h110z" />
    <glyph glyph-name="afii10079" unicode="&#x43d;" horiz-adv-x="650" 
d="M211 214v-99q0 -80 78 -82v-33h-250v33q69 2 69 57v296q0 57 -69 57v34h250v-34q-78 0 -78 -81v-98h228v98q0 81 -77 81v34h249v-34q-69 0 -69 -57v-296q0 -55 69 -57v-33h-249v33q77 2 77 82v99h-228z" />
    <glyph glyph-name="afii10080" unicode="&#x43e;" horiz-adv-x="569" 
d="M283 444q-133 0 -133 -195q3 -203 137 -203q132 0 132 200q-1 198 -136 198zM285 492q239 0 239 -247t-239 -247q-241 0 -241 247t241 247z" />
    <glyph glyph-name="afii10081" unicode="&#x43f;" horiz-adv-x="650" 
d="M211 423v-308q0 -80 78 -82v-33h-250v33q69 2 69 57v296q0 56 -69 57v34h572v-34q-69 -1 -69 -57v-296q0 -55 69 -57v-33h-249v33q77 2 77 82v308h-228z" />
    <glyph glyph-name="afii10082" unicode="&#x440;" horiz-adv-x="572" 
d="M200 139q20 -88 105 -92q126 2 126 201q-3 198 -129 198q-72 0 -102 -73v-234zM200 -115q0 -55 65 -57v-33h-227v33q59 2 59 57v508q-4 46 -77 49v39q49 0 92 3q41 3 88 9v-47q46 46 129 46q205 0 209 -244q0 -248 -224 -250q-65 0 -114 28v-141z" />
    <glyph glyph-name="afii10083" unicode="&#x441;" horiz-adv-x="486" 
d="M261 -2q-215 2 -219 251q5 242 239 243q73 -2 115 -32q47 -35 50 -89q0 -50 -52 -54q-59 6 -59 62q0 7 3 23q1 3 1 7v7q0 33 -47 33q-133 -1 -136 -199q2 -193 137 -195q87 0 132 96l28 -20q-49 -133 -192 -133z" />
    <glyph glyph-name="afii10084" unicode="&#x442;" horiz-adv-x="541" 
d="M521 477v-188h-45q0 134 -91 134h-70v-308q0 -80 78 -82v-33h-250v33q69 2 69 57v333h-57q-90 0 -90 -134h-45v188h501z" />
    <glyph glyph-name="afii10085" unicode="&#x443;" horiz-adv-x="501" 
d="M10 -210q-77 5 -77 71q9 56 67 57q44 0 72 -22q11 -10 26 -10q17 0 35 15q58 43 91 137l-115 294q-52 110 -102 112v33h225v-33q-38 -2 -38 -43q0 -11 3 -25l84 -223l104 223q9 21 9 36q0 30 -41 32v33h164v-33q-39 -2 -90 -112l-123 -270q-123 -272 -291 -272h-3z" />
    <glyph glyph-name="afii10086" unicode="&#x444;" horiz-adv-x="802" 
d="M453 467q43 31 120 31q118 0 163 -75q46 -73 46 -174q0 -102 -53 -176t-167 -74q-61 0 -109 18h-1v-137q0 -55 65 -57v-33h-227v33q59 2 59 57v137q-49 -18 -109 -18q-114 0 -167 74t-53 176q0 101 45 174q47 75 164 75q77 0 120 -31v170q-3 45 -78 50v38q84 0 181 12
v-270h1zM349 380q-22 73 -84 73q-63 0 -96 -43q-32 -43 -43 -161v-11q0 -80 32 -133q34 -54 94 -56q83 5 97 74v257zM453 123q14 -70 97 -74q60 2 94 56q31 52 31 133v11q-9 118 -43 161q-31 43 -95 43q-62 0 -84 -73q-1 -1 -1 -2v-253q0 -1 1 -2z" />
    <glyph glyph-name="afii10087" unicode="&#x445;" horiz-adv-x="511" 
d="M285 259l120 -168q40 -56 101 -58v-33h-221v33q35 2 35 19q0 12 -17 38l-57 80l-58 -80q-16 -22 -16 -37q0 -18 38 -20v-33h-215v33q86 2 126 58l90 127l-120 168q-40 56 -96 58v33h221v-33q-39 -1 -39 -34l74 -103l74 104q0 32 -34 33v33h215v-33q-90 -2 -130 -58z" />
    <glyph glyph-name="afii10088" unicode="&#x446;" horiz-adv-x="650" 
d="M39 0v33q69 2 69 57v296q0 57 -69 57v34h250v-34q-78 0 -78 -81v-308h92v1q3 -1 8 -1h28q5 0 9 1v-1h91v308q0 81 -77 81v34h249v-34q-69 0 -69 -57v-296q0 -55 69 -57l-28 -225h-46q-1 122 -24 192h-474z" />
    <glyph glyph-name="afii10089" unicode="&#x447;" horiz-adv-x="613" 
d="M398 256q-42 -77 -138 -77q-175 0 -176 208q0 56 -64 57v33h227v-33q-52 -1 -59 -46v-41q0 -119 104 -119q72 0 106 79v70q0 56 -73 57v33h249v-33q-73 -1 -73 -57v-305q4 -47 73 -49v-33h-249v33q73 1 73 57v166z" />
    <glyph glyph-name="afii10090" unicode="&#x448;" horiz-adv-x="923" 
d="M410 386q0 57 -69 57v34h250v-34q-78 0 -78 -81v-308h199v308q0 81 -77 81v34h249v-34q-69 0 -69 -57v-296q0 -55 69 -57v-33h-845v33q69 2 69 57v296q0 57 -69 57v34h250v-34q-78 0 -78 -81v-308h199v332z" />
    <glyph glyph-name="afii10091" unicode="&#x449;" horiz-adv-x="914" 
d="M39 0v33q69 2 69 57v296q0 57 -69 57v34h250v-34q-78 0 -78 -81v-308h199v332q0 57 -69 57v34h250v-34q-78 0 -78 -81v-308h199v308q0 81 -77 81v34h249v-34q-69 0 -69 -57v-296q0 -55 69 -57l-27 -225h-46q-3 123 -25 192h-747z" />
    <glyph glyph-name="afii10092" unicode="&#x44a;" horiz-adv-x="605" 
d="M333 273h22q210 0 211 -136q0 -137 -211 -137h-204v33q78 2 78 82v308h-69q-90 0 -90 -134h-46v188h378v-34q-69 -1 -69 -57v-113zM333 226v-178h27q100 3 100 89t-100 89h-27z" />
    <glyph glyph-name="afii10093" unicode="&#x44b;" horiz-adv-x="792" 
d="M39 0v33q78 2 78 82v247q0 81 -78 81v34h250v-34q-69 0 -69 -57v-113h23q210 0 211 -136q0 -137 -211 -137h-204zM220 226v-178h28q100 3 100 89t-100 89h-28zM581 362q0 81 -78 81v34h249v-34q-68 0 -68 -57v-296q0 -55 68 -57v-33h-249v33q78 2 78 82v247z" />
    <glyph glyph-name="afii10094" unicode="&#x44c;" horiz-adv-x="478" 
d="M39 0v33q78 2 78 82v247q0 81 -78 81v34h250v-34q-69 0 -69 -57v-113h23q210 0 211 -136q0 -137 -211 -137h-204zM220 226v-178h28q100 3 100 89t-100 89h-28z" />
    <glyph glyph-name="afii10095" unicode="&#x44d;" horiz-adv-x="519" 
d="M77 392q12 20 30 43q56 63 148 63q102 -1 163 -79q57 -73 57 -174q-2 -98 -59 -172q-58 -75 -181 -76q-71 2 -114 31q-48 34 -51 89q0 49 53 54q58 -4 58 -62l-4 -36q0 -34 47 -34q60 2 102 49q33 40 34 121h-152v54h148q-10 95 -44 132q-40 43 -89 45q-61 0 -99 -44
q-35 -43 -47 -94v-6l-1 -1l-37 1v129h38v-33z" />
    <glyph glyph-name="afii10096" unicode="&#x44e;" horiz-adv-x="876" 
d="M591 448q-139 0 -139 -198v-7q3 -198 142 -198q138 0 138 198v4q-1 201 -141 201zM211 214v-99q0 -80 78 -82v-33h-250v33q69 2 69 57v296q0 57 -69 57v34h250v-34q-78 0 -78 -81v-98h136q7 232 245 232q245 0 245 -250t-245 -250q-229 0 -244 218h-137z" />
    <glyph glyph-name="afii10097" unicode="&#x44f;" horiz-adv-x="502" 
d="M66 354q7 121 194 123h203v-43q-50 0 -50 -26v-339q0 -27 50 -27v-42h-204v42q54 0 54 58v105q-10 3 -29 3q-44 0 -55 -104t-100 -104h-95v34q68 5 86 99q18 95 87 96q-141 0 -141 125zM243 426q-74 -9 -74 -85t74 -87h70v172h-70z" />
    <glyph glyph-name="afii10071" unicode="&#x451;" horiz-adv-x="487" 
d="M356 305q-4 138 -90 140q-85 0 -111 -140h201zM258 -2q-212 4 -223 253q11 240 223 241q203 0 203 -237h-309q2 -201 130 -201q93 0 135 94l29 -20q-46 -125 -188 -130zM226 588q0 -46 -48 -46q-49 0 -49 46q0 48 49 48q48 0 48 -48zM368 588q0 -46 -48 -46q-49 0 -49 46
q0 48 49 48q48 0 48 -48z" />
    <glyph glyph-name="afii10099" unicode="&#x452;" horiz-adv-x="551" 
d="M90 564h-76v50h76v23q-3 45 -77 50v38q84 0 180 12v-123h197v-50h-197v-148q66 77 162 77q151 0 152 -207l-1 -310q0 -89 -55 -137q-55 -49 -122 -49v41q74 10 74 153v331q0 120 -79 120q-72 0 -131 -80v-265q0 -55 65 -57v-33h-227v33q59 2 59 57v474z" />
    <glyph glyph-name="afii10100" unicode="&#x453;" horiz-adv-x="495" 
d="M201 115q0 -80 78 -82v-33h-250v33q69 2 69 57v296q0 56 -69 57v34h427v-188h-45q0 134 -91 134h-119v-308zM195 524q27 100 44 125l2 3q18 21 42 21q18 0 34 -12q22 -16 22 -43q0 -18 -11 -32q-19 -21 -111 -77z" />
    <glyph glyph-name="afii10101" unicode="&#x454;" horiz-adv-x="514" 
d="M437 425h38v-129l-37 -1l-1 1v6q-12 51 -47 94q-38 44 -99 44q-49 -2 -89 -45q-34 -37 -44 -132h148v-54h-152q1 -81 34 -121q42 -47 102 -49q47 0 47 34l-4 36q0 58 58 62q53 -5 53 -54q-3 -54 -50 -89q-43 -29 -115 -31q-123 1 -181 76q-56 74 -59 172q0 101 57 174
q61 78 163 79q93 0 148 -63q18 -23 30 -43v33z" />
    <glyph glyph-name="afii10102" unicode="&#x455;" horiz-adv-x="452" 
d="M377 334h-44q-20 84 -41 102q-27 18 -68 18q-67 -7 -72 -60q0 -53 129 -94q128 -47 132 -140q0 -162 -197 -162q-116 0 -164 48v124h46q19 -78 35 -105q14 -24 79 -32q103 4 105 93q0 39 -34 67q-34 29 -102 45q-133 34 -137 113q0 63 51 102q50 39 136 39q95 0 146 -52
v-106z" />
    <glyph glyph-name="afii10103" unicode="&#x456;" horiz-adv-x="306" 
d="M216 679q0 -26 -20 -46t-51 -20t-51 20t-20 46t20 46t51 20t51 -20t20 -46zM112 388q-5 48 -78 49v40l92 2q41 3 89 9v-398q0 -56 64 -57v-33h-227v33q60 2 60 57v298z" />
    <glyph glyph-name="afii10104" unicode="&#x457;" horiz-adv-x="306" 
d="M112 388q-5 48 -78 49v40l92 2q41 3 89 9v-398q0 -56 64 -57v-33h-227v33q60 2 60 57v298zM134 588q0 -46 -48 -46q-49 0 -49 46q0 48 49 48q48 0 48 -48zM277 588q0 -46 -49 -46q-48 0 -48 46q0 48 48 48q49 0 49 -48z" />
    <glyph glyph-name="afii10105" unicode="&#x458;" horiz-adv-x="229" 
d="M189 679q0 -26 -20 -46t-51 -20t-51 20t-20 46t20 46t51 20t51 -20t20 -46zM183 -24q0 -89 -56 -137q-53 -49 -122 -49v41q75 27 75 143v415q-5 47 -74 48v40q21 0 46 1l43 1q43 3 88 9v-512z" />
    <glyph glyph-name="afii10106" unicode="&#x459;" horiz-adv-x="734" 
d="M462 226v-178h27q100 3 100 89t-100 89h-27zM164 402q-9 40 -67 41v34h434v-34q-69 -1 -69 -57v-113h22q210 0 211 -136q0 -137 -211 -137h-204v33q78 2 78 82v308h-123q0 -162 -25 -258q-38 -132 -86 -167q-20 -14 -39 -14q-4 0 -9 1l-9 1q-24 7 -35 24q-6 11 -6 23
q0 10 3 20q11 37 51 77q43 43 62 103q21 63 22 169z" />
    <glyph glyph-name="afii10107" unicode="&#x45a;" horiz-adv-x="815" 
d="M362 0v33q77 2 77 82v99h-228v-99q0 -80 78 -82v-33h-250v33q69 2 69 57v296q0 57 -69 57v34h250v-34q-78 0 -78 -81v-98h228v98q0 81 -77 81v34h249v-34q-69 0 -69 -57v-113h23q211 0 211 -136q0 -137 -210 -137h-204zM542 226v-178h29q99 3 99 89t-99 89h-29z" />
    <glyph glyph-name="afii10108" unicode="&#x45b;" horiz-adv-x="616" 
d="M193 564v-148q66 77 162 77q151 0 152 -207v-196q0 -55 65 -57v-33h-227v33q51 1 58 46v236q0 120 -79 120q-72 0 -131 -80v-265q0 -55 65 -57v-33h-227v33q59 2 59 57v474h-76v50h76v23q-3 45 -77 50v38q84 0 180 12v-123h197v-50h-197z" />
    <glyph glyph-name="afii10109" unicode="&#x45c;" horiz-adv-x="604" 
d="M205 260q41 20 96 125q57 106 184 106q49 0 78 -29q17 -20 17 -47q-1 -54 -56 -54q-49 0 -49 43q0 24 27 37q9 5 9 6q-3 7 -22 7h-9q-28 -1 -84 -97t-91 -106q77 -14 136 -113q61 -99 129 -103v-35h-97q-92 0 -144 106t-98 106q-17 0 -26 -4v-118q0 -55 65 -57v-33h-228
v33q60 2 60 57v300q-5 48 -78 49v40l93 2q41 3 88 9v-230zM254 524q27 100 44 125l2 3q18 21 42 21q18 0 34 -12q22 -16 22 -43q0 -18 -11 -32q-19 -21 -111 -77z" />
    <glyph glyph-name="uni045D" unicode="&#x45d;" horiz-adv-x="641" 
d="M430 475v2h172v-34q-69 0 -69 -57v-296q0 -55 69 -57v-33h-250v33q78 2 78 82v263l-219 -373v-5h-172v33q69 2 69 57v296q0 57 -69 57v34h250v-34q-78 0 -78 -81v-255zM350 509q-92 56 -111 77q-11 14 -11 32q0 27 22 43q15 12 34 12q24 0 42 -21l2 -3q17 -23 44 -125z
" />
    <glyph glyph-name="afii10110" unicode="&#x45e;" horiz-adv-x="501" 
d="M10 -210q-77 5 -77 71q9 56 67 57q44 0 72 -22q11 -10 26 -10q17 0 35 15q58 43 91 137l-115 294q-52 110 -102 112v33h225v-33q-38 -2 -38 -43q0 -11 3 -25l84 -223l104 223q9 21 9 36q0 30 -41 32v33h164v-33q-39 -2 -90 -112l-123 -270q-123 -272 -291 -272h-3z
M109 642q3 6 12 6q7 0 11 -4q2 -54 93 -54q93 0 93 54q4 4 11 4q9 0 12 -6q-1 -115 -116 -115q-116 0 -116 115z" />
    <glyph glyph-name="afii10193" unicode="&#x45f;" horiz-adv-x="660" 
d="M44 0v33q69 2 69 57v296q0 57 -69 57v34h249v-34q-77 0 -77 -81v-308h228v308q0 81 -77 81v34h249v-34q-69 0 -69 -57v-296q0 -55 69 -57v-33h-233q-22 -80 -25 -192h-56q-1 106 -25 192h-233z" />
    <glyph glyph-name="afii10146" unicode="&#x462;" horiz-adv-x="583" 
d="M260 42q167 6 167 155t-167 155h-69v-310h69zM191 516v-122h61q291 -1 292 -197q0 -196 -292 -197h-237v33q73 1 73 57v426h-107v49h107v55q0 56 -73 57v33h254v-33q-78 -1 -78 -106v-6h105v-49h-105z" />
    <glyph glyph-name="afii10194" unicode="&#x463;" horiz-adv-x="478" 
d="M220 226v-178h28q100 3 100 89t-100 89h-28zM220 516v-243h23q210 0 211 -136q0 -137 -211 -137h-204v33q78 2 78 82v401h-102v49h102v55q0 56 -78 57v33h250v-33q-69 -1 -69 -57v-55h110v-49h-110z" />
    <glyph glyph-name="afii10148" unicode="&#x474;" horiz-adv-x="602" 
d="M355 0h-64l-228 598q-33 77 -83 79v33h255v-33q-52 -1 -52 -43q0 -11 4 -22l155 -493l158 499q1 5 1 10v6q0 41 -53 43v33h173v-33q-32 -2 -63 -79z" />
    <glyph glyph-name="afii10196" unicode="&#x475;" horiz-adv-x="495" 
d="M-22 477h225v-33q-38 -2 -38 -43l2 -25l84 -223l105 223q8 22 8 36q0 31 -40 32v33h164v-33q-39 -1 -91 -112l-154 -332h-33l-130 332q-52 110 -102 112v33z" />
    <glyph glyph-name="afii10050" unicode="&#x490;" horiz-adv-x="538" 
d="M532 654h-326v-564q0 -55 77 -57v-33h-254v33q74 2 74 57v530q0 55 -74 57v33h409q19 63 20 128h46z" />
    <glyph glyph-name="afii10098" unicode="&#x491;" horiz-adv-x="361" 
d="M341 423h-130v-308q0 -80 78 -82v-33h-250v33q69 2 69 57v296q0 56 -69 57v34h207q19 63 20 129h46z" />
    <glyph glyph-name="uni1E0C" unicode="&#x1e0c;" horiz-adv-x="678" 
d="M280 47q109 1 173 86q65 86 65 215q0 136 -65 228q-63 90 -173 90h-84v-573q0 -46 67 -46h17zM285 710q170 -5 257 -97q87 -93 87 -262q0 -160 -87 -253q-88 -94 -257 -98h-265v33q73 1 73 57v530q0 56 -73 57v33h265zM374 -110q0 -20 -14 -34t-36 -14q-20 0 -34 14
q-15 14 -15 34t15 33q14 14 34 14q22 0 36 -14t14 -33z" />
    <glyph glyph-name="uni1E0D" unicode="&#x1e0d;" horiz-adv-x="546" 
d="M370 358q-39 80 -100 84q-123 -2 -125 -195q3 -204 138 -204q63 0 87 59v256zM370 40q-39 -42 -123 -42q-206 0 -209 249q3 245 205 245q77 0 127 -56v201q-3 46 -78 49v39q84 0 181 12v-639q5 -45 68 -48v-39q-44 0 -85 -3q-17 -1 -41 -4q-5 0 -11 -1l-23 -2
q-6 -1 -11 -1v40zM339 -110q0 -20 -14 -34t-36 -14q-20 0 -34 14q-15 14 -15 34t15 33q14 14 34 14q22 0 36 -14t14 -33z" />
    <glyph glyph-name="uni1E24" unicode="&#x1e24;" horiz-adv-x="700" 
d="M191 337v-247q0 -55 78 -57v-33h-254v33q73 1 73 57v530q0 56 -73 57v33h254v-33q-78 -1 -78 -57v-229h318v229q0 56 -73 57v33h249v-33q-78 -1 -78 -57v-530q0 -55 78 -57v-33h-249v33q73 1 73 57v247h-318zM399 -110q0 -20 -14 -34t-36 -14q-20 0 -34 14q-15 14 -15 34
t15 33q14 14 34 14q22 0 36 -14t14 -33z" />
    <glyph glyph-name="uni1E25" unicode="&#x1e25;" horiz-adv-x="581" 
d="M193 90q0 -55 65 -57v-33h-227v33q59 2 59 57v547q-3 45 -77 50v38q84 0 180 12v-320q66 75 175 75q135 0 135 -161v-241q0 -55 65 -57v-33h-223v33q56 2 56 57v237q0 102 -80 102q-68 0 -128 -77v-262zM340 -110q0 -20 -14 -34t-36 -14q-20 0 -34 14q-15 14 -15 34
t15 33q14 14 34 14q22 0 36 -14t14 -33z" />
    <glyph glyph-name="uni1E32" unicode="&#x1e32;" horiz-adv-x="629" 
d="M215 305l245 324q4 8 4 16q0 25 -49 32v31h204v-32q-59 -11 -100 -65l-163 -210l208 -313q32 -45 84 -56v-32h-148l-214 304l-71 -102v-87q0 -80 78 -82v-33h-254v33q73 1 73 57v530q0 56 -73 57v33h254v-33q-78 -1 -78 -57v-315zM394 -110q0 -20 -14 -34t-36 -14
q-20 0 -34 14q-15 14 -15 34t15 33q14 14 34 14q22 0 36 -14t14 -33z" />
    <glyph glyph-name="uni1E33" unicode="&#x1e33;" horiz-adv-x="526" 
d="M184 101q0 -67 64 -68v-33h-227v33q60 2 60 57v547q-4 45 -78 50v38q84 0 181 12v-531l105 170q13 22 13 38q0 29 -45 29v34h191v-35q-39 0 -95 -72l-52 -72l133 -198q43 -65 104 -67v-33h-221v33q25 1 25 28q0 12 -4 24l-87 139zM320 -110q0 -20 -14 -34t-36 -14
q-20 0 -34 14q-15 14 -15 34t15 33q14 14 34 14q22 0 36 -14t14 -33z" />
    <glyph glyph-name="uni1E36" unicode="&#x1e36;" horiz-adv-x="555" 
d="M339 54q136 0 136 130h46v-184h-477v33q73 1 73 57v530q0 56 -73 57v33h254v-33q-78 -1 -78 -57v-527q0 -39 60 -39h59zM332 -110q0 -20 -14 -34t-36 -14q-20 0 -34 14q-15 14 -15 34t15 33q14 14 34 14q22 0 36 -14t14 -33z" />
    <glyph glyph-name="uni1E37" unicode="&#x1e37;" horiz-adv-x="273" 
d="M83 637q-3 45 -77 50v38q84 0 181 12v-647q0 -56 64 -57v-33h-227v33q59 2 59 57v547zM178 -110q0 -20 -14 -34t-36 -14q-20 0 -34 14q-15 14 -15 34t15 33q14 14 34 14q22 0 36 -14t14 -33z" />
    <glyph glyph-name="uni1E38" unicode="&#x1e38;" horiz-adv-x="555" 
d="M339 54q136 0 136 130h46v-184h-477v33q73 1 73 57v530q0 56 -73 57v33h254v-33q-78 -1 -78 -57v-527q0 -39 60 -39h59zM147 783v48h272v-48h-272zM332 -110q0 -20 -14 -34t-36 -14q-20 0 -34 14q-15 14 -15 34t15 33q14 14 34 14q22 0 36 -14t14 -33z" />
    <glyph glyph-name="uni1E39" unicode="&#x1e39;" horiz-adv-x="273" 
d="M83 637q-3 45 -77 50v38q84 0 181 12v-647q0 -56 64 -57v-33h-227v33q59 2 59 57v547zM-4 783v48h272v-48h-272zM178 -110q0 -20 -14 -34t-36 -14q-20 0 -34 14q-15 14 -15 34t15 33q14 14 34 14q22 0 36 -14t14 -33z" />
    <glyph glyph-name="uni1E3A" unicode="&#x1e3a;" horiz-adv-x="555" 
d="M339 54q136 0 136 130h46v-184h-477v33q73 1 73 57v530q0 56 -73 57v33h254v-33q-78 -1 -78 -57v-527q0 -39 60 -39h59zM146 -120v48h272v-48h-272z" />
    <glyph glyph-name="uni1E3B" unicode="&#x1e3b;" horiz-adv-x="273" 
d="M83 637q-3 45 -77 50v38q84 0 181 12v-647q0 -56 64 -57v-33h-227v33q59 2 59 57v547zM-5 -120v48h272v-48h-272z" />
    <glyph glyph-name="uni1E40" unicode="&#x1e40;" horiz-adv-x="855" 
d="M154 710l285 -578l253 578h134v-33q-49 -1 -49 -106v-481q0 -56 49 -57v-33h-205v33q47 2 53 50v402l-222 -485h-68l-240 481v-391q0 -55 48 -57v-33h-163v33q49 1 49 57v481q0 105 -49 106v33h125zM487 831q0 -56 -58 -56q-59 0 -59 56q0 57 59 57q58 0 58 -57z" />
    <glyph glyph-name="uni1E41" unicode="&#x1e41;" horiz-adv-x="804" 
d="M200 90q0 -55 65 -57v-33h-227v33q59 2 59 57v298q-5 48 -77 49v40l92 2q41 3 88 9v-71q53 74 142 75q101 -1 115 -75q62 75 152 75q131 0 131 -151v-251q0 -55 59 -57v-33h-216v33q56 2 56 57v237q0 100 -62 100q-48 0 -104 -77v-260q0 -55 60 -57v-33h-216v33
q55 1 55 57v237q0 100 -62 100q-50 0 -110 -77v-260zM468 598q0 -56 -58 -56q-59 0 -59 56q0 57 59 57q58 0 58 -57z" />
    <glyph glyph-name="uni1E42" unicode="&#x1e42;" horiz-adv-x="855" 
d="M154 710l285 -578l253 578h134v-33q-49 -1 -49 -106v-481q0 -56 49 -57v-33h-205v33q47 2 53 50v402l-222 -485h-68l-240 481v-391q0 -55 48 -57v-33h-163v33q49 1 49 57v481q0 105 -49 106v33h125zM477 -110q0 -20 -14 -34t-36 -14q-20 0 -34 14q-15 14 -15 34t15 33
q14 14 34 14q22 0 36 -14t14 -33z" />
    <glyph glyph-name="uni1E43" unicode="&#x1e43;" horiz-adv-x="804" 
d="M200 90q0 -55 65 -57v-33h-227v33q59 2 59 57v298q-5 48 -77 49v40l92 2q41 3 88 9v-71q53 74 142 75q101 -1 115 -75q62 75 152 75q131 0 131 -151v-251q0 -55 59 -57v-33h-216v33q56 2 56 57v237q0 100 -62 100q-48 0 -104 -77v-260q0 -55 60 -57v-33h-216v33
q55 1 55 57v237q0 100 -62 100q-50 0 -110 -77v-260zM459 -110q0 -20 -14 -34t-36 -14q-20 0 -34 14q-15 14 -15 34t15 33q14 14 34 14q22 0 36 -14t14 -33z" />
    <glyph glyph-name="uni1E44" unicode="&#x1e44;" horiz-adv-x="688" 
d="M144 491v-401q0 -55 102 -57v-33h-217v33q49 1 49 57v481q0 105 -49 106v33h92l419 -511v421q0 55 -98 57v33h217v-33q-54 -1 -54 -57v-620h-40zM403 831q0 -56 -58 -56q-59 0 -59 56q0 57 59 57q58 0 58 -57z" />
    <glyph glyph-name="uni1E45" unicode="&#x1e45;" horiz-adv-x="578" 
d="M193 90q0 -55 60 -57v-33h-223v33q60 2 60 57v298q-5 48 -78 49v40q22 0 48 1q18 0 44 1q41 3 89 9v-70q66 74 170 74q140 0 140 -161v-241q0 -55 65 -57v-33h-223v33q56 2 56 57v237q0 102 -80 102q-70 0 -128 -76v-263zM349 598q0 -56 -58 -56q-59 0 -59 56q0 57 59 57
q58 0 58 -57z" />
    <glyph glyph-name="uni1E46" unicode="&#x1e46;" horiz-adv-x="688" 
d="M144 491v-401q0 -55 102 -57v-33h-217v33q49 1 49 57v481q0 105 -49 106v33h92l419 -511v421q0 55 -98 57v33h217v-33q-54 -1 -54 -57v-620h-40zM394 -110q0 -20 -14 -34t-36 -14q-20 0 -34 14q-15 14 -15 34t15 33q14 14 34 14q22 0 36 -14t14 -33z" />
    <glyph glyph-name="uni1E47" unicode="&#x1e47;" horiz-adv-x="578" 
d="M193 90q0 -55 60 -57v-33h-223v33q60 2 60 57v298q-5 48 -78 49v40q22 0 48 1q18 0 44 1q41 3 89 9v-70q66 74 170 74q140 0 140 -161v-241q0 -55 65 -57v-33h-223v33q56 2 56 57v237q0 102 -80 102q-70 0 -128 -76v-263zM340 -110q0 -20 -14 -34t-36 -14q-20 0 -34 14
q-15 14 -15 34t15 33q14 14 34 14q22 0 36 -14t14 -33z" />
    <glyph glyph-name="uni1E48" unicode="&#x1e48;" horiz-adv-x="688" 
d="M144 491v-401q0 -55 102 -57v-33h-217v33q49 1 49 57v481q0 105 -49 106v33h92l419 -511v421q0 55 -98 57v33h217v-33q-54 -1 -54 -57v-620h-40zM208 -120v48h272v-48h-272z" />
    <glyph glyph-name="uni1E49" unicode="&#x1e49;" horiz-adv-x="578" 
d="M193 90q0 -55 60 -57v-33h-223v33q60 2 60 57v298q-5 48 -78 49v40q22 0 48 1q18 0 44 1q41 3 89 9v-70q66 74 170 74q140 0 140 -161v-241q0 -55 65 -57v-33h-223v33q56 2 56 57v237q0 102 -80 102q-70 0 -128 -76v-263zM154 -120v48h272v-48h-272z" />
    <glyph glyph-name="uni1E58" unicode="&#x1e58;" horiz-adv-x="603" 
d="M487 193q42 -159 136 -166v-27h-116q-110 1 -145 180q-25 118 -106 138h-60v-179q0 -104 77 -106v-33h-253v33q73 1 73 57v530q0 56 -73 57v33h201q297 0 306 -179q0 -174 -209 -201q133 -21 169 -137zM196 665v-249q0 -55 75 -55q148 16 148 152q0 149 -172 152h-51z
M380 831q0 -56 -58 -56q-59 0 -59 56q0 57 59 57q58 0 58 -57z" />
    <glyph glyph-name="uni1E59" unicode="&#x1e59;" horiz-adv-x="406" 
d="M208 376q46 113 117 113t76 -62q0 -61 -54 -66q-48 2 -61 47q-1 6 -6 6q-29 0 -72 -102v-222q0 -55 60 -57v-33h-223v33q59 2 59 57v298q-3 47 -77 49v40l92 2q41 3 89 9v-112zM273 598q0 -56 -58 -56q-59 0 -59 56q0 57 59 57q58 0 58 -57z" />
    <glyph glyph-name="uni1E5A" unicode="&#x1e5a;" horiz-adv-x="603" 
d="M487 193q42 -159 136 -166v-27h-116q-110 1 -145 180q-25 118 -106 138h-60v-179q0 -104 77 -106v-33h-253v33q73 1 73 57v530q0 56 -73 57v33h201q297 0 306 -179q0 -174 -209 -201q133 -21 169 -137zM196 665v-249q0 -55 75 -55q148 16 148 152q0 149 -172 152h-51z
M371 -110q0 -20 -14 -34t-36 -14q-20 0 -34 14q-15 14 -15 34t15 33q14 14 34 14q22 0 36 -14t14 -33z" />
    <glyph glyph-name="uni1E5B" unicode="&#x1e5b;" horiz-adv-x="406" 
d="M208 376q46 113 117 113t76 -62q0 -61 -54 -66q-48 2 -61 47q-1 6 -6 6q-29 0 -72 -102v-222q0 -55 60 -57v-33h-223v33q59 2 59 57v298q-3 47 -77 49v40l92 2q41 3 89 9v-112zM264 -110q0 -20 -14 -34t-36 -14q-20 0 -34 14q-15 14 -15 34t15 33q14 14 34 14
q22 0 36 -14t14 -33z" />
    <glyph glyph-name="uni1E5C" unicode="&#x1e5c;" horiz-adv-x="603" 
d="M487 193q42 -159 136 -166v-27h-116q-110 1 -145 180q-25 118 -106 138h-60v-179q0 -104 77 -106v-33h-253v33q73 1 73 57v530q0 56 -73 57v33h201q297 0 306 -179q0 -174 -209 -201q133 -21 169 -137zM196 665v-249q0 -55 75 -55q148 16 148 152q0 149 -172 152h-51z
M185 783v48h272v-48h-272zM371 -110q0 -20 -14 -34t-36 -14q-20 0 -34 14q-15 14 -15 34t15 33q14 14 34 14q22 0 36 -14t14 -33z" />
    <glyph glyph-name="uni1E5D" unicode="&#x1e5d;" horiz-adv-x="406" 
d="M208 376q46 113 117 113t76 -62q0 -61 -54 -66q-48 2 -61 47q-1 6 -6 6q-29 0 -72 -102v-222q0 -55 60 -57v-33h-223v33q59 2 59 57v298q-3 47 -77 49v40l92 2q41 3 89 9v-112zM78 550v48h272v-48h-272zM264 -110q0 -20 -14 -34t-36 -14q-20 0 -34 14q-15 14 -15 34
t15 33q14 14 34 14q22 0 36 -14t14 -33z" />
    <glyph glyph-name="uni1E5E" unicode="&#x1e5e;" horiz-adv-x="603" 
d="M487 193q42 -159 136 -166v-27h-116q-110 1 -145 180q-25 118 -106 138h-60v-179q0 -104 77 -106v-33h-253v33q73 1 73 57v530q0 56 -73 57v33h201q297 0 306 -179q0 -174 -209 -201q133 -21 169 -137zM196 665v-249q0 -55 75 -55q148 16 148 152q0 149 -172 152h-51z
M185 -120v48h272v-48h-272z" />
    <glyph glyph-name="uni1E5F" unicode="&#x1e5f;" horiz-adv-x="406" 
d="M208 376q46 113 117 113t76 -62q0 -61 -54 -66q-48 2 -61 47q-1 6 -6 6q-29 0 -72 -102v-222q0 -55 60 -57v-33h-223v33q59 2 59 57v298q-3 47 -77 49v40l92 2q41 3 89 9v-112zM78 -120v48h272v-48h-272z" />
    <glyph glyph-name="uni1E62" unicode="&#x1e62;" horiz-adv-x="557" 
d="M137 408q-70 52 -76 131q0 73 59 126q58 52 167 52q108 0 176 -62v-132h-34q-20 82 -54 113q-35 31 -83 31q-62 0 -90 -31q-29 -32 -29 -77q3 -50 107 -106q99 -53 153 -94q81 -64 88 -166q0 -88 -62 -144q-64 -56 -189 -56q-146 0 -221 83v176h50q19 -135 61 -173
q41 -38 103 -38q74 0 109 31q33 29 35 98q-5 84 -115 145q-108 59 -155 93zM334 -110q0 -20 -14 -34t-36 -14q-20 0 -34 14q-15 14 -15 34t15 33q14 14 34 14q22 0 36 -14t14 -33z" />
    <glyph glyph-name="uni1E63" unicode="&#x1e63;" horiz-adv-x="452" 
d="M377 334h-44q-20 84 -41 102q-27 18 -68 18q-67 -7 -72 -60q0 -53 129 -94q128 -47 132 -140q0 -162 -197 -162q-116 0 -164 48v124h46q19 -78 35 -105q14 -24 79 -32q103 4 105 93q0 39 -34 67q-34 29 -102 45q-133 34 -137 113q0 63 51 102q50 39 136 39q95 0 146 -52
v-106zM278 -110q0 -20 -14 -34t-36 -14q-20 0 -34 14q-15 14 -15 34t15 33q14 14 34 14q22 0 36 -14t14 -33z" />
    <glyph glyph-name="uni1E6C" unicode="&#x1e6c;" horiz-adv-x="562" 
d="M542 710v-188h-45q0 134 -90 134h-74v-566q0 -56 73 -57v-33h-250v33q73 1 73 57v566h-74q-90 0 -90 -134h-45v188h522zM331 -110q0 -20 -14 -34t-36 -14q-20 0 -34 14q-15 14 -15 34t15 33q14 14 34 14q22 0 36 -14t14 -33z" />
    <glyph glyph-name="uni1E6D" unicode="&#x1e6d;" horiz-adv-x="302" 
d="M177 437v-327q0 -38 26 -46q36 2 58 22l26 -30q-43 -58 -105 -58q-107 2 -107 103v336h-75v40q95 21 117 135h60v-135h96v-40h-96zM193 -110q0 -20 -14 -34t-36 -14q-20 0 -34 14q-15 14 -15 34t15 33q14 14 34 14q22 0 36 -14t14 -33z" />
    <glyph glyph-name="Wgrave" unicode="&#x1e80;" horiz-adv-x="817" 
d="M412 490l-114 -490h-80l-192 628q-13 34 -46 45v37h233v-40q-65 -6 -65 -48l133 -452l124 542h36l166 -562l122 475q0 43 -73 44v41h186v-38q-31 -10 -43 -44l-172 -628h-79zM437 742q-92 56 -111 77q-11 14 -11 32q0 27 22 43q15 12 34 12q24 0 42 -21l2 -3
q17 -23 44 -125z" />
    <glyph glyph-name="wgrave" unicode="&#x1e81;" horiz-adv-x="688" 
d="M337 294l-116 -294h-33l-134 386q-22 56 -74 58v33h226v-33q-55 -1 -55 -32l85 -242l119 304l153 -306l75 243q0 31 -59 33v33h184v-33q-40 -1 -62 -58l-135 -386h-32zM370 509q-92 56 -111 77q-11 14 -11 32q0 27 22 43q15 12 34 12q24 0 42 -21l2 -3q17 -23 44 -125z
" />
    <glyph glyph-name="Wacute" unicode="&#x1e82;" horiz-adv-x="817" 
d="M412 490l-114 -490h-80l-192 628q-13 34 -46 45v37h233v-40q-65 -6 -65 -48l133 -452l124 542h36l166 -562l122 475q0 43 -73 44v41h186v-38q-31 -10 -43 -44l-172 -628h-79zM363 757q27 100 44 125l2 3q18 21 42 21q18 0 34 -12q22 -16 22 -43q0 -18 -11 -32
q-19 -21 -111 -77z" />
    <glyph glyph-name="wacute" unicode="&#x1e83;" horiz-adv-x="688" 
d="M337 294l-116 -294h-33l-134 386q-22 56 -74 58v33h226v-33q-55 -1 -55 -32l85 -242l119 304l153 -306l75 243q0 31 -59 33v33h184v-33q-40 -1 -62 -58l-135 -386h-32zM296 524q27 100 44 125l2 3q18 21 42 21q18 0 34 -12q22 -16 22 -43q0 -18 -11 -32q-19 -21 -111 -77
z" />
    <glyph glyph-name="Wdieresis" unicode="&#x1e84;" horiz-adv-x="817" 
d="M412 490l-114 -490h-80l-192 628q-13 34 -46 45v37h233v-40q-65 -6 -65 -48l133 -452l124 542h36l166 -562l122 475q0 43 -73 44v41h186v-38q-31 -10 -43 -44l-172 -628h-79zM389 821q0 -46 -48 -46q-49 0 -49 46q0 48 49 48q48 0 48 -48zM531 821q0 -46 -48 -46
q-49 0 -49 46q0 48 49 48q48 0 48 -48z" />
    <glyph glyph-name="wdieresis" unicode="&#x1e85;" horiz-adv-x="688" 
d="M337 294l-116 -294h-33l-134 386q-22 56 -74 58v33h226v-33q-55 -1 -55 -32l85 -242l119 304l153 -306l75 243q0 31 -59 33v33h184v-33q-40 -1 -62 -58l-135 -386h-32zM321 588q0 -46 -48 -46q-49 0 -49 46q0 48 49 48q48 0 48 -48zM463 588q0 -46 -48 -46q-49 0 -49 46
q0 48 49 48q48 0 48 -48z" />
    <glyph glyph-name="uni1E88" unicode="&#x1e88;" horiz-adv-x="817" 
d="M412 490l-114 -490h-80l-192 628q-13 34 -46 45v37h233v-40q-65 -6 -65 -48l133 -452l124 542h36l166 -562l122 475q0 43 -73 44v41h186v-38q-31 -10 -43 -44l-172 -628h-79zM461 -110q0 -20 -14 -34t-36 -14q-20 0 -34 14q-15 14 -15 34t15 33q14 14 34 14q22 0 36 -14
t14 -33z" />
    <glyph glyph-name="uni1E89" unicode="&#x1e89;" horiz-adv-x="688" 
d="M337 294l-116 -294h-33l-134 386q-22 56 -74 58v33h226v-33q-55 -1 -55 -32l85 -242l119 304l153 -306l75 243q0 31 -59 33v33h184v-33q-40 -1 -62 -58l-135 -386h-32zM394 -110q0 -20 -14 -34t-36 -14q-20 0 -34 14q-15 14 -15 34t15 33q14 14 34 14q22 0 36 -14t14 -33
z" />
    <glyph glyph-name="uni1E92" unicode="&#x1e92;" horiz-adv-x="527" 
d="M129 54h222q111 0 111 178h45v-232h-487v46l379 614h-195q-134 0 -135 -130h-46v184h482v-54zM313 -110q0 -20 -14 -34t-36 -14q-20 0 -34 14q-15 14 -15 34t15 33q14 14 34 14q22 0 36 -14t14 -33z" />
    <glyph glyph-name="uni1E93" unicode="&#x1e93;" horiz-adv-x="437" 
d="M392 435l-234 -394h136q43 10 53 116h46v-157h-349v55l226 381h-121q-44 -17 -54 -116h-45v157h342v-42zM268 -110q0 -20 -14 -34t-36 -14q-20 0 -34 14q-15 14 -15 34t15 33q14 14 34 14q22 0 36 -14t14 -33z" />
    <glyph glyph-name="uni1EBC" unicode="&#x1ebc;" horiz-adv-x="607" 
d="M201 340v-245q0 -41 47 -41h144q135 0 135 134h46v-188h-549v33q74 2 74 57v530q0 55 -74 57v33h517v-188h-46q0 134 -139 134h-155v-262h163q55 0 56 54h39v-157h-39q-1 49 -56 49h-163zM241 819q-26 0 -30 -19q-7 -25 -18 -25q-4 0 -9 5q5 63 50 91q11 7 35 7
q19 0 48 -29t40 -29q25 0 29 19q7 25 18 25q5 0 10 -5q-5 -63 -51 -91q-10 -7 -33 -7q-20 0 -49 29t-40 29z" />
    <glyph glyph-name="uni1EBD" unicode="&#x1ebd;" horiz-adv-x="487" 
d="M356 305q-4 138 -90 140q-85 0 -111 -140h201zM258 -2q-212 4 -223 253q11 240 223 241q203 0 203 -237h-309q2 -201 130 -201q93 0 135 94l29 -20q-46 -125 -188 -130zM191 586q-26 0 -30 -19q-7 -25 -18 -25q-4 0 -9 5q5 63 50 91q11 7 35 7q19 0 48 -29t40 -29
q25 0 29 19q7 25 18 25q5 0 10 -5q-5 -63 -51 -91q-10 -7 -33 -7q-20 0 -49 29t-40 29z" />
    <glyph glyph-name="Ygrave" unicode="&#x1ef2;" horiz-adv-x="538" 
d="M323 301v-211q0 -56 73 -57v-33h-250v33q74 2 74 57v213l-174 316q-33 57 -61 58v33h214v-33q-42 -1 -42 -33q0 -11 7 -24l129 -251l125 251q7 13 7 24q0 32 -42 33v33h170v-33q-40 -1 -70 -58zM295 742q-92 56 -111 77q-11 14 -11 32q0 27 22 43q15 12 34 12
q24 0 42 -21l2 -3q17 -23 44 -125z" />
    <glyph glyph-name="ygrave" unicode="&#x1ef3;" horiz-adv-x="501" 
d="M10 -210q-77 5 -77 71q9 56 67 57q44 0 72 -22q11 -10 26 -10q17 0 35 15q58 43 91 137l-115 294q-52 110 -102 112v33h225v-33q-38 -2 -38 -43q0 -11 3 -25l84 -223l104 223q9 21 9 36q0 30 -41 32v33h164v-33q-39 -2 -90 -112l-123 -270q-123 -272 -291 -272h-3z
M251 509q-92 56 -111 77q-11 14 -11 32q0 27 22 43q15 12 34 12q24 0 42 -21l2 -3q17 -23 44 -125z" />
    <glyph glyph-name="uni1EF4" unicode="&#x1ef4;" horiz-adv-x="538" 
d="M323 301v-211q0 -56 73 -57v-33h-250v33q74 2 74 57v213l-174 316q-33 57 -61 58v33h214v-33q-42 -1 -42 -33q0 -11 7 -24l129 -251l125 251q7 13 7 24q0 32 -42 33v33h170v-33q-40 -1 -70 -58zM319 -110q0 -20 -14 -34t-36 -14q-20 0 -34 14q-15 14 -15 34t15 33
q14 14 34 14q22 0 36 -14t14 -33z" />
    <glyph glyph-name="uni1EF5" unicode="&#x1ef5;" horiz-adv-x="501" 
d="M10 -210q-77 5 -77 71q9 56 67 57q44 0 72 -22q11 -10 26 -10q17 0 35 15q58 43 91 137l-115 294q-52 110 -102 112v33h225v-33q-38 -2 -38 -43q0 -11 3 -25l84 -223l104 223q9 21 9 36q0 30 -41 32v33h164v-33q-39 -2 -90 -112l-123 -270q-123 -272 -291 -272h-3z
M372 -110q0 -20 -14 -34t-36 -14q-20 0 -34 14q-15 14 -15 34t15 33q14 14 34 14q22 0 36 -14t14 -33z" />
    <glyph glyph-name="uni2010" unicode="&#x2010;" horiz-adv-x="349" 
d="M24 244l28 48h272l-28 -48h-272z" />
    <glyph glyph-name="uni2011" unicode="&#x2011;" horiz-adv-x="349" 
d="M24 244l28 48h272l-28 -48h-272z" />
    <glyph glyph-name="figuredash" unicode="&#x2012;" horiz-adv-x="604" 
d="M24 326v58h556v-58h-556z" />
    <glyph glyph-name="endash" unicode="&#x2013;" horiz-adv-x="604" 
d="M24 205v58h556v-58h-556z" />
    <glyph glyph-name="emdash" unicode="&#x2014;" horiz-adv-x="846" 
d="M24 205v58h797v-58h-797z" />
    <glyph glyph-name="afii00208" unicode="&#x2015;" horiz-adv-x="1500" 
d="M7 205v58h1195v-58h-1195z" />
    <glyph glyph-name="underscoredbl" unicode="&#x2017;" horiz-adv-x="517" 
d="M-26 -212v49h570v-49h-570zM-26 -90v49h570v-49h-570z" />
    <glyph glyph-name="quoteleft" unicode="&#x2018;" horiz-adv-x="213" 
d="M115 600q20 0 33 -15q17 -17 17 -39t-17 -39t-41 -17q-25 0 -42 17q-16 16 -16 39v4q0 74 88 159l19 -21q-30 -38 -41 -88z" />
    <glyph glyph-name="quoteright" unicode="&#x2019;" horiz-adv-x="245" 
d="M108 599q-19 0 -33 15q-16 16 -16 39t16 39q17 17 41 17q25 0 42 -17q16 -16 16 -39v-4q0 -74 -88 -159l-19 21q30 40 41 88z" />
    <glyph glyph-name="quotesinglbase" unicode="&#x201a;" horiz-adv-x="213" 
d="M98 -6q-19 0 -33 14q-16 16 -16 39q0 24 16 40q17 17 41 17q25 0 42 -17t17 -40v-4q0 -72 -89 -158l-18 20q29 41 40 89z" />
    <glyph glyph-name="quotereversed" unicode="&#x201b;" horiz-adv-x="245" 
d="M147 490q-88 85 -88 159v4q0 23 16 39q17 17 42 17q24 0 41 -17q16 -16 16 -39t-16 -39q-13 -15 -33 -15q11 -48 41 -88z" />
    <glyph glyph-name="quotedblleft" unicode="&#x201c;" horiz-adv-x="375" 
d="M115 600q20 0 33 -15q17 -17 17 -39t-17 -39t-41 -17q-25 0 -42 17q-16 16 -16 39v4q0 74 88 159l19 -21q-30 -38 -41 -88zM277 600q20 0 33 -15q17 -17 17 -39t-17 -39t-41 -17q-25 0 -42 17q-16 16 -16 39v4q0 74 88 159l19 -21q-30 -38 -41 -88z" />
    <glyph glyph-name="quotedblright" unicode="&#x201d;" horiz-adv-x="407" 
d="M108 599q-19 0 -33 15q-16 16 -16 39t16 39q17 17 41 17q25 0 42 -17q16 -16 16 -39v-4q0 -74 -88 -159l-19 21q30 40 41 88zM270 599q-19 0 -33 15q-16 16 -16 39t16 39q17 17 41 17q25 0 42 -17q16 -16 16 -39v-4q0 -74 -88 -159l-19 21q30 40 41 88z" />
    <glyph glyph-name="quotedblbase" unicode="&#x201e;" horiz-adv-x="407" 
d="M108 0q-19 0 -33 14q-16 16 -16 39q0 24 16 40t41 16q26 0 42 -16t16 -40v-4q0 -73 -88 -158l-19 20q30 40 41 89zM270 0q-19 0 -33 14q-16 16 -16 39q0 24 16 40t41 16q26 0 42 -16t16 -40v-4q0 -73 -88 -158l-19 20q30 40 41 89z" />
    <glyph glyph-name="dagger" unicode="&#x2020;" horiz-adv-x="600" 
d="M198 465q75 -25 102 -101q26 75 101 101q-76 27 -101 102q-27 -75 -102 -102zM322 7q0 -25 7 -74q7 -50 7 -96q0 -45 -36 -45q-37 0 -37 45q0 46 7 96l6 45q0 8 1 16q1 6 1 13v198q-9 9 -9 22t11 24q-9 -6 -19 -6q-32 0 -32 31t32 31q10 0 19 -6q-11 11 -11 24q0 12 7 20
q-38 64 -101 99q-9 -9 -22 -9t-24 11q7 -7 7 -19q0 -31 -32 -31q-31 0 -31 31q0 12 7 20q-12 -12 -24 -12q-32 0 -32 31q0 32 32 32q12 0 24 -12q-7 8 -7 19q0 32 31 32q32 0 32 -32q0 -11 -7 -19q11 12 24 12t22 -9l1 -1q63 35 99 96q-6 8 -6 19q0 13 11 24q-9 -6 -19 -6
q-32 0 -32 31t32 31q11 0 19 -7q-11 13 -11 25q0 31 31 31t31 -31q0 -13 -12 -24q9 6 20 6q31 0 31 -31t-31 -31q-11 0 -19 6q11 -11 11 -24q0 -9 -5 -17q37 -63 99 -97q9 9 21 9q14 0 24 -12q-6 9 -6 19q0 32 31 32t31 -32q0 -10 -6 -19q11 12 24 12q31 0 31 -32
q0 -31 -31 -31q-13 0 -24 12q6 -9 6 -20q0 -31 -31 -31t-31 31q0 12 6 19q-11 -11 -24 -11q-10 0 -20 8q-63 -35 -101 -100q6 -7 6 -18q0 -13 -11 -24q8 6 19 6q31 0 31 -31t-31 -31q-11 0 -20 6q12 -10 12 -24q0 -13 -9 -22v-198z" />
    <glyph glyph-name="daggerdbl" unicode="&#x2021;" horiz-adv-x="600" 
d="M198 465q75 -25 102 -101q26 75 101 101q-76 27 -101 102q-27 -75 -102 -102zM300 -43q25 75 101 102q-75 26 -101 101q-27 -76 -102 -101q75 -27 102 -102zM325 181q38 -65 101 -100q10 8 20 8q13 0 24 -11q-6 8 -6 19q0 31 31 31t31 -31q0 -12 -6 -20q11 12 24 12
q31 0 31 -31q0 -32 -31 -32q-13 0 -24 12q6 -9 6 -19q0 -32 -31 -32t-31 32q0 10 6 19q-10 -12 -24 -12q-12 0 -21 9q-63 -34 -99 -98q5 -8 5 -16q0 -13 -11 -24q8 6 19 6q31 0 31 -31t-31 -31q-11 0 -20 6q12 -10 12 -24q0 -31 -31 -31t-31 31q0 12 11 25q-8 -7 -19 -7
q-32 0 -32 31t32 31q10 0 19 -6q-11 11 -11 24q0 12 6 19q-36 62 -99 96l-1 -1q-9 -9 -22 -9t-24 12q7 -8 7 -19q0 -32 -32 -32q-31 0 -31 32q0 11 7 19q-12 -12 -24 -12q-32 0 -32 32q0 31 32 31q12 0 24 -12q-7 7 -7 20q0 31 31 31q32 0 32 -31q0 -12 -7 -19q11 11 24 11
t22 -9q63 35 101 99v166q-38 64 -101 99q-9 -9 -22 -9t-24 11q7 -7 7 -19q0 -31 -32 -31q-31 0 -31 31q0 12 7 20q-12 -12 -24 -12q-32 0 -32 31q0 32 32 32q12 0 24 -12q-7 8 -7 19q0 32 31 32q32 0 32 -32q0 -11 -7 -19q11 12 24 12t22 -9l1 -1q63 35 99 96q-6 8 -6 19
q0 13 11 24q-9 -6 -19 -6q-32 0 -32 31t32 31q11 0 19 -7q-11 13 -11 25q0 31 31 31t31 -31q0 -13 -12 -24q9 6 20 6q31 0 31 -31t-31 -31q-11 0 -19 6q11 -11 11 -24q0 -9 -5 -17q37 -63 99 -97q9 9 21 9q14 0 24 -12q-6 9 -6 19q0 32 31 32t31 -32q0 -10 -6 -19
q11 12 24 12q31 0 31 -32q0 -31 -31 -31q-13 0 -24 12q6 -9 6 -20q0 -31 -31 -31t-31 31q0 12 6 19q-11 -11 -24 -11q-10 0 -20 8q-63 -35 -101 -100v-162z" />
    <glyph glyph-name="bullet" unicode="&#x2022;" horiz-adv-x="125" 
d="M121 355q0 -22 -17 -39t-42 -17q-22 0 -41 17q-16 16 -16 39q0 24 16 40q19 17 41 17q25 0 42 -17t17 -40z" />
    <glyph glyph-name="twodotenleader" unicode="&#x2025;" horiz-adv-x="667" 
d="M165 51q0 -23 -17 -40q-16 -16 -42 -16q-25 0 -41 16t-16 40q0 23 16 39q17 17 41 17q25 0 42 -17t17 -39zM498 51q0 -23 -17 -40q-16 -16 -42 -16q-25 0 -41 16t-16 40q0 23 16 39q17 17 41 17q25 0 42 -17t17 -39z" />
    <glyph glyph-name="ellipsis" unicode="&#x2026;" horiz-adv-x="1000" 
d="M165 51q0 -23 -17 -40q-16 -16 -42 -16q-25 0 -41 16t-16 40q0 23 16 39q17 17 41 17q25 0 42 -17t17 -39zM498 51q0 -23 -17 -40q-16 -16 -42 -16q-25 0 -41 16t-16 40q0 23 16 39q17 17 41 17q25 0 42 -17t17 -39zM832 51q0 -23 -17 -40q-16 -16 -42 -16q-25 0 -41 16
t-16 40q0 23 16 39q17 17 41 17q25 0 42 -17t17 -39z" />
    <glyph glyph-name="perthousand" unicode="&#x2030;" horiz-adv-x="1111" 
d="M415 142q0 58 34 98q35 42 113 42q81 0 114 -42q34 -40 34 -98q0 -59 -33 -100q-34 -43 -114 -43t-114 43q-34 40 -34 100zM641 141q0 43 -16 71q-16 30 -62 30t-63 -30q-15 -28 -15 -71q0 -40 15 -72q17 -30 63 -30q47 0 62 30q16 31 16 72zM146 0l427 709h50l-428 -709
h-49zM354 570q0 -58 -34 -99q-33 -41 -113 -41q-79 0 -114 41q-34 41 -34 99q0 60 34 100q34 43 114 43t113 -43q34 -41 34 -100zM129 571q0 -42 15 -71q17 -30 63 -30t62 30q16 28 16 71q0 40 -16 71t-62 31q-48 0 -63 -31t-15 -71zM757 142q0 58 34 98q35 42 113 42
q80 0 114 -42q34 -40 34 -98q0 -59 -33 -100q-34 -43 -114 -43t-114 43q-34 40 -34 100zM982 141q0 43 -15 71q-16 30 -62 30t-63 -30q-15 -28 -15 -71q0 -40 15 -72q17 -30 63 -30q47 0 62 30q15 32 15 72z" />
    <glyph glyph-name="minute" unicode="&#x2032;" horiz-adv-x="163" 
d="M27 545v80q0 44 4 56q9 33 46 36h4q8 0 18 -3q34 -12 37 -47l-1 -12q0 -4 -1 -8l-1 -4q-9 -27 -79 -106z" />
    <glyph glyph-name="second" unicode="&#x2033;" horiz-adv-x="310" 
d="M27 545v80q0 44 4 56q9 33 46 36h4q8 0 18 -3q34 -12 37 -47l-1 -12q0 -4 -1 -8l-1 -4q-9 -27 -79 -106zM173 545v80q0 44 4 56q13 33 47 36h3q9 0 18 -3q35 -13 38 -47v-4q0 -8 -3 -16l-1 -4q-9 -26 -78 -106z" />
    <glyph glyph-name="guilsinglleft" unicode="&#x2039;" horiz-adv-x="358" 
d="M260 83v-61l-233 237l233 237v-61l-165 -176z" />
    <glyph glyph-name="guilsinglright" unicode="&#x203a;" horiz-adv-x="358" 
d="M263 259l-165 176v61l233 -237l-233 -237v61z" />
    <glyph glyph-name="exclamdbl" unicode="&#x203c;" horiz-adv-x="479" 
d="M178 51q0 -23 -17 -40q-16 -16 -41 -16t-41 16q-17 17 -17 40q0 22 17 39t41 17t41 -17t17 -39zM93 200q-47 361 -49 423q0 94 76 94q75 0 75 -94q-2 -62 -49 -423h-53zM417 51q0 -23 -17 -40q-16 -16 -41 -16t-41 16q-17 17 -17 40q0 22 17 39t41 17t41 -17t17 -39z
M332 200q-47 361 -49 423q0 94 76 94q75 0 75 -94q-2 -62 -49 -423h-53z" />
    <glyph glyph-name="uni203D" unicode="&#x203d;" horiz-adv-x="428" 
d="M254 52q0 -23 -16 -39q-17 -17 -42 -17q-24 0 -41 17q-16 16 -16 39q0 24 16 40t41 16q26 0 42 -16t16 -40zM235 409q62 88 64 172q0 121 -120 124q-59 -5 -81 -35q-12 -13 -12 -26q0 -14 15 -28q24 -22 24 -58q-3 -41 -45 -41q-48 0 -56 62q0 67 44 111q41 44 122 48
q189 -7 189 -170q-1 -109 -87 -198q-84 -86 -89 -169h-4v-1h-29q-44 234 -44 253q0 51 17 73q17 20 41 20t41 -20q16 -20 16 -73q0 -33 -6 -44z" />
    <glyph glyph-name="uni203E" unicode="&#x203e;" horiz-adv-x="517" 
d="M-26 769v49h570v-49h-570z" />
    <glyph glyph-name="fraction" unicode="&#x2044;" horiz-adv-x="99" 
d="M-134 0l427 709h50l-427 -709h-50z" />
    <glyph glyph-name="fraction" unicode="&#x2215;" horiz-adv-x="99" 
d="M-134 0l427 709h50l-427 -709h-50z" />
    <glyph glyph-name="uni204C" unicode="&#x204c;" horiz-adv-x="165" 
d="M140 355q0 -23 -16 -39q-17 -17 -42 -17q-24 0 -41 17t-17 39q0 23 17 40t41 17q25 0 42 -17q16 -16 16 -40z" />
    <glyph glyph-name="uni204D" unicode="&#x204d;" horiz-adv-x="165" 
d="M41 395q17 17 42 17q22 0 41 -17q16 -16 16 -40q0 -23 -16 -39q-19 -17 -41 -17q-25 0 -42 17t-17 39q0 23 17 40z" />
    <glyph glyph-name="uni2053" unicode="&#x2053;" horiz-adv-x="676" 
d="M301 311q-106 21 -164 21q-57 0 -66 -21q-14 -29 -29 -29q-9 0 -18 6q7 67 86 100q19 8 57 8q74 0 210 -28q104 -22 163 -22q58 0 65 22q13 28 30 28q9 0 17 -5q-7 -68 -86 -100q-19 -8 -55 -8q-73 0 -210 28z" />
    <glyph glyph-name="uni2070" unicode="&#x2070;" horiz-adv-x="439" 
d="M411 434q0 -69 -47 -122q-49 -52 -145 -52t-144 52q-47 53 -47 122q0 70 47 123q48 54 143 54t144 -54q49 -52 49 -123zM124 434q0 -55 25 -95q23 -35 70 -35q48 0 72 36q24 35 24 94q0 54 -26 95q-26 38 -71 38q-47 0 -69 -37q-25 -40 -25 -96z" />
    <glyph glyph-name="uni2074" unicode="&#x2074;" horiz-adv-x="439" 
d="M270 673h63v-262h42v-60h-42v-93h-86v93h-184v53zM145 411h102v139z" />
    <glyph glyph-name="uni2075" unicode="&#x2075;" horiz-adv-x="439" 
d="M83 498l66 209h202v-74h-168l-37 -93q18 20 64 21q72 0 123 -45q50 -44 50 -104q-2 -65 -53 -108q-52 -43 -137 -43q-84 5 -118 64q-19 37 -19 64q2 57 58 57q46 -4 49 -40q0 -31 -23 -51q-9 -7 -9 -13q11 -36 60 -37q38 0 67 30q30 31 32 80q0 43 -27 71q-25 28 -70 28
q-45 -1 -81 -44z" />
    <glyph glyph-name="uni2076" unicode="&#x2076;" horiz-adv-x="439" 
d="M148 518q23 33 84 33q156 0 156 -143q-4 -148 -165 -148q-164 0 -171 169q4 168 183 278h66q-132 -114 -153 -189zM149 425q0 -118 71 -118q73 0 76 98q0 95 -73 95q-53 0 -74 -75z" />
    <glyph glyph-name="uni2077" unicode="&#x2077;" horiz-adv-x="439" 
d="M386 621l-176 -364h-89l186 340h-192q-13 -4 -13 -67h-49v137h333v-46z" />
    </font>
</defs>
</svg>
